<svg width="238" height="40" viewBox="0 0 238 40" fill="none" xmlns="http://www.w3.org/2000/svg">
<rect width="237.143" height="40" fill="white"/>
<path d="M47.6869 34.9523C47.3534 34.9523 47.1152 34.7139 47.1152 34.3801C47.1152 34.2847 47.1629 34.1894 47.2105 34.094L51.4503 28.1335C53.4987 25.1771 53.8322 24.891 53.8322 21.8869V1.14441C53.8322 0.524523 54.3562 0 54.9755 0H58.4054C59.0247 0 59.5487 0.524523 59.5487 1.14441V1.95504V22.6022C59.5487 25.6539 58.5959 26.9891 56.6904 29.7071L53.1176 34.5708C52.927 34.8093 52.6412 35 52.3078 35H47.6869V34.9523Z" fill="#2A6EBB"/>
<path d="M15.6252 12.7316C15.6252 12.5886 15.7681 12.4932 15.7681 12.4932C16.9591 11.7779 18.7217 10.0136 18.7217 7.05722C18.7217 2.24114 14.5772 0 10.7661 0H1.14331C0.524016 0 0 0.524523 0 1.14441V24.748C0 25.3678 0.524016 25.8924 1.14331 25.8924H11.4331C15.3394 25.8924 19.5315 23.6035 19.5315 18.9782C19.5315 15.3065 17.102 13.5899 15.8158 12.9223C15.7681 12.97 15.6252 12.9223 15.6252 12.7316ZM5.71654 4.91144C5.71654 4.57766 5.95473 4.33924 6.28819 4.33924H8.67008C10.1945 4.33924 12.7669 4.67302 12.7669 7.39101C12.7669 10.0136 9.95631 10.3951 8.813 10.3951H6.28819C5.95473 10.3951 5.71654 10.1567 5.71654 9.82289V4.91144ZM10.9091 21.4578C10.385 21.5531 9.5752 21.6008 8.95591 21.6008H6.28819C5.95473 21.6008 5.71654 21.3624 5.71654 21.0286V15.9264C5.71654 15.5926 5.95473 15.3542 6.28819 15.3542H9.09882C9.62284 15.3542 10.4327 15.4019 10.9091 15.4973C11.3854 15.5926 13.3862 16.0695 13.3862 18.5967C13.3862 20.6471 11.3854 21.3624 10.9091 21.4578Z" fill="#2A6EBB"/>
<path d="M40.8257 10.5381C40.8734 10.4428 40.9686 10.3951 41.0639 10.3951C41.2068 10.3951 41.3497 10.5381 41.3497 10.6812V24.7956C41.3497 25.4155 41.8738 25.9401 42.493 25.9401H45.923C46.5423 25.9401 47.0663 25.4155 47.0663 24.7956V1.1921C47.0663 0.572207 46.5423 0.0476841 45.923 0.0476841H42.2549C41.8738 0.0476841 41.4927 0.23842 41.3021 0.572207L35.5379 8.67847C35.4903 8.72616 35.395 8.77384 35.2997 8.77384C35.2045 8.77384 35.1092 8.72616 35.0616 8.67847L29.2974 0.524523C29.1068 0.23842 28.7257 0 28.3446 0H24.7718C24.0572 0 23.5332 0.476839 23.5332 1.1921V24.7956C23.5332 25.4155 24.0572 25.9401 24.6765 25.9401H28.1064C28.7257 25.9401 29.2497 25.4155 29.2497 24.7956V10.6812C29.2497 10.5381 29.3927 10.3951 29.5356 10.3951C29.6308 10.3951 29.7261 10.4428 29.7738 10.5381L34.0135 16.5463C34.2041 16.8324 34.5375 17.0232 34.9186 17.0232H35.5856C35.9667 17.0232 36.3001 16.8324 36.4907 16.5463L40.8257 10.5381Z" fill="#2A6EBB"/>
<path d="M74.2637 25.7433V0.327759H77.3125V23.1207H89.079V25.7433H74.2637Z" fill="#747678"/>
<path d="M93.7489 16.4907C93.7489 18.7796 94.2729 20.5916 95.321 21.879C96.369 23.1665 97.8934 23.8341 99.8466 23.8341C100.99 23.8341 101.943 23.548 102.752 22.9758C103.562 22.4036 104.182 21.736 104.658 20.9254L106.611 22.2128C105.944 23.3572 105.087 24.3109 104.039 25.0739C102.991 25.8368 101.562 26.2183 99.7989 26.2183C98.4174 26.2183 97.1788 26.0275 96.0832 25.5984C94.9875 25.1692 94.0348 24.5493 93.2725 23.7864C92.5103 22.9758 91.8911 21.9744 91.4623 20.7823C91.0336 19.5902 90.843 18.2074 90.843 16.6338C90.843 15.2033 91.0336 13.8681 91.4147 12.7237C91.7958 11.5793 92.3674 10.5779 93.0344 9.76732C93.7489 8.95669 94.6064 8.28911 95.6068 7.85996C96.6072 7.4308 97.7029 7.19238 98.9414 7.19238C100.275 7.19238 101.466 7.4308 102.467 7.85996C103.467 8.3368 104.325 8.95669 104.944 9.76732C105.611 10.5779 106.087 11.5793 106.421 12.7237C106.754 13.8681 106.897 15.1556 106.897 16.5384H93.7489V16.4907ZM103.658 14.1542C103.61 13.3436 103.467 12.676 103.181 12.0561C102.895 11.4363 102.562 10.9594 102.133 10.5779C101.704 10.1965 101.228 9.91037 100.656 9.71963C100.085 9.5289 99.5607 9.43353 98.9891 9.43353C97.7505 9.43353 96.7025 9.815 95.845 10.5303C94.9875 11.2455 94.3682 12.4853 94.0348 14.1542H103.658Z" fill="#747678"/>
<path d="M121.189 25.7452L121.046 24.1716C120.427 24.7915 119.664 25.316 118.855 25.6498C118.045 25.9836 117.14 26.1743 116.139 26.1743C115.329 26.1743 114.567 26.0313 113.853 25.7929C113.09 25.5544 112.423 25.173 111.852 24.7438C111.28 24.267 110.804 23.6948 110.47 22.9795C110.137 22.2642 109.946 21.4536 109.946 20.4999C109.946 19.2125 110.28 18.1157 110.994 17.3051C111.709 16.4468 112.566 15.7792 113.662 15.3024C114.758 14.8255 115.901 14.4441 117.187 14.2533C118.473 14.0626 119.76 13.9672 120.951 13.9672V13.7288C120.951 12.2029 120.617 11.1062 119.998 10.4386C119.331 9.77105 118.426 9.43727 117.187 9.43727C116.33 9.43727 115.568 9.628 114.901 10.0095C114.186 10.3909 113.614 10.8678 113.138 11.4877L111.09 10.0572C111.804 9.05579 112.709 8.34054 113.71 7.8637C114.71 7.38686 115.996 7.14844 117.521 7.14844C119.569 7.14844 121.141 7.67296 122.284 8.72201C123.428 9.77105 123.999 11.4877 123.999 13.9672V25.8405H121.189V25.7452ZM120.903 16.2561C120.045 16.3038 119.188 16.3514 118.235 16.4468C117.283 16.5422 116.425 16.7329 115.615 17.019C114.805 17.3051 114.138 17.7343 113.614 18.3065C113.09 18.8787 112.852 19.5939 112.852 20.4999C112.852 21.0721 112.947 21.5967 113.186 21.9781C113.424 22.4073 113.71 22.7411 114.043 22.9795C114.377 23.2656 114.758 23.4563 115.186 23.5517C115.615 23.6471 115.996 23.7424 116.425 23.7424C117.33 23.7424 118.14 23.5517 118.902 23.1702C119.664 22.7888 120.331 22.3596 120.903 21.8351V16.2561Z" fill="#747678"/>
<path d="M129.003 25.7416V7.57401H131.671L131.909 9.19526C132.385 8.67074 133.005 8.1939 133.767 7.76474C134.529 7.33559 135.291 7.09717 136.101 7.09717C136.673 7.09717 137.197 7.14485 137.626 7.19254C138.102 7.2879 138.435 7.33559 138.721 7.43096L138.197 10.1489C137.578 9.86284 136.768 9.71978 135.815 9.71978C135.101 9.71978 134.386 9.91052 133.719 10.3397C133.052 10.7688 132.481 11.1503 132.004 11.5795V25.7416H129.003Z" fill="#747678"/>
<path d="M141.242 25.7416V7.57401H143.957L144.148 9.00452C144.862 8.43232 145.767 8.00316 146.768 7.62169C147.768 7.2879 148.816 7.09717 149.912 7.09717C152.389 7.09717 154.152 7.71706 155.2 8.95684C156.248 10.1966 156.724 12.0086 156.724 14.4405V25.7893H153.771V14.3451C153.771 12.8192 153.437 11.6271 152.722 10.7688C152.056 9.91052 150.912 9.48136 149.388 9.48136C148.435 9.48136 147.482 9.6721 146.53 10.1013C145.624 10.5304 144.815 11.0072 144.148 11.4841V25.7416H141.242Z" fill="#747678"/>
<path d="M163.347 4.66638C162.823 4.66638 162.347 4.47565 161.966 4.04649C161.584 3.61734 161.394 3.09282 161.394 2.52061C161.394 1.9484 161.584 1.42388 161.966 0.994723C162.347 0.565568 162.823 0.327148 163.347 0.327148C163.871 0.327148 164.347 0.565568 164.729 0.994723C165.11 1.42388 165.3 1.9484 165.3 2.52061C165.3 3.1405 165.11 3.66502 164.729 4.04649C164.347 4.42796 163.919 4.66638 163.347 4.66638ZM161.87 25.7427V7.5751H164.824V25.7904H161.87V25.7427Z" fill="#747678"/>
<path d="M170.105 25.7416V7.57401H172.82L173.011 9.00452C173.726 8.43232 174.631 8.00316 175.631 7.62169C176.631 7.2879 177.68 7.09717 178.775 7.09717C181.252 7.09717 183.015 7.71706 184.063 8.95684C185.111 10.1966 185.587 12.0086 185.587 14.4405V25.7893H182.634V14.3451C182.634 12.8192 182.3 11.6271 181.586 10.7688C180.919 9.91052 179.776 9.48136 178.251 9.48136C177.298 9.48136 176.346 9.6721 175.393 10.1013C174.488 10.5304 173.678 11.0072 173.011 11.4841V25.7416H170.105Z" fill="#747678"/>
<path d="M204.358 9.48557C204.834 10.0101 205.168 10.5823 205.454 11.2022C205.739 11.8698 205.882 12.585 205.882 13.3956C205.882 14.4447 205.644 15.3984 205.215 16.209C204.787 17.0196 204.167 17.6872 203.453 18.2117C202.738 18.7362 201.881 19.1177 200.88 19.4038C199.928 19.6422 198.927 19.7853 197.927 19.7853C197.593 19.7853 197.165 19.7376 196.688 19.6899C196.212 19.6422 195.783 19.5946 195.545 19.5469C195.116 19.5946 194.735 19.7376 194.402 19.9283C194.068 20.1668 193.878 20.4529 193.878 20.7867C193.878 21.2158 194.163 21.5019 194.783 21.6926C195.402 21.8834 196.45 21.9788 198.022 22.0264C199.546 22.0741 200.88 22.1695 202.071 22.3125C203.262 22.5033 204.215 22.7894 205.025 23.1709C205.835 23.6 206.454 24.1245 206.883 24.8398C207.311 25.555 207.502 26.4134 207.502 27.5101C207.502 28.5114 207.264 29.3698 206.835 30.085C206.359 30.8003 205.739 31.4202 204.977 31.9447C204.167 32.4215 203.262 32.803 202.214 33.0891C201.166 33.3275 200.07 33.4706 198.879 33.4706C195.974 33.4706 193.687 33.0414 192.067 32.1354C190.448 31.2294 189.638 29.8466 189.638 27.9392C189.638 25.9842 190.543 24.5537 192.305 23.6C191.829 23.4093 191.448 23.1232 191.162 22.7417C190.876 22.4079 190.686 21.9311 190.686 21.3589C190.686 20.6436 190.972 20.0714 191.496 19.5946C192.02 19.1177 192.734 18.7839 193.544 18.5932C193.258 18.4501 192.877 18.2117 192.496 17.9256C192.115 17.6395 191.734 17.3057 191.4 16.8766C191.067 16.4474 190.781 15.9229 190.543 15.3507C190.305 14.7785 190.209 14.1109 190.209 13.348C190.209 12.2989 190.448 11.3452 190.876 10.5823C191.305 9.77167 191.924 9.15178 192.639 8.62726C193.354 8.10273 194.211 7.72126 195.116 7.48284C196.021 7.24442 196.974 7.10137 197.974 7.10137C198.737 7.10137 199.499 7.14906 200.213 7.29211C200.928 7.43516 201.642 7.67358 202.309 7.95968L205.025 5.2417L206.883 6.95832L204.358 9.48557ZM197.974 24.5537C196.259 24.506 195.116 24.4106 194.449 24.3153C193.782 24.6491 193.258 25.0782 192.829 25.6027C192.401 26.1273 192.21 26.8425 192.21 27.6531C192.21 28.2253 192.353 28.7499 192.687 29.179C193.02 29.6082 193.496 29.9897 194.068 30.2758C194.64 30.5619 195.354 30.8003 196.164 30.9433C196.974 31.0864 197.831 31.1817 198.832 31.1817C200.594 31.1817 202.024 30.848 203.119 30.2281C204.215 29.6082 204.787 28.7499 204.787 27.6531C204.787 27.1286 204.691 26.6518 204.501 26.2703C204.31 25.8888 203.929 25.555 203.405 25.3166C202.881 25.0782 202.167 24.8875 201.309 24.7444C200.404 24.6491 199.308 24.5537 197.974 24.5537ZM193.401 14.9215C193.639 15.3984 193.973 15.8275 194.354 16.209C194.735 16.5905 195.259 16.8766 195.878 17.115C196.45 17.3534 197.117 17.4488 197.879 17.4488C198.498 17.4488 199.07 17.4011 199.689 17.258C200.309 17.115 200.833 16.8766 201.309 16.5905C201.785 16.2567 202.214 15.8275 202.5 15.303C202.786 14.7785 202.976 14.1109 202.976 13.348C202.976 12.7281 202.833 12.1559 202.548 11.6313C202.262 11.1545 201.881 10.7253 201.452 10.3916C200.976 10.0578 200.452 9.81936 199.88 9.6763C199.261 9.53325 198.689 9.43788 198.022 9.43788C197.403 9.43788 196.831 9.53325 196.212 9.6763C195.592 9.81936 195.068 10.1055 194.64 10.3916C194.163 10.7253 193.83 11.1068 193.544 11.6313C193.258 12.1082 193.115 12.7281 193.115 13.348C193.068 13.9202 193.211 14.4447 193.401 14.9215Z" fill="#747678"/>
</svg>