<svg width="178" height="30" viewBox="0 0 178 30" fill="none" xmlns="http://www.w3.org/2000/svg">
<path d="M40.8745 29.9591C40.5887 29.9591 40.3845 29.7548 40.3845 29.4687C40.3845 29.3869 40.4254 29.3052 40.4662 29.2234L44.1003 24.1144C45.8561 21.5804 46.1419 21.3351 46.1419 18.7602V0.980926C46.1419 0.449591 46.591 0 47.1219 0H50.0618C50.5926 0 51.0418 0.449591 51.0418 0.980926V1.67575V19.3733C51.0418 21.9891 50.2251 23.1335 48.5918 25.4632L45.5294 29.6322C45.3661 29.8365 45.1211 30 44.8353 30H40.8745V29.9591Z" fill="#2A6EBB"/>
<path d="M13.393 10.9128C13.393 10.7902 13.5155 10.7084 13.5155 10.7084C14.5363 10.0954 16.0471 8.5831 16.0471 6.04905C16.0471 1.92098 12.4947 0 9.22813 0H0.979978C0.449156 0 0 0.449591 0 0.980926V21.2125C0 21.7439 0.449156 22.1935 0.979978 22.1935H9.79978C13.148 22.1935 16.7413 20.2316 16.7413 16.267C16.7413 13.1199 14.6588 11.6485 13.5564 11.0763C13.5155 11.1172 13.393 11.0763 13.393 10.9128ZM4.89989 4.20981C4.89989 3.92371 5.10405 3.71935 5.38988 3.71935H7.4315C8.73814 3.71935 10.9431 4.00545 10.9431 6.33515C10.9431 8.58311 8.53398 8.91008 7.554 8.91008H5.38988C5.10405 8.91008 4.89989 8.70572 4.89989 8.41962V4.20981ZM9.35063 18.3924C8.90147 18.4741 8.20732 18.515 7.6765 18.515H5.38988C5.10405 18.515 4.89989 18.3106 4.89989 18.0245V13.6512C4.89989 13.3651 5.10405 13.1608 5.38988 13.1608H7.79899C8.24815 13.1608 8.9423 13.2016 9.35063 13.2834C9.75895 13.3651 11.4739 13.7738 11.4739 15.9401C11.4739 17.6975 9.75895 18.3106 9.35063 18.3924Z" fill="#2A6EBB"/>
<path d="M34.9934 9.0327C35.0343 8.95095 35.1159 8.91008 35.1976 8.91008C35.3201 8.91008 35.4426 9.0327 35.4426 9.15531V21.2534C35.4426 21.7847 35.8917 22.2343 36.4226 22.2343H39.3625C39.8933 22.2343 40.3425 21.7847 40.3425 21.2534V1.0218C40.3425 0.490463 39.8933 0.0408721 39.3625 0.0408721H36.2184C35.8917 0.0408721 35.5651 0.20436 35.4018 0.490463L30.461 7.43869C30.4202 7.47956 30.3385 7.52043 30.2569 7.52043C30.1752 7.52043 30.0935 7.47956 30.0527 7.43869L25.112 0.449591C24.9487 0.20436 24.622 0 24.2953 0H21.2329C20.6204 0 20.1713 0.408719 20.1713 1.0218V21.2534C20.1713 21.7847 20.6204 22.2343 21.1512 22.2343H24.0912C24.622 22.2343 25.0712 21.7847 25.0712 21.2534V9.15531C25.0712 9.0327 25.1937 8.91008 25.3161 8.91008C25.3978 8.91008 25.4795 8.95095 25.5203 9.0327L29.1544 14.1826C29.3177 14.4278 29.6036 14.5913 29.9302 14.5913H30.5019C30.8285 14.5913 31.1143 14.4278 31.2777 14.1826L34.9934 9.0327Z" fill="#2A6EBB"/>
<path d="M63.6545 22.0658V0.281036H66.2678V19.8178H76.3534V22.0658H63.6545Z" fill="#747678"/>
<path d="M80.3561 14.1349C80.3561 16.0968 80.8053 17.6499 81.7036 18.7534C82.6019 19.857 83.9086 20.4292 85.5827 20.4292C86.5627 20.4292 87.3793 20.184 88.0735 19.6935C88.7676 19.203 89.2984 18.6308 89.7068 17.936L91.3809 19.0395C90.8092 20.0205 90.0743 20.8379 89.1759 21.4919C88.2776 22.1458 87.0527 22.4728 85.5419 22.4728C84.3577 22.4728 83.2961 22.3093 82.3569 21.9415C81.4178 21.5736 80.6011 21.0423 79.9478 20.3883C79.2945 19.6935 78.7637 18.8352 78.3962 17.8134C78.0287 16.7916 77.8654 15.6063 77.8654 14.2575C77.8654 13.0314 78.0287 11.887 78.3553 10.906C78.682 9.9251 79.172 9.0668 79.7437 8.37197C80.3561 7.67715 81.0911 7.10494 81.9486 6.73709C82.8061 6.36925 83.7452 6.16489 84.8069 6.16489C85.9502 6.16489 86.971 6.36925 87.8285 6.73709C88.686 7.14581 89.4209 7.67715 89.9518 8.37197C90.5234 9.0668 90.9317 9.9251 91.2176 10.906C91.5034 11.887 91.6259 12.9905 91.6259 14.1758H80.3561V14.1349ZM88.8493 12.1322C88.8084 11.4374 88.686 10.8652 88.441 10.3338C88.196 9.80249 87.9101 9.39377 87.5426 9.06679C87.1751 8.73982 86.7668 8.49459 86.2768 8.3311C85.7868 8.16761 85.3377 8.08587 84.8477 8.08587C83.7861 8.08587 82.8877 8.41284 82.1528 9.02592C81.4178 9.639 80.887 10.7017 80.6011 12.1322H88.8493Z" fill="#747678"/>
<path d="M103.876 22.0673L103.754 20.7185C103.223 21.2498 102.569 21.6994 101.875 21.9855C101.181 22.2716 100.405 22.4351 99.5478 22.4351C98.8537 22.4351 98.2004 22.3125 97.5879 22.1082C96.9346 21.9038 96.3629 21.5768 95.8729 21.209C95.3829 20.8003 94.9746 20.3098 94.6888 19.6967C94.4029 19.0836 94.2396 18.3888 94.2396 17.5714C94.2396 16.4678 94.5254 15.5278 95.1379 14.833C95.7504 14.0973 96.4854 13.525 97.4246 13.1163C98.3637 12.7076 99.3437 12.3806 100.446 12.2171C101.549 12.0537 102.651 11.9719 103.672 11.9719V11.7676C103.672 10.4597 103.386 9.5196 102.855 8.94739C102.284 8.37518 101.508 8.08908 100.446 8.08908C99.7112 8.08908 99.0578 8.25257 98.4862 8.57954C97.8737 8.90652 97.3837 9.31524 96.9754 9.84657L95.2196 8.62042C95.8321 7.7621 96.6079 7.14903 97.4654 6.74031C98.3229 6.33159 99.4253 6.12723 100.732 6.12723C102.488 6.12723 103.835 6.57682 104.815 7.476C105.795 8.37518 106.285 9.84657 106.285 11.9719V22.149H103.876V22.0673ZM103.631 13.9338C102.896 13.9746 102.161 14.0155 101.344 14.0973C100.528 14.179 99.7928 14.3425 99.0987 14.5877C98.4045 14.833 97.8329 15.2008 97.3837 15.6913C96.9346 16.1817 96.7304 16.7948 96.7304 17.5714C96.7304 18.0618 96.8121 18.5114 97.0162 18.8384C97.2204 19.2062 97.4654 19.4924 97.7512 19.6967C98.037 19.9419 98.3637 20.1054 98.7312 20.1872C99.0987 20.2689 99.4253 20.3507 99.7928 20.3507C100.569 20.3507 101.263 20.1872 101.916 19.8602C102.569 19.5332 103.141 19.1654 103.631 18.7158V13.9338Z" fill="#747678"/>
<path d="M110.574 22.0642V6.492H112.861L113.065 7.88165C113.473 7.43206 114.004 7.02334 114.657 6.65549C115.311 6.28764 115.964 6.08328 116.658 6.08328C117.148 6.08328 117.597 6.12415 117.965 6.16503C118.373 6.24677 118.659 6.28764 118.904 6.36939L118.455 8.69909C117.924 8.45386 117.23 8.33124 116.413 8.33124C115.801 8.33124 115.188 8.49473 114.617 8.86257C114.045 9.23042 113.555 9.5574 113.147 9.92524V22.0642H110.574Z" fill="#747678"/>
<path d="M121.064 22.0642V6.492H123.392L123.555 7.71816C124.167 7.2277 124.943 6.85985 125.801 6.53287C126.658 6.24677 127.557 6.08328 128.496 6.08328C130.619 6.08328 132.13 6.61462 133.028 7.67729C133.926 8.73996 134.335 10.2931 134.335 12.3776V22.1051H131.803V12.2958C131.803 10.9879 131.517 9.96612 130.905 9.23042C130.333 8.49473 129.353 8.12688 128.047 8.12688C127.23 8.12688 126.413 8.29037 125.597 8.65821C124.821 9.02606 124.127 9.43478 123.555 9.8435V22.0642H121.064Z" fill="#747678"/>
<path d="M140.012 3.99977C139.563 3.99977 139.154 3.83628 138.828 3.46844C138.501 3.10059 138.338 2.651 138.338 2.16053C138.338 1.67007 138.501 1.22048 138.828 0.852633C139.154 0.484786 139.563 0.280426 140.012 0.280426C140.461 0.280426 140.869 0.484786 141.196 0.852633C141.523 1.22048 141.686 1.67007 141.686 2.16053C141.686 2.69187 141.523 3.14146 141.196 3.46844C140.869 3.79541 140.502 3.99977 140.012 3.99977ZM138.746 22.0652V6.49296H141.278V22.106H138.746V22.0652Z" fill="#747678"/>
<path d="M145.804 22.0642V6.492H148.132L148.295 7.71816C148.908 7.2277 149.683 6.85985 150.541 6.53287C151.398 6.24677 152.297 6.08328 153.236 6.08328C155.359 6.08328 156.87 6.61462 157.768 7.67729C158.667 8.73996 159.075 10.2931 159.075 12.3776V22.1051H156.543V12.2958C156.543 10.9879 156.257 9.96612 155.645 9.23042C155.073 8.49473 154.093 8.12688 152.787 8.12688C151.97 8.12688 151.153 8.29037 150.337 8.65821C149.561 9.02606 148.867 9.43478 148.295 9.8435V22.0642H145.804Z" fill="#747678"/>
<path d="M175.164 8.13049C175.572 8.58008 175.858 9.07055 176.103 9.60188C176.348 10.1741 176.47 10.7872 176.47 11.482C176.47 12.3812 176.266 13.1986 175.899 13.8934C175.531 14.5883 175 15.1605 174.388 15.6101C173.775 16.0596 173.04 16.3866 172.183 16.6319C171.366 16.8362 170.509 16.9588 169.651 16.9588C169.366 16.9588 168.998 16.918 168.59 16.8771C168.181 16.8362 167.814 16.7953 167.61 16.7545C167.242 16.7953 166.916 16.918 166.63 17.0814C166.344 17.2858 166.181 17.531 166.181 17.8171C166.181 18.185 166.426 18.4302 166.956 18.5937C167.487 18.7572 168.386 18.8389 169.733 18.8798C171.04 18.9207 172.183 19.0024 173.204 19.125C174.225 19.2885 175.041 19.5338 175.735 19.8607C176.43 20.2286 176.96 20.6782 177.328 21.2913C177.695 21.9043 177.859 22.64 177.859 23.5801C177.859 24.4384 177.655 25.1741 177.287 25.7872C176.879 26.4002 176.348 26.9316 175.695 27.3812C175 27.7899 174.225 28.1169 173.326 28.3621C172.428 28.5665 171.489 28.6891 170.468 28.6891C167.977 28.6891 166.017 28.3212 164.629 27.5447C163.241 26.7681 162.547 25.5828 162.547 23.9479C162.547 22.2722 163.322 21.046 164.833 20.2286C164.425 20.0651 164.098 19.8199 163.853 19.4929C163.608 19.2068 163.445 18.7981 163.445 18.3076C163.445 17.6945 163.69 17.2041 164.139 16.7953C164.588 16.3866 165.201 16.1005 165.895 15.937C165.65 15.8144 165.323 15.6101 164.996 15.3648C164.67 15.1196 164.343 14.8335 164.057 14.4656C163.771 14.0978 163.526 13.6482 163.322 13.1577C163.118 12.6673 163.036 12.0951 163.036 11.4411C163.036 10.5419 163.241 9.7245 163.608 9.07054C163.976 8.37572 164.506 7.84439 165.119 7.3948C165.731 6.94521 166.466 6.61823 167.242 6.41387C168.018 6.20951 168.835 6.08689 169.692 6.08689C170.345 6.08689 170.999 6.12777 171.611 6.25038C172.224 6.373 172.836 6.57736 173.408 6.82259L175.735 4.49289L177.328 5.96428L175.164 8.13049ZM169.692 21.046C168.222 21.0051 167.242 20.9234 166.671 20.8417C166.099 21.1278 165.65 21.4956 165.282 21.9452C164.915 22.3948 164.751 23.0079 164.751 23.7027C164.751 24.1932 164.874 24.6427 165.16 25.0106C165.446 25.3784 165.854 25.7054 166.344 25.9507C166.834 26.1959 167.446 26.4002 168.141 26.5229C168.835 26.6455 169.57 26.7272 170.427 26.7272C171.938 26.7272 173.163 26.4411 174.102 25.9098C175.041 25.3784 175.531 24.6427 175.531 23.7027C175.531 23.2531 175.45 22.8444 175.286 22.5174C175.123 22.1904 174.796 21.9043 174.347 21.7C173.898 21.4956 173.285 21.3321 172.55 21.2095C171.775 21.1278 170.835 21.046 169.692 21.046ZM165.772 12.7899C165.976 13.1986 166.262 13.5665 166.589 13.8934C166.916 14.2204 167.365 14.4656 167.896 14.67C168.386 14.8744 168.957 14.9561 169.611 14.9561C170.141 14.9561 170.631 14.9152 171.162 14.7926C171.693 14.67 172.142 14.4656 172.55 14.2204C172.959 13.9343 173.326 13.5665 173.571 13.1169C173.816 12.6673 173.98 12.0951 173.98 11.4411C173.98 10.9098 173.857 10.4193 173.612 9.96973C173.367 9.56101 173.04 9.19316 172.673 8.90706C172.265 8.62095 171.815 8.41659 171.325 8.29398C170.795 8.17136 170.305 8.08962 169.733 8.08962C169.202 8.08962 168.712 8.17136 168.181 8.29398C167.651 8.41659 167.201 8.66183 166.834 8.90706C166.426 9.19316 166.14 9.52014 165.895 9.96973C165.65 10.3784 165.527 10.9098 165.527 11.4411C165.486 11.9316 165.609 12.3812 165.772 12.7899Z" fill="#747678"/>
</svg>