<svg width="514" height="469" viewBox="0 0 514 469" fill="none" xmlns="http://www.w3.org/2000/svg">
<mask id="mask0_137_3597" style="mask-type:alpha" maskUnits="userSpaceOnUse" x="0" y="0" width="514" height="469">
<rect width="514" height="469" fill="#D9D9D9"/>
</mask>
<g mask="url(#mask0_137_3597)">
<path d="M457.503 244.23L462.117 218.099C480.344 223.205 483.624 227.1 483.624 227.1C483.257 230.749 480.344 246.913 480.221 247.281L457.503 244.23Z" fill="#1A1D4E"/>
<path fill-rule="evenodd" clip-rule="evenodd" d="M476.233 245.675L470.897 243.578L471.251 242.677L476.587 244.774L476.233 245.675Z" fill="#1A1D4E"/>
<path d="M450.996 263.349C451.187 264.153 456.183 266.808 463.356 269.804C467.943 271.71 473.402 272.595 476.791 272.963C478.03 266.645 479.255 259.496 480.548 251.38C480.861 249.378 481.188 247.322 481.514 245.197C481.514 245.197 475.267 232.138 455.339 222.089C455.339 222.089 453.637 227.767 456.877 230.845C460.116 233.922 469.563 242.093 469.999 242.76C469.985 242.76 469.971 242.76 469.958 242.746C469.25 242.447 457.326 237.898 455.298 237.898C454.304 237.898 454.018 239.887 453.46 242.487C452.684 246.014 452.044 250.971 451.595 255.179C451.146 259.523 450.901 263.063 450.996 263.349Z" fill="#E3B7AC"/>
<path fill-rule="evenodd" clip-rule="evenodd" d="M460.284 248.032C461.721 248.538 463.08 249.033 464.086 249.404C464.586 249.589 465 249.743 465.292 249.85H465.294C465.441 249.906 465.556 249.95 465.636 249.978C465.677 249.993 465.707 250.004 465.727 250.012C465.743 250.018 465.749 250.021 465.749 250.021C465.749 250.021 465.735 250.015 465.719 250.011L465.485 250.951C465.454 250.942 465.411 250.927 465.4 250.923C465.399 250.923 465.399 250.922 465.399 250.922C465.375 250.914 465.342 250.902 465.301 250.887C465.219 250.857 465.104 250.813 464.958 250.759H464.954C464.663 250.65 464.25 250.496 463.751 250.312C462.747 249.942 461.394 249.449 459.962 248.946C458.531 248.442 457.025 247.932 455.716 247.527C454.394 247.117 453.31 246.829 452.706 246.754L452.826 245.792C453.528 245.881 454.689 246.195 456.001 246.603C457.327 247.013 458.846 247.529 460.284 248.032Z" fill="#1A1D4E"/>
<path fill-rule="evenodd" clip-rule="evenodd" d="M453.905 253.953C454.851 253.99 456.067 254.262 457.331 254.634C458.604 255.01 459.961 255.495 461.204 255.975C463.684 256.934 465.737 257.883 465.795 257.912L465.362 258.778H465.36C465.342 258.768 465.219 258.711 464.999 258.612C464.766 258.507 464.431 258.358 464.023 258.18C463.204 257.825 462.082 257.352 460.854 256.878C459.626 256.403 458.296 255.928 457.058 255.563C456.025 255.259 455.077 255.039 454.314 254.954V254.965C454.314 254.965 454.312 254.965 454.312 254.966C454.089 257.078 453.923 258.943 453.815 260.341C453.728 261.488 453.682 262.297 453.675 262.681C453.696 262.697 453.72 262.713 453.747 262.732C453.867 262.814 454.024 262.913 454.217 263.028C454.602 263.258 455.117 263.54 455.728 263.861C456.95 264.501 458.546 265.284 460.244 266.084C463.65 267.688 467.444 269.342 469.494 270.048L469.178 270.963C467.076 270.238 463.24 268.563 459.833 266.961C458.126 266.157 456.519 265.367 455.28 264.718C454.661 264.394 454.13 264.102 453.723 263.86C453.519 263.74 453.342 263.628 453.199 263.529C453.063 263.436 452.932 263.337 452.839 263.239L452.718 263.11L452.709 262.933C452.694 262.634 452.744 261.657 452.85 260.268C452.958 258.858 453.125 256.984 453.351 254.863V254.86L453.456 253.936L453.905 253.953Z" fill="#1A1D4E"/>
<path d="M446.954 303.82C446.926 303.616 445.32 284.129 446.246 266.454L445.429 266.413C444.503 284.143 446.123 303.697 446.137 303.888L446.954 303.82Z" fill="#1A1D4E"/>
<path d="M311.678 340.982H421.2L413.917 476.012H310.766L311.678 340.982Z" fill="#3B569E"/>
<path d="M283.566 255.571C286.347 200.346 323.701 166.087 369.974 169.965C426.095 174.666 447.327 215.379 454.71 237.03C454.861 237.441 454.983 237.852 455.121 238.25C454.203 242.429 453.449 248.307 452.916 253.282L421.876 269.794C421.876 269.794 423.342 351.782 423.507 352.44C403.563 364.416 338.525 362.662 308.374 345.191C309.524 337.448 316.606 265.574 316.606 265.574L283.566 255.571Z" fill="#3F58A0"/>
<path fill-rule="evenodd" clip-rule="evenodd" d="M453.858 233.861L452.79 234.256C444.742 212.512 423.382 175.459 370.434 171.019C349.855 169.29 329.108 176.393 312.007 191.051C293.168 207.172 287.088 231.515 285.348 255.941L284.213 255.86C285.958 231.346 292.074 206.611 311.266 190.186C328.577 175.35 349.618 168.127 370.529 169.884C424.109 174.377 445.735 211.921 453.858 233.861Z" fill="#1A1D4E"/>
<path fill-rule="evenodd" clip-rule="evenodd" d="M421.055 269.271C420.279 261.04 419.505 254.185 418.608 247.712L419.735 247.557C420.635 254.049 421.412 260.92 422.188 269.165L421.055 269.271Z" fill="#1A1D4E"/>
<path d="M452.929 252.796C452.385 257.902 452.099 262.056 452.194 262.41C452.426 263.349 458.292 266.468 466.745 269.994C472.149 272.241 472.789 272.541 476.777 272.977C471.374 300.674 471.632 315.613 461.845 324.41C448.778 336.134 428.986 320.733 427.053 306.789C426.127 300.198 424.562 288.228 423.432 279.554C422.656 273.59 422.084 269.191 422.084 269.191L452.929 252.796Z" fill="#E3B7AC"/>
<path fill-rule="evenodd" clip-rule="evenodd" d="M454.331 265.399C454.324 265.414 454.316 265.433 454.305 265.457C454.282 265.505 454.252 265.572 454.214 265.656C454.139 265.825 454.035 266.062 453.903 266.357C453.868 266.436 453.83 266.519 453.792 266.608C453.542 267.17 453.216 267.901 452.837 268.753C451.959 270.72 450.785 273.331 449.547 276.011C448.309 278.689 447.005 281.44 445.869 283.684C445.301 284.806 444.772 285.806 444.313 286.609C443.86 287.4 443.457 288.033 443.139 288.397L442.41 287.76C442.658 287.476 443.02 286.921 443.473 286.128C443.921 285.345 444.441 284.361 445.006 283.247C446.134 281.018 447.433 278.279 448.669 275.605C449.905 272.93 451.077 270.324 451.953 268.358C452.311 267.558 452.622 266.86 452.868 266.304C453.221 265.509 453.442 265.011 453.479 264.938L454.339 265.382C454.339 265.382 454.337 265.386 454.331 265.399Z" fill="#1A1D4E"/>
<path d="M372.877 110.875C373.272 110.685 374.728 123.022 374.728 123.022L371.421 138.764C371.421 138.764 356.556 141.869 354.61 136.136C352.677 130.389 353.643 123.594 353.643 123.009C353.643 123.009 372.496 111.066 372.877 110.875Z" fill="#1A1D4E"/>
<path d="M403.055 127.652C416.735 113.517 405.641 106.995 402.333 103.835C386.897 89.0877 374.034 91.7295 360.722 104.067C357.455 107.103 350.826 109.5 349.75 114.362C348.689 119.223 353.398 127.638 353.398 127.638C358.408 124.588 366.207 120.626 366.207 120.626C366.207 120.626 389.388 141.773 403.055 127.652Z" fill="#EAAC3D"/>
<path fill-rule="evenodd" clip-rule="evenodd" d="M366.775 99.4709L366.13 98.5313C371.828 94.619 377.365 92.7984 382.924 93.1497C388.479 93.4997 393.977 96.0121 399.604 100.616L398.883 101.499C393.375 96.9926 388.099 94.6163 382.853 94.2854C377.611 93.9559 372.322 95.6621 366.775 99.4709Z" fill="#1A1D4E"/>
<path fill-rule="evenodd" clip-rule="evenodd" d="M405.334 105.651C407.317 107.483 410.069 110.521 410.185 114.891C410.299 119.11 407.872 123.692 403.22 128.51H403.218C399.882 131.962 395.677 133.695 390.831 133.695C387.038 133.695 382.857 132.632 378.38 130.538C372.179 127.641 366.741 123.628 365.013 122.204C364.95 122.236 364.883 122.271 364.812 122.306C362.837 123.314 358.308 125.626 354.402 128.002L353.401 128.615L352.843 127.581H352.842C352.838 127.573 352.832 127.561 352.823 127.545C352.557 127.057 349.997 122.348 349.164 117.898L350.283 117.688C351.079 121.942 353.549 126.499 353.824 127.005C353.827 127.009 353.83 127.013 353.831 127.016C357.773 124.621 362.329 122.295 364.296 121.291C364.504 121.185 364.684 121.093 364.831 121.018L365.174 120.842L365.465 121.095C366.697 122.168 372.357 126.467 378.862 129.505C383.233 131.551 387.247 132.557 390.831 132.557C395.378 132.557 399.286 130.941 402.4 127.719C406.977 122.979 409.149 118.682 409.047 114.921C408.945 111.039 406.497 108.276 404.56 106.487L405.334 105.651Z" fill="#1A1D4E"/>
<path d="M356.611 134.992C356.611 134.992 368.004 133.181 366.207 120.653C375.355 113.599 395.133 112.864 402.837 119.808C403.232 124.479 403.069 132.609 402.633 140.466C402.075 150.734 401.054 160.565 400.251 161.709C398.127 164.759 391.58 165.331 387.129 165.236C385.863 165.222 384.76 165.141 383.984 165.045C383.984 165.045 383.794 167.687 383.413 170.983C383.372 171.364 383.331 171.772 383.277 172.167C382.747 176.003 381.933 179.997 381.793 180.61C381.646 181.251 375.02 210.165 369.658 209.701C366.523 209.429 367.04 199.398 360.03 182.62C359.344 180.979 357.969 179.165 357.837 176.252C357.47 168.137 356.612 149.998 356.612 149.998C352.379 151.551 344.239 149.453 344.239 141.841C344.239 131.696 353.073 131.778 356.612 134.992H356.611Z" fill="#E3B7AC"/>
<path fill-rule="evenodd" clip-rule="evenodd" d="M389.074 115.602C380.591 114.996 371.896 117.134 366.934 120.959L366.24 120.058C371.487 116.012 380.488 113.847 389.156 114.466L389.074 115.602Z" fill="#1A1D4E"/>
<path fill-rule="evenodd" clip-rule="evenodd" d="M399.223 118.338C397.274 117.31 394.885 116.55 392.114 116.095L392.299 114.97C395.163 115.441 397.674 116.234 399.754 117.33L399.223 118.338Z" fill="#1A1D4E"/>
<path fill-rule="evenodd" clip-rule="evenodd" d="M377.377 125.886C380.057 126.116 382.399 127.505 383.196 129.616L382.132 130.019C381.541 128.453 379.69 127.227 377.281 127.022C374.498 126.793 372.119 127.983 370.837 130.185L369.854 129.613C371.376 126.996 374.196 125.624 377.375 125.886H377.377Z" fill="#1A1D4E"/>
<path d="M396.889 133.998C396.889 133.065 396.133 132.309 395.201 132.309C394.268 132.309 393.513 133.065 393.513 133.998C393.513 134.931 394.268 135.686 395.201 135.686C396.133 135.686 396.889 134.931 396.889 133.998Z" fill="#1A1D4E"/>
<path d="M377.968 132.976C378.894 132.976 379.656 133.739 379.656 134.665C379.656 135.591 378.894 136.354 377.968 136.354C377.042 136.354 376.28 135.591 376.28 134.665C376.28 133.725 377.042 132.976 377.968 132.976Z" fill="#1A1D4E"/>
<path d="M387.183 164.759C387.183 164.759 387.17 164.923 387.142 165.236C385.877 165.222 384.774 165.141 383.998 165.045C383.998 165.045 383.808 167.687 383.426 170.983C376.294 170.983 366.112 166.489 363.076 157.161C367.936 159.217 379.438 164.405 387.183 164.759Z" fill="#1A1D4E"/>
<path fill-rule="evenodd" clip-rule="evenodd" d="M385.463 154.343C384.156 154.177 382.746 153.746 381.465 152.822C380.181 151.895 379.058 150.492 378.306 148.438L379.373 148.045C380.056 149.906 381.046 151.115 382.132 151.898C383.222 152.686 384.44 153.065 385.607 153.215C387.929 153.51 389.972 152.88 390.168 152.82C390.171 152.818 390.173 152.818 390.174 152.817L390.509 153.906C390.509 153.906 390.503 153.908 390.501 153.908C390.262 153.981 388.03 154.67 385.463 154.343Z" fill="#1A1D4E"/>
<path d="M288.034 256.105C281.636 279.418 308.642 313.802 320.838 327.528C324.133 348.294 336.914 357.813 339.677 355.008C342.413 352.203 343.666 355.117 347.273 354.068C350.867 353.02 348.307 348.526 351.996 349.248C355.685 349.969 357.428 347.042 357.142 345.966C356.856 344.904 357.686 341.799 359.728 343.379C363.73 346.456 368.848 342.33 368.018 340.328C367.392 338.817 361.647 334.023 361.647 334.023C360.912 331.572 363.567 325.485 361.838 322.258C360.095 319.044 339.528 311.677 339.528 311.677C327.304 295.173 317.122 267.884 317.435 264.997L317.599 264.888" fill="#E3B7AC"/>
<path fill-rule="evenodd" clip-rule="evenodd" d="M362.923 329.583C362.916 329.63 362.908 329.679 362.9 329.727C362.89 329.784 362.88 329.84 362.871 329.896C362.744 330.65 362.623 331.365 362.554 332.004C362.487 332.617 362.472 333.119 362.528 333.494C363.12 333.993 364.461 335.14 365.762 336.357C366.464 337.015 367.16 337.696 367.721 338.312C368.268 338.909 368.736 339.495 368.927 339.947L368.928 339.95C369.315 340.88 369.003 341.938 368.299 342.85C367.993 343.263 367.592 343.63 367.16 343.978L367.156 343.982L367.152 343.985C365.283 345.423 362.026 346.388 359.137 344.162C358.857 343.945 358.71 343.926 358.672 343.926C358.651 343.926 358.648 343.927 358.636 343.935C358.635 343.937 358.633 343.938 358.631 343.94L358.627 343.942L358.624 343.945C358.564 343.986 358.482 344.074 358.397 344.227C358.314 344.375 358.241 344.559 358.186 344.758C358.069 345.173 358.054 345.553 358.099 345.726C358.227 346.201 358.153 346.738 357.964 347.242C357.773 347.752 357.449 348.267 357.023 348.715C355.744 350.085 353.835 350.619 351.814 350.225L351.988 349.332C353.75 349.674 355.326 349.2 356.36 348.093L356.362 348.09C356.711 347.722 356.966 347.31 357.112 346.923C357.26 346.528 357.282 346.195 357.219 345.962L357.218 345.959C357.114 345.559 357.174 344.994 357.309 344.512C357.38 344.261 357.476 344.008 357.602 343.783C357.724 343.564 357.889 343.346 358.105 343.196C358.187 343.139 358.383 343.01 358.691 343.015C358.989 343.022 359.32 343.153 359.693 343.44C362.139 345.324 364.922 344.55 366.592 343.266C367.001 342.936 367.333 342.624 367.57 342.304L367.573 342.3L367.575 342.296C368.176 341.523 368.299 340.812 368.087 340.3C367.965 340.011 367.602 339.532 367.05 338.926C366.511 338.336 365.834 337.673 365.14 337.023C363.754 335.726 362.318 334.507 361.817 334.086L361.699 333.987L361.665 333.835C361.546 333.295 361.571 332.617 361.649 331.906C361.722 331.239 361.846 330.498 361.971 329.753C361.982 329.694 361.992 329.636 362.001 329.577C362.008 329.536 362.015 329.497 362.022 329.456C362.234 328.172 362.454 326.848 362.497 325.597C362.542 324.305 362.394 323.147 361.9 322.229L362.701 321.796C363.308 322.921 363.455 324.269 363.407 325.628C363.362 326.94 363.134 328.316 362.923 329.583Z" fill="#1A1D4E"/>
<path fill-rule="evenodd" clip-rule="evenodd" d="M361.698 333.969L355.776 328.685L356.383 328.005L362.305 333.288L361.698 333.969Z" fill="#1A1D4E"/>
<path fill-rule="evenodd" clip-rule="evenodd" d="M419.819 354.873L419.807 354.878C419.798 354.884 419.783 354.891 419.764 354.9C419.725 354.918 419.67 354.945 419.596 354.978C419.449 355.046 419.23 355.144 418.939 355.265C418.357 355.509 417.492 355.849 416.34 356.237C414.036 357.014 410.593 357.987 406.017 358.78C396.863 360.363 383.18 361.225 365.02 358.358L365.162 357.459C383.224 360.31 396.806 359.45 405.862 357.881C410.389 357.098 413.788 356.137 416.049 355.374C417.179 354.993 418.025 354.66 418.588 354.425C418.868 354.308 419.078 354.214 419.216 354.151C419.286 354.118 419.336 354.094 419.37 354.079C419.387 354.071 419.399 354.064 419.407 354.061L419.415 354.056H419.419L423.506 352.079L423.903 352.898L419.821 354.872H419.819V354.873Z" fill="#1A1D4E"/>
<path d="M363.663 211.788C362.627 208.542 361.617 205.238 360.662 201.972C359.1 196.634 357.623 191.194 356.275 185.802L357.331 185.538C358.677 190.916 360.148 196.342 361.707 201.667C362.661 204.927 363.669 208.221 364.702 211.459L363.664 211.79L363.663 211.788Z" fill="#1A1D4E"/>
<path d="M377.498 210.996L376.461 210.665C377.494 207.427 378.502 204.133 379.456 200.873C381.013 195.548 382.486 190.122 383.832 184.744L384.888 185.008C383.539 190.4 382.064 195.84 380.501 201.178C379.546 204.446 378.536 207.748 377.5 210.994L377.498 210.996Z" fill="#1A1D4E"/>
<path fill-rule="evenodd" clip-rule="evenodd" d="M368.139 162.989C371.223 164.806 374.54 165.593 378.477 165.703C384.503 165.872 390.558 166.252 396.584 166.208C397.004 166.206 398.047 166.208 399.301 165.736C399.301 165.736 399.999 165.473 400.646 165.067C403.541 163.251 404.873 157.759 404.873 157.759C406.153 151.337 405.216 145.601 403.712 139.397C403.861 140.01 396.868 142.005 396.192 142.153C391.911 143.092 387.469 143.064 383.192 142.112C379.603 141.313 374.971 140.111 371.892 137.809C371.01 142.492 369.327 146.91 367.005 150.642C365.708 152.726 360.854 156.626 363.426 159.236C364.97 160.804 366.522 162.037 368.137 162.989H368.139Z" fill="#97CAEC"/>
<path d="M374.863 142.057C373.879 142.062 373.05 141.378 372.191 140.899C370.611 140.017 368.764 139.777 366.967 139.555C362.111 138.953 361.526 139.802 359.603 138.643C358.757 138.133 356.869 136.996 356.536 135.358C356.413 134.756 356.353 134.484 356.221 134.273C356.128 134.122 356.024 134.03 355.974 133.983C354.558 132.632 353.85 131.957 352.716 131.447C351.778 131.026 351.37 131.073 351.128 131.139C350.65 131.27 350.363 131.613 350.257 131.755C349.775 132.398 349.923 133.136 349.949 133.254" stroke="#97CFF6" stroke-width="2" stroke-miterlimit="10"/>
<path d="M364.687 157.616C364.135 157.557 363.711 157.164 363.376 156.769C361.9 155.027 359.13 155.48 357.112 154.491C354.874 153.392 354.947 152.455 354.642 150.438" stroke="#97CFF6" stroke-width="2" stroke-miterlimit="10"/>
<path d="M396.78 162.457L396.312 161.474C397.568 160.876 399.885 159.458 401.296 156.686C401.981 155.342 402.358 153.878 402.418 152.336L403.505 152.379C403.439 154.078 403.022 155.694 402.265 157.18C400.708 160.24 398.159 161.799 396.778 162.457H396.78Z" fill="#1A1D4E"/>
<path d="M365.023 156.178L364.352 155.32C366.829 153.381 368.791 151.086 370.182 148.5C371.283 146.455 371.994 144.278 372.295 142.028L373.374 142.172C373.055 144.551 372.304 146.854 371.142 149.016C369.678 151.736 367.619 154.146 365.023 156.178Z" fill="#1A1D4E"/>
<path d="M389.112 145.997C385.11 145.997 379.297 144.604 378.638 144.442L378.896 143.384C379.154 143.447 385.17 144.908 389.115 144.908C389.175 144.908 389.233 144.908 389.292 144.908C391.139 144.886 393.415 144.682 393.438 144.679C394.136 144.615 394.84 144.539 395.533 144.451L395.67 145.532C394.965 145.622 394.248 145.699 393.537 145.765C393.442 145.773 391.196 145.976 389.305 145.997C389.243 145.997 389.177 145.997 389.113 145.997H389.112Z" fill="#1A1D4E"/>
<path fill-rule="evenodd" clip-rule="evenodd" d="M396.878 125.94C399.558 126.17 401.899 127.559 402.697 129.67L401.632 130.073C401.042 128.507 399.19 127.282 396.781 127.076C394.859 126.913 392.755 127.581 391.792 128.522C389.674 130.591 390.525 136.608 395.498 142.298C395.126 142.362 394.754 142.427 394.383 142.491C389.104 136.969 388.421 130.455 391.045 127.662C391.374 127.31 392.997 125.698 396.876 125.94H396.878Z" fill="#1A1D4E"/>
<path fill-rule="evenodd" clip-rule="evenodd" d="M223.208 208.794C230.368 220.497 234.187 232.393 236.222 241.39C237.239 245.889 237.811 249.666 238.129 252.337C238.288 253.673 238.385 254.731 238.442 255.465C238.471 255.832 238.49 256.118 238.502 256.316C238.516 256.536 238.52 256.61 238.52 256.607L237.387 256.733C237.387 256.724 237.385 256.692 237.382 256.634C237.284 254.932 235.943 231.792 222.236 209.388C215.277 198.012 206.08 186.986 192.759 179.409C179.76 172.016 162.788 167.883 140.047 169.976L140.421 170.21L136.958 170.481C120.434 171.819 97.663 181.488 84.0959 200.058C73.8978 214.008 70.846 230.217 75.0439 248.288L73.9359 248.547C69.6672 230.179 72.768 213.624 83.1771 199.386C96.9701 180.508 120.07 170.705 136.868 169.346H136.89L136.625 169.178L138.272 169.007C162.049 166.532 179.775 170.713 193.325 178.42C206.868 186.122 216.189 197.32 223.21 208.794H223.208Z" fill="#172351"/>
<path d="M98.1407 290.648L112.213 295.041L112.501 294.119L98.428 289.725L98.1407 290.648Z" fill="#1A1D4E"/>
<path d="M91.298 345.782H216.27L203.515 485.755H97.614L91.298 345.782Z" fill="#121D3F"/>
<path d="M99.3019 242.576C99.3019 242.576 61.2972 207.225 52.1499 245.476C42.5807 285.471 66.8373 304.099 73.6705 305.461C80.5173 306.823 97.0831 296.228 97.7637 295.888L99.3019 242.576Z" fill="#8C6239"/>
<path d="M150.473 143.819C150.727 146.647 150.981 149.477 151.234 152.305C155.548 150.55 158.021 148.205 159.421 146.538C169.77 134.21 159.949 113.035 153.727 104.846C152.029 102.612 150.043 100.622 147.113 99.7678C140.839 97.9403 134.888 102.803 134.888 102.803C119.037 99.6521 104.808 105.314 100.776 114.732C95.9819 125.932 106.678 139.946 110.686 145.195C114.82 150.611 119.222 154.23 122.291 156.434C122.939 156.397 123.677 156.394 124.484 156.458C125.114 156.507 125.693 156.59 126.214 156.688C134.301 152.399 142.388 148.108 150.473 143.819Z" fill="#1A1D4E"/>
<path d="M220.694 357.411C193.102 362.014 100.867 363.444 85.5674 357.411C90.9577 321.407 90.5221 264.704 90.5221 264.704L73.9291 248.54C61.583 195.378 114.738 168.116 142.329 169.205C216.202 172.12 220.925 358.092 220.694 357.411Z" fill="#172351"/>
<path fill-rule="evenodd" clip-rule="evenodd" d="M146.484 436.286L146.075 361.404L147.213 361.398L147.622 436.28L146.484 436.286Z" fill="#1A1D4E"/>
<path d="M136.599 169.178C230.848 158.175 238.512 256.588 238.512 256.588L199.187 257.473C192.353 202.718 136.599 169.178 136.599 169.178Z" fill="#172351"/>
<path fill-rule="evenodd" clip-rule="evenodd" d="M109.578 360.666C103.933 360.348 98.9262 359.929 94.8412 359.395C90.7698 358.864 87.5683 358.215 85.5633 357.423L85.9798 356.364C87.846 357.101 90.9277 357.737 94.9882 358.266C99.0351 358.795 104.012 359.213 109.642 359.529C120.901 360.16 134.749 360.385 148.954 360.279C177.379 360.065 207.173 358.53 220.504 356.305L220.692 357.427C207.263 359.669 177.388 361.205 148.962 361.417C134.743 361.524 120.87 361.299 109.578 360.666Z" fill="#1A1D4E"/>
<path d="M127.524 113.69C127.537 123.835 142.211 133.599 149.044 134.552C150.718 130.194 159.403 126.749 161.799 133.367C163.936 139.223 159.008 144.751 150.541 141.933C150.541 141.933 157.32 169.045 157.456 170.747C150.716 194.222 146.171 199.67 143.116 199.433C140.94 199.265 138.775 195.136 134.535 186.885C131.517 181.01 129.327 175.874 127.809 172.013L127.551 169.154L127.197 165.259L126.966 162.835C126.966 162.835 125.904 162.971 124.42 163.067C122.038 163.203 118.553 163.189 116.593 162.223C114.946 161.405 112.605 152.799 110.754 143.281C110.359 141.265 109.991 139.223 109.651 137.207C108.63 131.189 107.868 125.456 107.623 121.874C111.938 127.267 124.529 122.038 127.524 113.69Z" fill="#8C6239"/>
<path fill-rule="evenodd" clip-rule="evenodd" d="M150.211 136.386C152.351 133.079 156.204 132.501 158.755 133.687L158.276 134.719C156.199 133.754 152.974 134.212 151.166 137.004L150.211 136.386Z" fill="#1A1D4E"/>
<path d="M124.567 133.659C124.948 133.005 125.792 132.774 126.446 133.155C127.099 133.536 127.33 134.38 126.949 135.034C126.568 135.688 125.724 135.919 125.071 135.538C124.404 135.157 124.186 134.326 124.567 133.659Z" fill="#1A1D4E"/>
<path d="M112.275 135.783C112.657 135.129 113.501 134.898 114.154 135.279C114.807 135.66 115.039 136.505 114.658 137.158C114.276 137.812 113.432 138.043 112.779 137.662C112.112 137.281 111.894 136.437 112.275 135.783Z" fill="#1A1D4E"/>
<path fill-rule="evenodd" clip-rule="evenodd" d="M116.03 162.09C116.193 162.257 116.344 162.331 116.623 162.472C118.032 163.17 120.253 163.38 122.346 163.38C123.55 163.38 124.732 163.309 125.634 163.236C126.085 163.199 126.465 163.161 126.74 163.131C126.878 163.116 126.99 163.102 127.072 163.093C127.113 163.087 127.145 163.083 127.168 163.08C127.181 163.078 127.19 163.076 127.197 163.076C127.204 163.075 127.206 163.075 127.206 163.075L127.394 164.197C127.2 164.23 124.827 164.518 122.346 164.518C120.245 164.518 117.784 164.32 116.117 163.493L116.115 163.492C116.102 163.485 116.087 163.477 116.072 163.47C115.817 163.343 115.516 163.193 115.218 162.89C114.909 162.577 114.63 162.131 114.325 161.442C112.951 158.314 111.294 152.063 109.797 144.312L110.913 144.096C112.41 151.842 114.048 157.982 115.367 160.982C115.647 161.614 115.858 161.917 116.03 162.09Z" fill="#1A1D4E"/>
<path fill-rule="evenodd" clip-rule="evenodd" d="M184.674 229.501H158.748V224.021H184.674V229.501ZM159.886 224.778V228.742H183.536V224.778H159.886Z" fill="white"/>
<path fill-rule="evenodd" clip-rule="evenodd" d="M159.632 323.155L159.792 322.028C160.009 322.059 179.369 324.828 196.361 317.548L196.81 318.594C179.52 326.002 159.901 323.194 159.632 323.155Z" fill="#1A1D4E"/>
<path d="M58.6156 272.357L34.8219 203.726C33.447 199.749 36.4008 195.596 40.7022 195.01H86.6155C89.1201 195.61 91.4478 197.257 92.8906 199.722L116.684 268.354C117.474 272.33 114.52 276.483 110.314 276.483H64.4007C61.8008 276.483 59.4732 274.836 58.6156 272.357Z" fill="white"/>
<path fill-rule="evenodd" clip-rule="evenodd" d="M78.7069 195.62V194.482H86.5202C89.6074 194.482 92.3543 196.433 93.3738 199.357L111.029 250.26L109.953 250.633L92.2985 199.733C91.4396 197.264 89.1228 195.62 86.5202 195.62H78.7069Z" fill="#1A1D4E"/>
<path fill-rule="evenodd" clip-rule="evenodd" d="M114.54 260.351L117.181 267.975C117.964 270.223 117.607 272.62 116.238 274.565C114.864 276.515 112.703 277.624 110.328 277.624H77.3593V276.486H110.328C112.335 276.486 114.148 275.553 115.307 273.908C116.469 272.258 116.766 270.244 116.106 268.351L113.465 260.724L114.54 260.351Z" fill="#1A1D4E"/>
<path fill-rule="evenodd" clip-rule="evenodd" d="M58.6224 272.374C59.4827 274.842 61.7981 276.486 64.4007 276.486V277.624C61.3135 277.624 58.5666 275.673 57.5471 272.749L33.7533 204.118C32.9706 201.872 33.3273 199.461 34.698 197.528C36.0714 195.578 38.2317 194.469 40.6069 194.469H68.5796V195.607H40.6069M40.6069 195.607C38.5992 195.607 36.7861 196.54 35.6277 198.185C34.4666 199.822 34.1698 201.849 34.83 203.742L58.6238 272.374" fill="#1A1D4E"/>
<path d="M62.005 234.964C61.4741 238.559 47.1815 238.559 43.3021 238.559C35.693 238.559 34.536 229.735 44.99 229.966C49.0327 230.062 62.5358 231.369 62.005 234.964Z" fill="#8C6239"/>
<path d="M61.5966 241.895C61.5966 245.041 49.1689 246.62 42.8529 245.286C36.5506 243.951 39.0143 235.672 50.3667 237.251C56.1927 238.069 61.5966 239.458 61.5966 241.895Z" fill="#8C6239"/>
<path d="M46.2192 243.924C42.1261 245.332 43.3988 251.034 50.6758 251.005C57.9527 250.976 61.3938 248.204 60.3484 245.734C59.1805 243.005 50.2824 242.531 46.2192 243.924Z" fill="#8C6239"/>
<path fill-rule="evenodd" clip-rule="evenodd" d="M39.0756 236.696H39.077C40.0856 237.794 41.7068 238.431 43.6833 238.431H43.686C44.3257 238.431 45.2609 238.431 46.373 238.417C47.3762 238.404 48.3508 238.376 49.2574 238.336C53.2702 238.158 56.2512 237.776 58.2563 237.188C59.2595 236.893 59.9891 236.556 60.4777 236.188C60.961 235.824 61.1856 235.453 61.2414 235.074L62.1425 235.208C62.0418 235.884 61.6429 236.452 61.0249 236.915C60.4138 237.375 59.5685 237.751 58.5122 238.062C56.3996 238.681 53.3301 239.068 49.2982 239.245C48.3808 239.286 47.3952 239.313 46.3852 239.327H46.3839C45.2663 239.34 44.3257 239.34 43.686 239.34H43.6833C41.523 239.34 39.6323 238.645 38.4086 237.317C37.5538 236.4 37.1345 235.255 37.2271 234.096L38.1336 234.17C38.0642 235.052 38.3787 235.951 39.0742 236.696H39.0756Z" fill="#1A1D4E"/>
<path fill-rule="evenodd" clip-rule="evenodd" d="M43.0557 245.195C44.5136 245.5 46.373 245.662 48.3386 245.662C50.7492 245.662 53.3233 245.436 55.5447 245.003C57.788 244.565 59.5916 243.931 60.5322 243.163C61.0617 242.73 61.2645 242.302 61.2645 241.909H62.1738C62.1738 242.658 61.7777 243.321 61.1093 243.868H61.108C59.9809 244.789 57.9799 245.455 55.7176 245.896C53.4335 246.341 50.801 246.571 48.3386 246.571C46.3294 246.571 44.4047 246.407 42.8692 246.085H42.8679C40.7689 245.64 39.2063 244.369 38.9054 242.583C38.655 241.079 39.42 239.419 40.7022 238.297L41.3012 238.984C40.1877 239.959 39.6187 241.322 39.8038 242.433C40.0216 243.724 41.18 244.796 43.0557 245.195Z" fill="#1A1D4E"/>
<path d="M128.146 149.515C128.391 155.738 119.829 157.862 117.61 151.435C120.36 152.32 125.709 151.026 128.146 149.515Z" fill="white"/>
<path fill-rule="evenodd" clip-rule="evenodd" d="M118.137 146.465C119.213 146.975 120.763 147.238 122.732 146.463L122.74 146.46L122.749 146.456C123.141 146.289 123.572 146.087 124.021 145.827L123.45 144.841C123.058 145.07 122.675 145.25 122.307 145.406C120.647 146.057 119.429 145.818 118.624 145.436C117.829 145.059 117.409 144.529 117.377 144.49V144.487L117.365 144.471L117.217 144.279L116.315 144.973L116.445 145.142C116.573 145.319 117.138 145.992 118.137 146.465Z" fill="#1A1D4E"/>
<path d="M234.238 256.765C234.238 257.786 233.679 271.935 233.679 272.153C233.543 283.346 230.671 294.907 219.891 296.896C203.856 299.851 164.367 255.839 164.367 255.839C164.367 255.839 160.937 258.236 156.254 254.859C151.572 251.482 148.482 244.441 148.482 244.441H146.222C146.222 244.441 151.041 247.696 147.08 251.482C143.554 254.859 139.348 250.324 139.348 250.324C139.348 250.324 136.966 251.482 134.993 249.507C133.019 247.533 130.351 242.195 130.351 242.195C130.351 242.195 126.104 238.069 126.839 232.989C127.261 230.089 133.522 227.297 133.522 227.297C133.522 227.297 113.213 221.673 111.662 219.14C110.11 216.608 107.142 212.686 118.753 214.851C132.801 217.465 151.844 219.617 154.24 221.769C156.622 223.92 169.308 237.279 171.895 238.967C174.481 240.656 200.058 257.487 200.058 257.487" fill="#8C6239"/>
<path fill-rule="evenodd" clip-rule="evenodd" d="M114.753 220.916C116.415 221.662 118.559 222.462 120.814 223.234C125.324 224.775 130.235 226.192 132.548 226.845L133.927 227.235L132.655 227.898C131.727 228.381 130.349 229.159 129.168 230.094C128.577 230.561 128.05 231.057 127.656 231.564C127.258 232.072 127.019 232.56 126.953 233.017C126.616 235.352 127.326 237.475 128.211 239.106C129.097 240.735 130.136 241.828 130.386 242.078L130.452 242.143L130.492 242.226C130.652 242.546 131.343 243.898 132.228 245.406C133.122 246.928 134.179 248.549 135.069 249.446C136.426 250.802 138.126 250.67 139.052 250.345L139.381 250.23L139.633 250.471C139.934 250.76 140.539 251.294 141.326 251.761C142.116 252.229 143.051 252.609 144.027 252.642H144.153C145.189 252.642 146.141 252.247 147 251.425L147.786 252.247C146.74 253.249 145.513 253.78 144.153 253.78H144C142.76 253.742 141.628 253.266 140.746 252.741C140.04 252.322 139.468 251.858 139.092 251.523C137.867 251.849 135.88 251.867 134.263 250.251V250.249C133.261 249.239 132.141 247.503 131.248 245.983C130.407 244.551 129.738 243.256 129.516 242.817C129.146 242.436 128.108 241.296 127.213 239.65C126.258 237.893 125.444 235.515 125.828 232.853C125.932 232.131 126.293 231.462 126.76 230.862C127.23 230.262 127.83 229.702 128.463 229.201C129.26 228.569 130.133 228.012 130.908 227.561C128.321 226.818 124.246 225.61 120.447 224.311C118.179 223.535 115.998 222.723 114.287 221.955C113.434 221.571 112.685 221.193 112.097 220.829C111.531 220.479 111.037 220.098 110.784 219.684L111.753 219.087C111.856 219.256 112.146 219.52 112.696 219.861C113.223 220.186 113.923 220.542 114.754 220.916H114.753Z" fill="#1A1D4E"/>
<path fill-rule="evenodd" clip-rule="evenodd" d="M131.752 226.976L138.83 224.021L139.268 225.072L132.19 228.027L131.752 226.976Z" fill="#1A1D4E"/>
<path fill-rule="evenodd" clip-rule="evenodd" d="M142.312 229.644C142.297 229.648 142.268 229.657 142.222 229.676C142.132 229.713 142.004 229.77 141.839 229.848C141.513 230.004 141.07 230.233 140.548 230.512C139.502 231.072 138.156 231.828 136.8 232.611C135.444 233.394 134.086 234.201 133.019 234.862C132.484 235.193 132.026 235.485 131.681 235.718C131.312 235.965 131.121 236.112 131.074 236.164H131.071L131.068 236.168C130.684 236.557 130.355 237.426 130.222 238.597C130.094 239.737 130.166 241.041 130.465 242.187L129.365 242.475C129.025 241.183 128.947 239.737 129.092 238.469C129.231 237.235 129.595 236.041 130.257 235.37C130.407 235.216 130.705 235.002 131.045 234.773C131.408 234.528 131.879 234.229 132.419 233.894C133.499 233.225 134.869 232.412 136.231 231.625C137.592 230.838 138.951 230.075 140.01 229.509C140.539 229.226 140.998 228.989 141.348 228.821C141.521 228.738 141.676 228.669 141.801 228.618C141.864 228.594 141.926 228.571 141.986 228.553C142.031 228.539 142.127 228.512 142.234 228.512V229.65C142.274 229.65 142.302 229.645 142.316 229.642C142.314 229.642 142.313 229.644 142.312 229.644ZM142.316 229.642C142.316 229.642 142.323 229.641 142.321 229.641C142.321 229.641 142.32 229.642 142.316 229.642Z" fill="#1A1D4E"/>
<path fill-rule="evenodd" clip-rule="evenodd" d="M136.886 239.659C136.502 239.968 136.193 240.242 135.973 240.471C135.862 240.584 135.781 240.679 135.726 240.754C135.673 240.826 135.661 240.86 135.659 240.86V240.864C135.659 240.864 135.657 240.872 135.654 240.894C135.651 240.915 135.65 240.946 135.651 240.985C135.651 241.067 135.664 241.175 135.687 241.31C135.733 241.579 135.821 241.922 135.949 242.323C136.203 243.125 136.592 244.108 137.03 245.128C137.904 247.162 138.954 249.288 139.448 250.273L138.432 250.785C137.933 249.795 136.872 247.644 135.983 245.577C135.541 244.545 135.134 243.521 134.865 242.667C134.728 242.241 134.622 241.845 134.564 241.502C134.509 241.183 134.479 240.827 134.571 240.532C134.662 240.226 134.912 239.927 135.154 239.677C135.421 239.403 135.77 239.097 136.17 238.773C136.972 238.126 138.018 237.377 139.113 236.631C141.306 235.14 143.731 233.635 144.863 232.94L145.459 233.91C144.33 234.604 141.924 236.095 139.754 237.573C138.668 238.311 137.651 239.04 136.886 239.659Z" fill="#1A1D4E"/>
<path d="M128.663 169.761C128.807 170.251 128.809 170.785 128.824 171.301C129.094 180.843 135.195 189.184 139.86 197.097C140.056 197.43 140.259 197.833 140.097 198.185C139.915 198.58 139.399 198.657 138.966 198.682C131.998 199.074 122.396 200.199 117.402 194.037C115.542 191.744 114.769 188.715 114.738 185.761C114.7 182.263 114.987 178.222 117.199 175.354C119.473 172.406 122.919 170.604 126.156 168.917C127.032 168.461 127.991 168.319 128.519 169.387C128.579 169.508 128.626 169.632 128.663 169.76V169.761Z" fill="#172351"/>
<path d="M131.404 199.57C125.979 199.57 120.462 198.678 116.978 194.381C114.723 191.599 114.219 188.162 114.192 185.768C114.155 182.368 114.414 178.073 116.767 175.021C119.121 171.971 122.724 170.092 125.904 168.435C126.663 168.04 127.334 167.932 127.899 168.117C128.373 168.273 128.746 168.619 129.006 169.146C129.077 169.289 129.137 169.444 129.184 169.606C129.337 170.122 129.35 170.646 129.364 171.153L129.368 171.285C129.594 179.236 133.934 186.325 138.13 193.18C138.862 194.377 139.621 195.615 140.33 196.817C140.511 197.125 140.889 197.765 140.591 198.411C140.249 199.153 139.339 199.205 138.996 199.224C138.474 199.254 137.938 199.286 137.391 199.32C135.485 199.439 133.45 199.567 131.404 199.567V199.57ZM127.328 169.12C127.079 169.12 126.765 169.215 126.407 169.402C123.177 171.086 119.837 172.826 117.63 175.687C115.481 178.472 115.247 182.531 115.282 185.756C115.307 187.977 115.768 191.157 117.825 193.694C122.268 199.175 130.616 198.653 137.324 198.235C137.874 198.201 138.413 198.167 138.936 198.137C139.493 198.106 139.588 197.99 139.603 197.956C139.63 197.897 139.615 197.749 139.392 197.372C138.687 196.176 137.931 194.942 137.202 193.749C132.93 186.772 128.515 179.556 128.28 171.316L128.276 171.181C128.264 170.725 128.253 170.294 128.142 169.914C128.112 169.81 128.075 169.716 128.031 169.628C127.903 169.369 127.75 169.214 127.562 169.152C127.492 169.129 127.413 169.118 127.328 169.118V169.12Z" fill="white"/>
<path d="M157.309 169.351C157.307 169.96 157.53 170.65 157.52 171.168C157.455 174.458 156.128 177.439 154.844 180.411C152.409 186.052 149.34 191.41 146.222 196.695C146.026 197.028 145.824 197.432 145.986 197.783C146.168 198.178 146.684 198.255 147.118 198.28C151.89 198.548 157.051 198.837 161.72 197.634C164.92 196.811 168.01 195.028 169.704 192.19C172.027 188.302 171.541 182.986 170.521 178.758C169.258 173.519 164.275 169.939 159.399 168.309C158.846 168.124 158.181 167.981 157.725 168.346C157.409 168.599 157.312 168.958 157.309 169.351Z" fill="#172351"/>
<path d="M153.467 199.062C151.287 199.062 149.129 198.94 147.088 198.825C146.745 198.806 145.834 198.754 145.493 198.012C145.196 197.366 145.573 196.726 145.754 196.418C148.749 191.342 151.877 185.909 154.345 180.195L154.451 179.951C155.662 177.149 156.915 174.249 156.976 171.157C156.98 170.957 156.934 170.69 156.885 170.407C156.825 170.063 156.764 169.708 156.765 169.348C156.768 168.729 156.976 168.248 157.383 167.921C158.062 167.378 158.956 167.588 159.57 167.793C162.261 168.693 164.718 170.069 166.672 171.771C168.96 173.765 170.433 176.073 171.049 178.631C172.018 182.651 172.653 188.315 170.17 192.471C168.553 195.177 165.6 197.199 161.854 198.163C159.166 198.855 156.297 199.06 153.464 199.06L153.467 199.062ZM157.855 169.354C157.855 169.615 157.907 169.923 157.959 170.22C158.014 170.541 158.072 170.872 158.066 171.177C158.001 174.485 156.705 177.483 155.451 180.383L155.347 180.626C152.854 186.397 149.706 191.866 146.695 196.971C146.472 197.349 146.457 197.497 146.484 197.555C146.5 197.59 146.595 197.705 147.152 197.737C151.765 197.997 156.994 198.291 161.588 197.107C165.055 196.216 167.772 194.369 169.24 191.911C170.506 189.791 171.665 185.811 169.996 178.886C169.432 176.551 168.075 174.433 165.961 172.592C164.114 170.983 161.786 169.681 159.23 168.827C158.646 168.632 158.266 168.613 158.068 168.772C157.965 168.856 157.859 168.989 157.857 169.355L157.855 169.354Z" fill="white"/>
<path d="M142.289 154.24C142.683 153.832 143.064 153.409 143.459 152.974C143.35 153.409 139.811 167.19 127.669 169.383L127.315 165.488L127.084 163.064C127.084 163.078 134.366 162.56 142.289 154.24Z" fill="#1A1D4E"/>
<path d="M170.242 147.234C170.313 150.846 167.723 154.345 164.249 155.332C160.775 156.319 156.734 154.703 154.896 151.593C154.541 150.992 154.256 150.298 154.379 149.61C154.546 148.666 155.408 148.03 156.2 147.491C158.686 145.799 161.328 143.831 162.076 140.917C162.342 139.885 162.366 138.278 163.715 138.282C164.697 138.284 166.179 139.729 166.853 140.346C168.787 142.118 170.192 144.565 170.244 147.234H170.242Z" fill="#1A1D4E"/>
<path d="M108.225 134.872L107.142 134.754C107.376 132.613 109.546 130.913 112.082 130.885C114.368 130.859 116.4 132.151 117.011 134.029L115.975 134.367C115.522 132.974 113.918 131.974 112.147 131.974C112.13 131.974 112.112 131.974 112.094 131.974C110.1 131.997 108.4 133.269 108.225 134.872Z" fill="#1A1D4E"/>
<path d="M121.892 133.181L120.81 133.062C121.044 130.922 123.214 129.222 125.75 129.194C125.773 129.194 125.795 129.194 125.818 129.194C128.082 129.194 130.075 130.479 130.679 132.338L129.643 132.674C129.19 131.281 127.586 130.282 125.815 130.282C125.798 130.282 125.78 130.282 125.762 130.282C123.768 130.305 122.068 131.577 121.892 133.179V133.181Z" fill="#1A1D4E"/>
<path fill-rule="evenodd" clip-rule="evenodd" d="M197.883 249.468C211.202 249.393 224.521 249.317 237.841 249.242C237.698 248.416 237.555 247.593 237.411 246.767C223.808 246.706 210.206 246.646 196.603 246.585C197.029 247.546 197.457 248.508 197.883 249.469V249.468Z" fill="white"/>
<path d="M206.457 271.932L206.17 271.009Z" fill="#1A1D4E"/>
<path d="M287.964 180.233C287.757 176.616 290.299 172.046 291.251 170.234C294.035 164.932 294.163 159.118 294.211 153.509C294.216 152.846 293.124 139.913 283.18 131.823C278.309 127.86 273.236 126.902 271.216 126.544C264.697 125.392 258.11 127.792 255.264 129.648C254.534 130.124 254.503 131.184 255.203 131.702C258.09 133.836 260.42 136.1 263.509 138.186C267.399 140.813 271.326 143.471 274.514 146.917C277.838 150.509 282.165 156.24 283.625 160.959C285.106 165.747 285.091 174.32 283.158 179C281.93 181.973 279.609 184.472 278.455 187.6C276.465 192.991 278.052 194.41 276.417 198.074C273.433 204.766 265.885 206.024 266.393 207.867C266.778 209.26 271.137 208.681 279.374 208.873C290.753 209.14 298.315 209.216 298.445 208.128C298.56 207.176 292.741 207.206 289.866 202.76C288.223 200.219 288.275 197.351 288.311 195.412C288.415 189.764 291.064 188.489 290.397 183.893C289.987 181.072 288.118 182.951 287.963 180.231L287.964 180.233Z" fill="#1A1D4E"/>
<path d="M226.846 179.402C227.053 175.785 224.512 171.215 223.559 169.403C220.775 164.102 220.647 158.287 220.6 152.678C220.594 152.015 221.686 139.083 231.631 130.992C236.501 127.03 241.574 126.071 243.594 125.713C250.113 124.561 256.7 126.962 259.546 128.818C260.276 129.293 260.307 130.354 259.608 130.871C256.72 133.005 254.39 135.27 251.302 137.356C247.411 139.983 243.484 142.641 240.296 146.086C236.972 149.678 232.645 155.41 231.186 160.128C229.705 164.916 229.72 173.49 231.653 178.17C232.88 181.142 235.201 183.641 236.356 186.769C238.346 192.16 236.758 193.579 238.393 197.244C241.377 203.935 248.925 205.194 248.417 207.036C248.032 208.429 243.673 207.85 235.437 208.042C224.057 208.309 216.496 208.385 216.365 207.297C216.251 206.346 222.07 206.375 224.945 201.929C226.588 199.388 226.536 196.521 226.499 194.581C226.396 188.933 223.747 187.658 224.414 183.063C224.823 180.241 226.692 182.12 226.848 179.401L226.846 179.402Z" fill="#1A1D4E"/>
<path d="M207.762 279.491L207.926 279.6C208.239 282.487 198.057 309.776 185.833 326.281C185.833 326.281 165.266 333.648 163.523 336.861C161.795 340.089 164.449 346.176 163.714 348.627C163.714 348.627 157.97 353.42 157.343 354.931C156.513 356.933 161.631 361.059 165.633 357.982C167.675 356.402 168.505 359.507 168.219 360.569C167.934 361.645 169.676 364.573 173.365 363.851C177.054 363.129 174.495 367.623 178.088 368.671C181.695 369.72 182.948 366.806 185.684 369.611C188.447 372.416 201.228 362.898 204.523 342.131C216.719 328.405 243.725 294.021 237.327 270.708" fill="#E3B7AC"/>
<path fill-rule="evenodd" clip-rule="evenodd" d="M183.489 369.341C183.056 369.275 182.621 369.374 181.968 369.536C181.957 369.539 181.944 369.542 181.934 369.544C180.934 369.791 179.603 370.119 177.824 369.599L178.08 368.724C179.622 369.177 180.755 368.897 181.736 368.655L181.75 368.651C181.762 368.648 181.774 368.646 181.786 368.643C182.388 368.493 182.995 368.343 183.628 368.441C184.298 368.545 184.934 368.911 185.655 369.646L185.004 370.284C184.365 369.63 183.898 369.404 183.489 369.341Z" fill="#1A1D4E"/>
<path fill-rule="evenodd" clip-rule="evenodd" d="M161.954 340.232C161.906 338.873 162.053 337.524 162.66 336.4L163.461 336.833C162.967 337.75 162.82 338.908 162.864 340.2C162.907 341.452 163.127 342.775 163.339 344.059C163.346 344.1 163.353 344.14 163.36 344.181C163.369 344.239 163.379 344.298 163.39 344.356C163.515 345.101 163.639 345.842 163.712 346.509C163.79 347.22 163.815 347.898 163.696 348.439L163.662 348.59L163.544 348.689C163.043 349.11 161.607 350.329 160.221 351.627C159.527 352.276 158.85 352.939 158.311 353.529C157.759 354.135 157.396 354.614 157.274 354.903C157.062 355.415 157.186 356.126 157.786 356.899L157.789 356.903L157.791 356.907C158.028 357.227 158.36 357.539 158.769 357.869C160.439 359.153 163.222 359.928 165.669 358.043C166.041 357.756 166.372 357.625 166.67 357.618C166.978 357.613 167.174 357.742 167.256 357.799C167.472 357.949 167.637 358.167 167.759 358.386C167.885 358.611 167.981 358.864 168.052 359.115C168.187 359.597 168.247 360.162 168.143 360.562H168.142V360.565C168.079 360.798 168.101 361.132 168.249 361.526C168.395 361.913 168.65 362.326 168.999 362.693H169.001V362.696C170.035 363.803 171.612 364.277 173.373 363.935L173.547 364.829C171.526 365.222 169.617 364.688 168.338 363.318C167.912 362.87 167.588 362.356 167.397 361.845C167.208 361.341 167.135 360.805 167.262 360.329C167.307 360.157 167.292 359.777 167.175 359.361C167.12 359.162 167.047 358.979 166.964 358.83C166.879 358.678 166.797 358.589 166.737 358.548L166.734 358.546L166.73 358.543C166.73 358.543 166.726 358.54 166.725 358.539C166.713 358.531 166.71 358.529 166.689 358.529C166.651 358.529 166.504 358.548 166.224 358.765C163.335 360.991 160.078 360.026 158.209 358.588L158.205 358.585L158.201 358.581C157.769 358.234 157.368 357.866 157.062 357.453C156.358 356.541 156.046 355.483 156.433 354.553H156.434V354.55C156.625 354.098 157.093 353.513 157.64 352.915C158.201 352.299 158.897 351.618 159.599 350.961C160.9 349.743 162.241 348.597 162.833 348.097C162.889 347.722 162.874 347.22 162.807 346.607C162.738 345.969 162.617 345.254 162.49 344.499C162.481 344.443 162.471 344.388 162.462 344.33C162.453 344.283 162.445 344.234 162.438 344.186C162.227 342.92 161.999 341.543 161.954 340.232Z" fill="#1A1D4E"/>
<path fill-rule="evenodd" clip-rule="evenodd" d="M163.056 347.891L168.978 342.608L169.585 343.289L163.663 348.572L163.056 347.891Z" fill="#1A1D4E"/>
<path d="M207.259 279.791C207.027 276.005 206.66 271.375 206.17 266.051L207.095 265.969C207.572 271.307 207.939 275.937 208.184 279.736L207.259 279.791Z" fill="#1A1D4E"/>
<path d="M203.025 323.271C187.984 327.111 193.211 324.796 193.211 324.796V324.783C194.082 314.052 195.117 303.267 196.369 292.55C197.526 282.651 198.86 272.805 200.425 263.082C202.317 251.303 204.523 239.715 207.095 228.453C206.374 228.903 205.571 229.407 204.74 229.965C204.604 230.06 204.468 230.156 204.332 230.251C202.603 231.422 200.67 232.852 198.588 234.554C198.465 234.663 198.343 234.758 198.207 234.867C196.682 236.134 195.076 237.536 193.429 239.116C193.225 239.32 193.02 239.511 192.803 239.715C192.381 240.123 191.972 240.532 191.55 240.954C191.128 241.376 190.706 241.812 190.284 242.261C190.067 242.479 189.849 242.711 189.645 242.929C182.104 250.963 173.991 262.279 167.593 277.844C150.946 318.314 145.977 358.418 154.376 368.862C160.066 375.93 171.5 378.83 190.38 371.123" fill="#C69C6D"/>
<path d="M338.764 436.745C324.063 449.872 221.197 452.01 192.53 438.093C192.095 422.828 191.904 407.985 191.932 393.619C192.068 327.343 196.859 271.212 202.971 230.864C206.905 228.739 216.134 224.137 228.752 220.133C238.267 217.124 249.701 214.441 262.278 213.406C272.242 212.589 282.846 214.931 292.17 218.172C307.538 223.497 319.462 231.245 319.462 231.245C324.104 250.786 327.589 271.389 330.202 292.292C332.217 308.292 333.728 324.483 334.871 340.484C336.178 358.567 337.022 376.447 337.621 393.605C338.152 408.652 338.478 423.141 338.764 436.745Z" fill="#7D5CC6"/>
<path d="M247.346 215.435C242.786 216.484 232.699 218.894 228.738 220.147C227.949 230.986 226.846 253.85 226.846 253.85C226.846 253.85 297.329 254.149 297.601 253.85C297.806 253.618 293.885 228.957 292.157 218.199C285.963 216.048 279.198 214.291 272.446 213.597" fill="#C69C6D"/>
<path d="M338.764 469.236C324.063 482.363 221.197 484.501 192.53 470.584C192.095 455.319 191.904 407.998 191.932 393.632H337.634C338.152 408.652 338.478 455.618 338.764 469.236Z" fill="#3F2E63"/>
<path d="M305.603 309.15L303.792 308.319C303.901 308.074 314.777 283.971 310.176 273.432C309.251 271.307 307.78 269.945 305.698 269.251C302.798 268.298 300.239 268.584 297.885 270.163C287.989 276.781 285.92 303.131 285.906 303.403L283.919 303.254C284 302.137 286.069 275.665 296.782 268.516C299.64 266.609 302.853 266.228 306.324 267.372C308.937 268.243 310.843 270.014 312 272.642C316.955 283.999 306.079 308.129 305.603 309.15Z" fill="#1A1D4E"/>
<path d="M229.631 177.494C229.631 177.494 229.264 153.855 230.475 147.4C231.687 140.945 240.943 128.894 261.483 129.275C282.037 129.643 286.802 140.578 287.727 152.357C288.666 164.136 287.727 178.883 287.727 178.883C287.727 178.883 239.255 192.732 229.631 177.494Z" fill="#1A1D4E"/>
<path d="M284.166 190.72C283.132 199.435 277.374 205.549 272.024 206.366L272.269 219.275C268.744 228.004 252.832 227.364 247.142 218.935L247.251 214.632L247.455 206.679C237.423 203.275 235.34 190.352 235.34 190.352C230.957 194.083 218.938 193.634 219.632 183.094C220.34 172.472 232.06 174.134 233.693 177.674C233.693 177.674 235.242 174.292 235.34 172.391C236.347 171.451 230.629 145.686 250.735 143.985C259.243 158.283 274.461 164.915 284.929 163.607C284.929 163.607 284.697 173.33 284.466 178.396C286.167 173.752 298.636 172.472 299.344 183.094C300.038 193.647 286.698 193.252 284.166 190.72Z" fill="#C69C6D"/>
<path fill-rule="evenodd" clip-rule="evenodd" d="M228.382 180.489C226.363 180.335 224.562 181.115 223.827 182.258L222.869 181.642C223.903 180.035 226.185 179.18 228.467 179.353C230.908 179.53 232.902 180.807 233.856 182.883L232.822 183.359C232.062 181.705 230.463 180.639 228.384 180.489H228.382Z" fill="#1A1D4E"/>
<path fill-rule="evenodd" clip-rule="evenodd" d="M295.151 182.262C294.403 181.115 292.599 180.349 290.591 180.489C288.5 180.64 286.915 181.704 286.154 183.359L285.119 182.883C286.073 180.807 288.054 179.53 290.509 179.353H290.511C292.776 179.194 295.056 180.034 296.104 181.638L295.151 182.262Z" fill="#1A1D4E"/>
<path fill-rule="evenodd" clip-rule="evenodd" d="M264.037 174.748C263.337 172.578 261.349 171.67 259.646 171.766C257.765 171.88 256.368 173.08 256.009 174.755L255.259 174.56C255.712 172.45 257.449 171.048 259.604 170.917C261.532 170.81 263.912 171.834 264.761 174.464L264.034 174.749L264.037 174.748Z" fill="#1A1D4E"/>
<path fill-rule="evenodd" clip-rule="evenodd" d="M264.43 172.717C263.784 174.77 263.512 178.8 267.886 183.124L268.664 183.903L267.935 184.713C267.794 184.87 264.899 188.087 260.339 188.087C260.06 188.087 259.782 188.072 259.492 188.044L259.606 186.911C259.861 186.937 260.1 186.949 260.339 186.949C264.38 186.949 266.984 184.069 267.089 183.95L267.096 183.944L267.085 183.933C262.341 179.242 263.023 174.646 263.765 172.286" fill="#1A1D4E"/>
<path d="M252.355 174.787C252.355 175.931 251.429 176.857 250.286 176.857C249.143 176.857 248.217 175.931 248.217 174.787C248.217 173.643 249.143 172.717 250.286 172.717C251.429 172.717 252.355 173.643 252.355 174.787Z" fill="#1A1D4E"/>
<path d="M272.787 174.787C272.787 175.931 271.861 176.857 270.718 176.857C269.574 176.857 268.649 175.931 268.649 174.787C268.649 173.643 269.574 172.717 270.718 172.717C271.861 172.717 272.787 173.643 272.787 174.787Z" fill="#1A1D4E"/>
<path d="M268.649 192.694C267.723 201.069 256.82 200.851 255.391 193.28C258.753 194.424 265.572 194.519 268.649 192.694Z" fill="white"/>
<path d="M266.062 207.619C266.062 207.619 261.598 215.83 247.251 214.632L247.455 206.679C247.455 206.679 254.56 209.879 266.062 207.619Z" fill="#1A1D4E"/>
<path d="M300.267 304.602L306.474 307.257L305.004 310.689L298.797 308.033C297.98 307.679 297.612 306.753 297.953 305.936L298.17 305.446C298.524 304.629 299.464 304.248 300.267 304.602Z" fill="white"/>
<path d="M305.415 325.191C320.156 329.113 334.898 329.63 334.898 329.617C334.286 318.723 332.775 308.251 331.509 297.521C330.352 287.621 329.018 277.775 327.453 268.053C325.56 256.274 323.355 244.685 320.783 233.424C321.504 233.873 322.307 234.377 323.137 234.935C323.274 235.031 323.41 235.126 323.546 235.221C325.275 236.392 327.208 237.822 329.29 239.524C329.413 239.633 329.535 239.729 329.671 239.837C331.196 241.104 332.802 242.506 334.449 244.086C334.653 244.29 334.857 244.481 335.075 244.685C335.497 245.094 335.906 245.502 336.328 245.924C336.75 246.347 337.171 246.782 337.593 247.232C337.811 247.45 338.029 247.681 338.233 247.899C345.774 255.933 353.887 267.249 360.285 282.814C376.932 323.285 381.9 351.99 373.502 362.435C367.812 369.502 356.378 372.403 337.498 364.695C328.487 361.019 326.432 353.502 313.841 344.296C313.841 344.296 302.951 353.066 288.74 334.601" fill="#C69C6D"/>
<path d="M275.999 327.275C275.999 327.275 266.335 327.996 267.26 333.811C267.968 338.291 273.658 334.356 280.763 340.729C280.763 340.729 283.241 326.172 275.999 327.275Z" fill="#C69C6D"/>
<path fill-rule="evenodd" clip-rule="evenodd" d="M282.862 322.209C284.866 321.436 287 320.823 288.155 320.54L288.427 321.645C287.308 321.92 285.223 322.519 283.272 323.271C282.296 323.647 281.368 324.057 280.616 324.478C279.845 324.908 279.335 325.311 279.114 325.645H279.112V325.647C278.919 325.933 278.756 326.477 278.648 327.25C278.545 328.002 278.504 328.892 278.501 329.808C278.496 331.634 278.644 333.498 278.719 334.432C278.758 334.915 278.775 335.171 278.775 335.309H277.637C277.637 335.229 277.626 335.022 277.584 334.526V334.523C277.509 333.592 277.358 331.684 277.363 329.805C277.366 328.865 277.407 327.917 277.521 327.095C277.631 326.296 277.819 325.526 278.169 325.009C278.553 324.438 279.267 323.928 280.064 323.484C280.879 323.026 281.862 322.596 282.864 322.209H282.862Z" fill="#1A1D4E"/>
<path fill-rule="evenodd" clip-rule="evenodd" d="M286.841 332.73C288.619 331.685 290.545 330.671 291.586 330.144L292.101 331.16C291.073 331.681 289.167 332.682 287.417 333.712C286.54 334.226 285.711 334.742 285.051 335.205C284.722 335.438 284.441 335.652 284.221 335.841C283.995 336.036 283.86 336.183 283.795 336.28C283.615 336.548 283.454 337.015 283.328 337.64C283.205 338.25 283.126 338.95 283.076 339.635C283.003 340.647 282.993 341.528 282.988 342.078C282.986 342.299 282.983 342.466 282.979 342.568L281.841 342.511C281.844 342.469 281.846 342.365 281.847 342.213C281.852 341.693 281.863 340.613 281.942 339.552C281.994 338.843 282.077 338.091 282.213 337.415C282.345 336.756 282.54 336.105 282.85 335.645C283 335.422 283.227 335.196 283.479 334.978C283.736 334.756 284.051 334.519 284.398 334.274C285.093 333.785 285.952 333.251 286.841 332.73Z" fill="#1A1D4E"/>
<path d="M249.468 180.663C245.659 180.663 242.56 176.857 242.56 172.18C242.56 167.502 245.658 163.696 249.468 163.696C253.278 163.696 256.376 167.502 256.376 172.18C256.376 176.857 253.278 180.663 249.468 180.663ZM249.468 164.649C246.185 164.649 243.513 168.028 243.513 172.18C243.513 176.331 246.183 179.71 249.468 179.71C252.753 179.71 255.423 176.331 255.423 172.18C255.423 168.028 252.753 164.649 249.468 164.649Z" fill="#1A1D4E"/>
<path d="M270.509 180.663C266.701 180.663 263.601 176.857 263.601 172.18C263.601 167.502 266.699 163.696 270.509 163.696C274.319 163.696 277.418 167.502 277.418 172.18C277.418 176.857 274.319 180.663 270.509 180.663ZM270.509 164.649C267.226 164.649 264.554 168.028 264.554 172.18C264.554 176.331 267.225 179.71 270.509 179.71C273.794 179.71 276.465 176.331 276.465 172.18C276.465 168.028 273.794 164.649 270.509 164.649Z" fill="#1A1D4E"/>
<path d="M242.834 173.312C242.782 173.284 237.589 170.491 234.826 172.859L234.206 172.135C235.574 170.962 237.593 170.657 240.046 171.252C241.841 171.688 243.234 172.445 243.292 172.476L242.835 173.312H242.834Z" fill="#1A1D4E"/>
<path d="M276.802 174.045L276.345 173.209C276.582 173.08 282.168 170.07 285.431 172.867L284.812 173.59C282.044 171.218 276.855 174.015 276.804 174.044L276.802 174.045Z" fill="#1A1D4E"/>
<path d="M312.267 228.325C314.366 226.296 333.831 239.105 347.318 258.431C352.447 265.78 356.277 273.452 357.319 275.574C361.159 283.402 363.682 290.452 366.433 298.133C367.009 299.743 368.584 304.184 370.443 310.04C371.633 313.789 372.838 317.587 373.996 321.949C376.28 330.554 378.265 338.243 378.071 347.904C377.963 353.372 377.874 356.168 376.261 359.243C372.677 366.071 365.196 368.528 362.303 369.286C362.1 369.339 361.791 369.419 361.387 369.509C355.356 370.858 350.537 369.655 346.183 368.513C344.762 368.14 342.758 367.551 340.403 366.625C338 366.13 336.047 365.545 334.649 365.085C331.479 364.04 327.721 362.45 325.374 360.263C324.851 359.775 323.391 358.484 322.775 356.346C322.445 355.196 322.454 353.978 322.457 352.78C322.47 343.451 321.779 334.121 320.393 324.896C324.457 324.043 328.819 324.715 332.44 326.746C333.651 322.457 332.564 317.891 331.446 313.577C326.417 294.16 320.713 274.394 322.374 254.404C322.401 254.083 322.695 252.744 322.338 251.08C321.957 249.302 321.068 248.111 320.826 247.775C318.795 244.948 310.482 230.052 312.27 228.325H312.267Z" fill="#7D5CC6"/>
<path d="M327.616 337.926L304.176 335.666L288.427 321C288.427 321 316.822 323.914 319.68 319.434C322.77 314.6 321.3 274.456 320.851 274.36H321.422C325.193 295.263 328.351 316.601 327.616 337.926Z" fill="#1A1D4E"/>
<path d="M342.079 367.21C334.878 364.269 325.663 360.034 315.603 352.667C315.603 352.667 306.892 359.68 295.526 344.919L291.551 344.742C291.551 344.742 294.668 347.833 291.551 350.706C291.224 351.006 282.472 350.461 282.077 349.018C281.682 347.547 281.75 343.108 281.75 343.108C281.75 343.108 277.612 343.23 277.558 336.244C277.558 336.244 272.875 335.577 272.712 332.091C272.549 328.605 272.113 321.306 272.44 320.707C272.766 320.108 274.236 318.719 274.236 318.719C274.236 318.719 270.044 317.098 269.064 317.153C268.084 317.221 253.478 323.458 251.001 313.476C250.511 311.502 266.614 307.689 269.227 306.79C271.841 305.891 287.944 309.8 290.013 310.29C292.082 310.78 303.72 324.084 315.753 327.162C327.786 330.239 339.166 330.825 339.166 330.825V330.811" fill="#C69C6D"/>
<path fill-rule="evenodd" clip-rule="evenodd" d="M294.63 218.36C307.312 223.363 318.582 229.637 321.933 231.753L321.326 232.716C318.033 230.636 306.828 224.395 294.215 219.421L294.631 218.36H294.63Z" fill="#1A1D4E"/>
<path d="M211.295 225.775C203.677 230.033 193.693 236.779 184.056 247.161C172.031 260.115 166.252 272.481 165.027 275.398C162.381 281.695 160.48 288.274 158.585 294.838C158.353 295.637 157.609 298.407 156.725 302.146C156.073 304.903 153.942 314.153 152.296 326.934C151.859 330.325 151.343 334.847 150.923 340.223C159.965 336.962 167.433 334.975 172.481 333.777C189.752 329.678 198.401 327.849 201.37 327.566C204.891 327.23 208.624 326.966 211.514 324.926C214.405 322.886 215.913 319.443 217.16 316.132C218.321 313.05 219.372 309.601 218.162 306.538C218.486 307.52 217.733 308.705 216.707 308.827C218.471 300.687 220.235 292.548 221.998 284.407C223.029 279.644 224.068 274.823 223.936 269.951C223.835 266.214 223.047 262.519 223.005 258.781C222.978 256.374 223.261 253.957 222.991 251.566C222.594 248.024 221.291 245.504 220.391 243.649C216.799 236.247 213.524 229.964 211.295 225.773V225.775Z" fill="#7D5CC6"/>
<path d="M203.726 299.686C211.737 320.345 219.749 341.004 227.76 361.663L192.627 373.728C190.259 367.886 172.726 316.112 172.182 310.665C182.697 307.005 193.212 303.346 203.726 299.686Z" fill="#1A1D4E"/>
<path d="M179.735 342.581C168.954 345.263 172.602 353.992 180.402 351.868C184.377 350.792 199.037 346.802 198.574 342.962C198.111 339.135 183.887 341.546 179.735 342.581Z" fill="#C69C6D"/>
<path d="M187.93 348.382C175.856 349.92 175.624 359.098 182.471 358.717C189.318 358.336 201.623 353.243 200.738 350.002C200.071 347.51 194.15 347.592 187.93 348.382Z" fill="#C69C6D"/>
<path d="M198.561 355.054C200.18 357.192 197.744 360.76 191.047 362.612C184.35 364.464 181.682 359.235 185.071 356.838C188.46 354.455 196.764 352.685 198.561 355.054Z" fill="#C69C6D"/>
<path d="M177.013 335.227C166.232 337.896 169.962 346.938 177.761 344.814C181.736 343.738 196.396 339.748 195.893 335.785C195.403 331.823 181.178 334.192 177.013 335.227Z" fill="#C69C6D"/>
<path fill-rule="evenodd" clip-rule="evenodd" d="M194.191 339.517C192.284 340.767 189.375 342.035 185.468 343.345C184.577 343.647 183.621 343.946 182.629 344.247C181.619 344.562 180.751 344.807 180.134 344.981C180.078 344.996 180.026 345.011 179.975 345.026C177.847 345.625 175.786 345.412 174.226 344.352C173.139 343.618 172.404 342.526 172.182 341.277L173.11 341.098C173.279 342.055 173.848 342.924 174.74 343.524C176.022 344.399 177.791 344.62 179.73 344.076C179.78 344.061 179.834 344.046 179.889 344.031C180.507 343.855 181.364 343.614 182.364 343.302H182.366C183.355 343.003 184.301 342.705 185.181 342.408C189.068 341.103 191.887 339.865 193.691 338.682C195.539 337.471 196.139 336.442 196.04 335.596L196.975 335.476C197.149 336.959 196.056 338.293 194.192 339.517H194.191Z" fill="#1A1D4E"/>
<path fill-rule="evenodd" clip-rule="evenodd" d="M184.011 358.64C184.016 358.625 184.022 358.61 184.026 358.595L184.946 358.894C184.738 359.536 184.657 359.822 184.684 360.065C184.706 360.268 184.818 360.511 185.27 360.983C186.602 362.364 189.515 363.249 192.268 362.499L192.521 363.433C189.475 364.262 186.182 363.323 184.573 361.654H184.572C184.086 361.145 183.782 360.707 183.722 360.172C183.669 359.688 183.831 359.192 184.011 358.64Z" fill="#1A1D4E"/>
<path fill-rule="evenodd" clip-rule="evenodd" d="M201.859 349.67C202.072 350.454 201.84 351.243 201.309 351.986C200.404 353.247 198.543 354.489 196.349 355.573C194.133 356.668 191.5 357.639 188.968 358.326C186.906 358.89 184.885 359.266 183.221 359.364H183.22C180.932 359.493 179 358.629 178.181 356.88V356.877L178.179 356.876C177.507 355.405 177.823 353.483 178.83 351.979L179.633 352.519C178.762 353.819 178.56 355.382 179.057 356.472C179.655 357.744 181.125 358.513 183.164 358.397C184.74 358.305 186.694 357.945 188.714 357.392H188.715C191.194 356.718 193.766 355.769 195.92 354.706C198.095 353.631 199.767 352.476 200.522 351.422C200.944 350.83 201.038 350.34 200.925 349.924L201.859 349.67Z" fill="#1A1D4E"/>
<path fill-rule="evenodd" clip-rule="evenodd" d="M197.032 346.747C195.04 347.974 192.001 349.227 187.915 350.53C186.984 350.833 185.986 351.134 184.949 351.433C183.894 351.748 182.988 351.993 182.342 352.167C182.285 352.182 182.229 352.197 182.176 352.212H182.174C179.946 352.809 177.81 352.626 176.197 351.61H176.195C175.091 350.908 174.318 349.858 174.1 348.629L175.053 348.461C175.216 349.382 175.803 350.213 176.713 350.792C178.039 351.627 179.878 351.825 181.924 351.278C181.977 351.263 182.032 351.248 182.089 351.233C182.735 351.059 183.631 350.816 184.675 350.504H184.678C185.709 350.205 186.698 349.907 187.618 349.61H187.619C191.685 348.312 194.635 347.087 196.526 345.924C197.472 345.341 198.125 344.791 198.522 344.277C198.916 343.771 199.041 343.327 198.992 342.925L199.953 342.808C200.04 343.53 199.79 344.223 199.287 344.871C198.789 345.512 198.028 346.135 197.032 346.747Z" fill="#1A1D4E"/>
<path fill-rule="evenodd" clip-rule="evenodd" d="M282.751 322.104C284.754 321.331 286.889 320.718 288.043 320.435L288.315 321.54C287.196 321.815 285.111 322.415 283.16 323.166C282.184 323.542 281.256 323.952 280.505 324.373C279.733 324.803 279.224 325.206 279.002 325.54H279.001V325.542C278.807 325.828 278.644 326.372 278.536 327.145C278.433 327.897 278.392 328.787 278.389 329.703C278.384 331.529 278.532 333.393 278.607 334.327C278.647 334.81 278.663 335.066 278.663 335.204H277.525C277.525 335.124 277.514 334.917 277.472 334.421V334.418C277.397 333.487 277.246 331.579 277.251 329.7C277.254 328.76 277.295 327.812 277.409 326.99C277.52 326.191 277.707 325.421 278.057 324.904C278.441 324.333 279.156 323.823 279.952 323.379C280.767 322.921 281.75 322.491 282.752 322.104H282.751Z" fill="#1A1D4E"/>
<path fill-rule="evenodd" clip-rule="evenodd" d="M286.727 333.307C288.504 332.263 290.431 331.248 291.472 330.721L291.986 331.737C290.959 332.259 289.053 333.259 287.303 334.289C286.426 334.804 285.597 335.32 284.937 335.783C284.607 336.016 284.327 336.229 284.106 336.419C283.88 336.613 283.746 336.76 283.68 336.857C283.501 337.125 283.34 337.592 283.214 338.218C283.091 338.828 283.012 339.528 282.962 340.212C282.888 341.224 282.879 342.105 282.873 342.655C282.872 342.876 282.869 343.044 282.865 343.146L281.727 343.088C281.73 343.046 281.731 342.943 281.733 342.79C281.738 342.27 281.749 341.19 281.828 340.129C281.88 339.42 281.963 338.668 282.099 337.993C282.231 337.334 282.425 336.683 282.736 336.223C282.885 335.999 283.113 335.773 283.365 335.555C283.622 335.333 283.936 335.096 284.283 334.851C284.979 334.362 285.838 333.829 286.727 333.307Z" fill="#1A1D4E"/>
<path fill-rule="evenodd" clip-rule="evenodd" d="M277.739 315.331C279.743 314.557 281.877 313.945 283.031 313.661L283.303 314.767C282.184 315.042 280.099 315.641 278.149 316.393C277.173 316.769 276.244 317.179 275.493 317.6C274.721 318.03 274.212 318.433 273.99 318.767H273.989V318.769C273.795 319.055 273.632 319.599 273.525 320.372C273.421 321.124 273.38 322.014 273.378 322.929C273.372 324.755 273.52 326.62 273.595 327.554C273.635 328.037 273.651 328.293 273.651 328.431H272.513C272.513 328.35 272.502 328.143 272.46 327.648V327.645C272.385 326.714 272.234 324.806 272.24 322.927C272.242 321.987 272.283 321.039 272.397 320.217C272.508 319.417 272.696 318.648 273.045 318.131C273.429 317.56 274.144 317.049 274.94 316.605C275.756 316.148 276.738 315.718 277.74 315.331H277.739Z" fill="#1A1D4E"/>
<path fill-rule="evenodd" clip-rule="evenodd" d="M269.2 335.46C269.817 335.814 270.643 335.953 271.71 336.129C271.71 336.129 273.951 336.148 276.48 337.437C277.394 337.904 278.411 339.187 279.518 341.137C279.289 341.381 279.266 341.249 279.037 341.494C278.609 340.787 277.692 339.485 276.077 338.494C274.168 337.323 272.35 337.24 271.545 337.253C271.517 337.249 271.487 337.244 271.46 337.24C270.481 337.079 269.48 336.916 268.688 336.461C267.812 335.96 267.218 335.128 267.014 333.756L268.077 333.579C268.233 334.632 268.645 335.141 269.2 335.46Z" fill="#1A1D4E"/>
<path fill-rule="evenodd" clip-rule="evenodd" d="M292.006 218.874C291.996 219.037 291.988 219.191 291.957 219.293C291.807 219.786 291.533 220.239 291.249 220.666C280.154 237.288 259.111 236.194 242.437 229.995C239.729 228.987 237.031 227.883 234.563 226.364C233.335 225.609 231.943 224.744 230.973 223.661C230.087 222.671 229.605 221.405 228.55 220.512C228.217 220.78 228.101 221.099 227.926 221.487C227.464 222.505 227.626 221.94 226.13 224.581C225.409 225.854 224.73 227.15 224.094 228.468C223.039 230.654 222.105 232.899 221.301 235.19C221.301 235.19 218.542 240.106 218.448 251.912C218.438 253.086 218.472 254.294 218.931 255.375C219.466 256.632 220.529 257.595 221.682 258.326C224.12 259.874 227.006 260.544 229.855 261.017C236.346 262.094 242.949 262.282 249.528 262.376C270.345 262.674 291.175 262.065 311.939 260.554C311.325 254.83 309.78 246.552 305.635 237.393C301.843 229.01 297.192 222.801 293.565 218.667C292.952 218.142 292.378 217.982 292.172 218.174C292.04 218.296 292.022 218.599 292.006 218.875V218.874Z" fill="#7D5CC6"/>
<path fill-rule="evenodd" clip-rule="evenodd" d="M230.992 219.533C218.069 223.633 206.464 229.093 203.036 230.943L202.496 229.94C205.983 228.058 217.655 222.571 230.649 218.446L230.992 219.533Z" fill="#1A1D4E"/>
<path d="M247.76 214.743C241.389 217.126 233.481 220.817 229.819 225.011C220.332 235.85 218.562 250.87 218.739 261.56C218.93 273.339 221.448 282.789 221.788 283.634L221.135 283.892L220.032 284.56C219.705 284.001 217.037 274.101 216.765 262.105C216.52 250.897 218.331 235.142 228.335 223.717C232.31 219.183 240.722 215.206 247.678 212.701" fill="#1A1D4E"/>
<path d="M272.46 211.505C283.499 215.495 305.456 228.54 306.49 269.039L304.612 267.731C303.863 238.59 290.673 220.275 272.433 213.684" fill="#1A1D4E"/>
<path d="M290.296 304.451L283.612 303.503L284.139 299.807L290.823 300.755C291.703 300.884 292.3 301.682 292.182 302.56L292.099 303.09C291.97 303.971 291.163 304.584 290.295 304.451H290.296Z" fill="white"/>
<path d="M222.117 298.3C227.937 298.3 232.653 293.581 232.653 287.76C232.653 281.938 227.937 277.22 222.117 277.22C216.298 277.22 211.582 281.938 211.582 287.76C211.582 293.581 216.298 298.3 222.117 298.3Z" fill="white"/>
<path fill-rule="evenodd" clip-rule="evenodd" d="M222.117 277.789C216.613 277.789 212.151 282.253 212.151 287.76C212.151 293.267 216.613 297.73 222.117 297.73C227.622 297.73 232.084 293.267 232.084 287.76C232.084 282.253 227.622 277.789 222.117 277.789ZM211.013 287.76C211.013 281.624 215.984 276.651 222.117 276.651C228.251 276.651 233.222 281.624 233.222 287.76C233.222 293.896 228.251 298.869 222.117 298.869C215.984 298.869 211.013 293.896 211.013 287.76Z" fill="#1A1D4E"/>
<path d="M222.131 293.928C218.714 293.928 215.938 291.15 215.938 287.733C215.938 284.315 218.714 281.537 222.131 281.537C225.548 281.537 228.325 284.315 228.325 287.733C228.325 291.15 225.548 293.928 222.131 293.928Z" fill="#1A1D4E"/>
<path fill-rule="evenodd" clip-rule="evenodd" d="M254.194 317.048C255.51 317.955 257.285 318.44 259.542 318.44C261.04 318.44 262.725 318.216 264.615 317.786L264.869 318.897C262.921 319.338 261.148 319.578 259.542 319.578C257.13 319.578 255.107 319.062 253.548 317.985C251.979 316.902 250.933 315.291 250.414 313.209L251.519 312.934C251.981 314.788 252.887 316.145 254.194 317.048Z" fill="#1A1D4E"/>
<path d="M309.868 355.046C307.331 355.046 303.622 354.109 299.664 349.948L300.453 349.197C304.349 353.293 307.921 354.042 310.235 353.95C310.67 353.932 311.11 353.883 311.543 353.804L311.739 354.876C311.257 354.964 310.766 355.019 310.28 355.038C310.148 355.043 310.01 355.046 309.87 355.046H309.868Z" fill="#1A1D4E"/>
<path fill-rule="evenodd" clip-rule="evenodd" d="M276.854 338.418C276.888 340.874 277.951 341.108 279.107 342.341C279.708 342.982 280.358 343.302 280.864 343.459C281.117 343.536 281.334 343.575 281.493 343.594C281.513 343.595 281.532 343.598 281.552 343.599C281.552 343.61 281.552 343.622 281.552 343.635C281.552 343.761 281.552 343.942 281.552 344.162C281.55 344.6 281.554 345.198 281.569 345.838C281.584 346.476 281.613 347.164 281.66 347.782C281.708 348.39 281.777 348.97 281.889 349.374L281.892 349.384L281.895 349.393C281.961 349.607 282.108 349.751 282.22 349.84C282.338 349.934 282.477 350.01 282.616 350.076C282.896 350.206 283.254 350.323 283.649 350.428C284.443 350.639 285.47 350.825 286.51 350.97C287.553 351.116 288.626 351.223 289.513 351.275C289.957 351.301 290.361 351.315 290.696 351.311C291.015 351.307 291.319 351.287 291.537 351.232L291.679 351.195L291.786 351.093C292.656 350.268 293.158 349.313 293.175 348.252C293.191 347.304 292.821 346.475 292.475 345.905C292.125 345.329 291.769 344.966 291.743 344.939L291.634 344.831L289.063 344.152L288.771 345.252L291.032 345.85C291.14 345.973 291.321 346.199 291.502 346.496C291.792 346.973 292.048 347.586 292.037 348.233C292.027 348.874 291.747 349.516 291.122 350.15C291.024 350.16 290.878 350.169 290.682 350.172C290.383 350.175 290.009 350.164 289.58 350.138C288.725 350.089 287.684 349.984 286.668 349.843C285.649 349.7 284.673 349.521 283.942 349.328C283.573 349.23 283.288 349.133 283.098 349.045C283.035 349.015 282.99 348.99 282.962 348.971C282.892 348.676 282.838 348.23 282.796 347.694C282.749 347.104 282.722 346.438 282.707 345.811C282.679 344.656 282.691 343.648 282.694 343.464V343.449L282.728 342.436L281.758 342.472H281.737C281.714 342.47 281.675 342.468 281.626 342.462C281.527 342.451 281.38 342.425 281.204 342.371C280.853 342.262 280.386 342.037 279.94 341.562M265.135 369.009C265.135 369.009 265.135 369.011 265.14 369.013C265.137 369.011 265.135 369.009 265.135 369.009Z" fill="#1A1D4E"/>
<path d="M155.469 310.779L154.395 310.599C155.71 302.713 157.671 294.893 160.224 287.354C161.468 283.68 162.875 280.006 164.408 276.436L165.409 276.866C163.888 280.41 162.49 284.057 161.255 287.704C158.722 295.187 156.776 302.95 155.47 310.779H155.469Z" fill="#1A1D4E"/>
<path d="M356.978 369.735C354.568 369.735 352.142 369.4 349.801 368.735L350.097 367.687C353.722 368.715 357.561 368.921 361.197 368.279C363.094 367.944 367.043 367.248 370.596 364.439C376.682 359.627 377.448 351.817 377.538 349.539L378.625 349.583C378.566 351.083 378.318 353.424 377.47 356.055C376.226 359.917 374.14 363.024 371.271 365.294C367.503 368.274 363.371 369.002 361.386 369.354C359.939 369.608 358.461 369.736 356.977 369.736L356.978 369.735Z" fill="#1A1D4E"/>
<path d="M475.026 99.0134C470.742 93.862 462.347 97.3248 460.8 101.676C459.253 97.3248 450.868 93.8511 446.574 99.0134C440.668 106.123 445.179 115.485 450.024 118.948C453.626 121.512 458.17 124.965 460.387 127.378C460.527 127.53 460.669 127.682 460.787 127.833C460.906 127.682 461.047 127.53 461.188 127.378C463.405 124.955 467.96 121.513 471.561 118.948C476.418 115.485 480.929 106.124 475.023 99.0134H475.026Z" fill="#51AD32"/>
<path fill-rule="evenodd" clip-rule="evenodd" d="M454.171 94.8397C452.358 94.009 450.264 93.6536 448.288 94.1084L448.085 93.2273C450.295 92.7181 452.593 93.1211 454.548 94.0158C456.242 94.792 457.71 95.9535 458.656 97.2608C460.085 95.2604 462.704 93.6577 465.459 93.1674C468.706 92.5901 471.601 93.5542 473.566 95.91C475.94 98.7683 476.95 102.26 476.47 105.987C475.825 110.939 472.741 115.147 469.955 117.139L469.43 116.404C472.031 114.544 474.963 110.55 475.571 105.87C476.022 102.39 475.084 99.1509 472.871 96.4887C471.135 94.408 468.579 93.531 465.617 94.058C462.806 94.5578 460.197 96.3103 459.051 98.3162L458.661 98.9984L458.266 98.3189C457.478 96.9599 455.988 95.6703 454.171 94.8369V94.8397Z" fill="#E9E5F0"/>
<path fill-rule="evenodd" clip-rule="evenodd" d="M441.87 101.817C440.721 107.647 444.117 113.704 447.908 116.403C450.732 118.42 455.869 122.215 458.276 124.841C458.412 124.99 458.547 125.146 458.667 125.288C458.787 125.134 458.925 124.984 459.06 124.841C459.782 124.053 460.802 123.098 462.098 122.009L462.681 122.702C461.401 123.778 460.412 124.705 459.727 125.453V125.456C459.584 125.611 459.47 125.736 459.376 125.857L459.372 125.863L458.672 126.717L457.979 125.871C457.861 125.731 457.738 125.588 457.616 125.456V125.453C455.284 122.909 450.233 119.171 447.389 117.141C443.37 114.277 439.756 107.889 440.987 101.642L441.875 101.817H441.87Z" fill="#E9E5F0"/>
<path fill-rule="evenodd" clip-rule="evenodd" d="M464.457 102.087L468.593 110.023H482.391V110.927H468.043L464.498 104.124L458.928 115.977L453.368 104.124L449.812 110.927H435.465V110.023H449.265L453.411 102.087L458.928 113.848L464.457 102.087Z" fill="#E9E5F0"/>
<path fill-rule="evenodd" clip-rule="evenodd" d="M458.615 74.3264C451.416 74.3264 444.506 76.4848 438.623 80.5768L438.106 79.8347C444.143 75.6364 451.232 73.4222 458.615 73.4222C478.456 73.4222 494.604 89.5765 494.604 109.425C494.604 119.43 490.594 128.737 483.319 135.609L482.699 134.951C489.791 128.251 493.7 119.182 493.7 109.427C493.7 90.0777 477.956 74.3292 458.616 74.3292L458.615 74.3264Z" fill="white"/>
<path fill-rule="evenodd" clip-rule="evenodd" d="M425.934 96.6358C424.332 100.706 423.521 105.01 423.521 109.435C423.521 128.784 439.264 144.532 458.604 144.532C464.214 144.532 469.573 143.249 474.527 140.718L474.938 141.523C469.856 144.121 464.354 145.436 458.604 145.436C438.763 145.436 422.615 129.282 422.615 109.433C422.615 104.897 423.448 100.479 425.091 96.3035L425.933 96.6344L425.934 96.6358Z" fill="#E9E5F0"/>
<path fill-rule="evenodd" clip-rule="evenodd" d="M507.979 170.039C507.979 153.688 494.68 140.395 478.347 140.395V139.491C495.181 139.491 508.883 153.189 508.883 170.039C508.883 186.889 495.19 200.587 478.347 200.587C461.503 200.587 447.811 186.889 447.811 170.039C447.811 159.878 452.841 150.409 461.273 144.709L461.78 145.458C453.596 150.991 448.716 160.18 448.716 170.039C448.716 186.389 462.004 199.682 478.348 199.682C494.692 199.682 507.98 186.389 507.98 170.039H507.979Z" fill="white"/>
<path d="M493.275 168.86L479.558 182.582C476.615 185.526 471.813 185.806 468.741 182.993C465.485 180.007 465.409 174.952 468.492 171.857L482.22 158.124C485.119 155.223 489.825 154.91 492.897 157.614C494.649 159.152 495.525 161.283 495.525 163.415C495.536 165.384 494.779 167.355 493.275 168.858V168.86Z" fill="#6E4F9A"/>
<path fill-rule="evenodd" clip-rule="evenodd" d="M487.611 157.447C485.492 155.581 482.456 155.054 479.707 156.091L479.388 155.245C482.437 154.096 485.827 154.673 488.207 156.767C490.09 158.422 491.174 160.808 491.174 163.319C491.174 165.635 490.271 167.829 488.629 169.472L474.913 183.195C473.128 184.978 470.817 185.881 468.512 185.881C466.424 185.881 464.357 185.139 462.723 183.641C460.955 182.021 459.95 179.805 459.893 177.41C459.836 175.013 460.749 172.751 462.437 171.062L474.066 159.428L474.706 160.068L463.077 171.702C461.562 173.216 460.745 175.239 460.797 177.387C460.847 179.536 461.747 181.52 463.333 182.973C464.793 184.31 466.641 184.974 468.512 184.974C470.579 184.974 472.66 184.166 474.271 182.552L487.988 168.83C489.461 167.356 490.268 165.395 490.268 163.317C490.268 161.068 489.296 158.928 487.61 157.445L487.611 157.447Z" fill="white"/>
<path fill-rule="evenodd" clip-rule="evenodd" d="M375.802 42.8322V88.6859H374.78V42.8322H375.802Z" fill="white"/>
<path fill-rule="evenodd" clip-rule="evenodd" d="M314.272 23.6603V22.6362H362.921C370.019 22.6362 375.804 28.4223 375.804 35.5237H374.781C374.781 28.9887 369.455 23.6603 362.923 23.6603H314.273H314.272Z" fill="white"/>
<path fill-rule="evenodd" clip-rule="evenodd" d="M285.92 99.0774C285.92 105.612 291.246 110.941 297.778 110.941H346.219V111.963H297.778C290.681 111.963 284.896 106.177 284.896 99.076V35.5237C284.896 28.4236 290.68 22.6362 297.778 22.6362V23.6603C291.246 23.6603 285.92 28.9887 285.92 35.5237V99.076V99.0774Z" fill="white"/>
<path d="M333.8 50.4456L340.664 51.8169L335.171 55.9416L336.553 64.1801L329.689 60.0554L322.824 64.1801L324.195 55.9416L318.701 51.8169L325.566 50.4456L329.689 43.5784L333.8 50.4456Z" fill="#F8AF00"/>
<path fill-rule="evenodd" clip-rule="evenodd" d="M327.239 94.6354H333.873V95.658H326.217V77.9636H333.873V78.9863H327.239V94.634V94.6354Z" fill="#1A1D4E"/>
<path fill-rule="evenodd" clip-rule="evenodd" d="M347.477 37.9844V61.8039C347.477 71.2911 339.785 78.9877 330.3 78.9877C320.817 78.9877 313.123 71.2925 313.123 61.8039V37.9844H314.145V61.8039C314.145 70.726 321.38 77.9636 330.299 77.9636C339.217 77.9636 346.452 70.726 346.452 61.8039V37.9844H347.474H347.477Z" fill="#1A1D4E"/>
<path fill-rule="evenodd" clip-rule="evenodd" d="M314.159 61.8039C314.159 70.726 321.394 77.9636 330.312 77.9636C339.231 77.9636 346.466 70.726 346.466 61.8039V37.9844H347.488V61.8039C347.488 71.2911 339.796 78.9876 330.311 78.9876C320.828 78.9876 313.134 71.2925 313.134 61.8039V37.4724H339.597V38.495H314.156V61.8039H314.159Z" fill="white"/>
<path fill-rule="evenodd" clip-rule="evenodd" d="M334.385 78.4756V90.0436H333.363V78.4756H334.385Z" fill="white"/>
<path fill-rule="evenodd" clip-rule="evenodd" d="M326.217 95.1474V78.4756H327.239V95.1474H326.217Z" fill="white"/>
<path fill-rule="evenodd" clip-rule="evenodd" d="M339.918 95.6594H320.867V94.6367H339.918C341.51 94.6367 342.816 95.929 342.816 97.5358C342.816 99.1427 341.525 100.435 339.918 100.435H320.867C319.277 100.435 317.969 99.1427 317.969 97.5358H318.993C318.993 98.5735 319.839 99.411 320.867 99.411H339.918C340.956 99.411 341.793 98.564 341.793 97.5358C341.793 96.5077 340.947 95.6607 339.918 95.6607V95.6594Z" fill="white"/>
<path fill-rule="evenodd" clip-rule="evenodd" d="M334.196 49.4379L341.055 50.8187L335.617 54.8917L336.948 62.8156L330.3 58.8285L323.667 62.8156L324.985 54.8917L319.56 50.8187L326.404 49.4379L330.299 42.952L334.193 49.4379H334.196ZM327.05 50.3517L322.001 51.3702L326.097 54.4464L325.04 60.7962L330.3 57.6342L335.571 60.7962L334.504 54.4464L338.61 51.3702L333.552 50.3517L330.302 44.9401L327.051 50.3517H327.05Z" fill="white"/>
<path fill-rule="evenodd" clip-rule="evenodd" d="M329.113 68.441H331.499V69.4636H329.113V68.441Z" fill="white"/>
<path fill-rule="evenodd" clip-rule="evenodd" d="M324.354 68.441H326.728V69.4636H324.354V68.441Z" fill="white"/>
<path fill-rule="evenodd" clip-rule="evenodd" d="M333.873 68.441H336.259V69.4636H333.873V68.441Z" fill="white"/>
<path fill-rule="evenodd" clip-rule="evenodd" d="M304.628 53.4687C304.628 57.7881 308.132 61.2932 312.449 61.2932H313.636V62.3159H312.449C307.567 62.3159 303.606 58.3532 303.606 53.4687V44.6215H311.569V45.6441H304.628V53.4687Z" fill="white"/>
<path fill-rule="evenodd" clip-rule="evenodd" d="M357.008 53.4687C357.008 58.3532 353.047 62.3159 348.165 62.3159H346.978V61.2932H348.165C352.482 61.2932 355.986 57.7881 355.986 53.4687V45.6441H349.498V44.6215H357.008V53.4687Z" fill="white"/>
<path fill-rule="evenodd" clip-rule="evenodd" d="M40.2367 146.21H80.565V146.877H40.2367V146.21Z" fill="white"/>
<path fill-rule="evenodd" clip-rule="evenodd" d="M32.501 102.055V138.472C32.501 142.735 35.9748 146.211 40.2367 146.211V146.878C35.6073 146.878 31.834 143.104 31.834 138.472V102.055H32.501Z" fill="white"/>
<path d="M64.1475 135.238H53.6282C51.3223 135.238 49.4534 133.37 49.4534 131.062V100.737C49.4534 98.4306 51.3209 96.5609 53.6282 96.5609H64.1475C66.4534 96.5609 68.3223 98.4292 68.3223 100.737V131.062C68.3223 133.369 66.4547 135.238 64.1475 135.238Z" fill="#F8AF00"/>
<path fill-rule="evenodd" clip-rule="evenodd" d="M40.2367 83.5617C35.9761 83.5617 32.501 87.0369 32.501 91.3005H31.834C31.834 86.6692 35.6073 82.8945 40.2367 82.8945H77.9555C82.585 82.8945 86.3582 86.6692 86.3582 91.3005V131.214H85.6912V91.3005C85.6912 87.0382 82.2174 83.5617 77.9555 83.5617H40.2367Z" fill="white"/>
<path fill-rule="evenodd" clip-rule="evenodd" d="M59.1914 88.1767C56.4227 88.1767 54.1781 90.4303 54.1781 93.1919C54.1781 94.9254 55.1051 96.5377 56.5521 97.4446L57.2898 97.9063L56.4323 98.0561C56.2648 98.0847 56.0865 98.1296 55.9137 98.1827H55.9082L55.9028 98.1854C54.5647 98.5436 53.356 99.0951 52.3146 99.8358L51.9281 99.2911C53.0061 98.5245 54.2435 97.9539 55.5979 97.5767C54.3102 96.5146 53.5111 94.9104 53.5111 93.1919C53.5111 90.0613 56.0552 87.5094 59.1928 87.5094C60.26 87.5094 61.304 87.8063 62.2038 88.3755L61.8471 88.9392C61.0549 88.4381 60.1361 88.1767 59.1928 88.1767H59.1914ZM64.2047 93.1838C64.2047 92.3 63.972 91.4244 63.5241 90.6618L64.0999 90.3227C64.609 91.1902 64.8717 92.1829 64.8717 93.1824C64.8717 94.9064 64.0795 96.5132 62.7863 97.5699C64.1407 97.9403 65.3822 98.5204 66.4616 99.2884C67.6009 100.089 68.6136 101.169 69.3786 102.412C70.0592 103.529 70.567 104.757 70.8937 106.058L70.5697 106.139L70.8937 106.056C71.1713 107.144 71.3333 108.275 71.4136 109.616V109.62C71.4626 110.617 71.4463 111.684 71.366 112.978C71.3497 113.261 71.3238 113.543 71.2993 113.814C71.2884 113.931 71.2789 114.046 71.2693 114.159L71.2217 114.705C71.2217 114.703 71.2203 114.702 71.219 114.699L71.2095 114.682L71.2067 114.677C71.2067 114.677 71.2027 114.667 71.1986 114.66C71.1958 114.654 71.1945 114.649 71.1918 114.643C71.1849 114.628 71.1741 114.607 71.1577 114.583L70.88 114.769L71.2122 114.797L71.2203 114.703C71.381 115.025 71.5988 115.405 71.8642 115.828V115.831L71.8669 115.834C72.1106 116.235 72.3706 116.637 72.6373 117.022C73.2131 117.853 73.1315 118.957 72.4345 119.674C72.0479 120.07 71.5334 120.3 70.9726 120.31H70.9345C70.3927 120.31 69.8796 120.1 69.4916 119.731V119.729C68.762 119.023 67.9644 118.217 67.198 117.19L67.1953 117.187L67.1531 117.127C66.9748 116.875 66.7842 116.607 66.5732 116.134C66.5732 116.137 66.5759 116.14 66.5773 116.141L66.8754 115.991L66.5705 116.128C66.5705 116.128 66.5718 116.133 66.5732 116.134C66.5487 116.085 66.5351 116.05 66.5242 116.021C66.5215 116.015 66.5201 116.009 66.5174 116.004L66.5147 115.997L66.4235 115.731C66.3922 115.636 66.3813 115.578 66.3649 115.488V115.49L66.693 115.425L66.3649 115.485C66.3649 115.485 66.3649 115.486 66.3649 115.488V115.485C66.3486 115.409 66.3296 115.313 66.32 115.208V115.206L66.2955 114.883L66.9612 114.834L66.9843 115.15C66.9843 115.15 66.9843 115.149 66.9843 115.147L66.6522 115.177L66.9843 115.153V115.15C66.9897 115.217 67.002 115.279 67.0183 115.36V115.362V115.365C67.0333 115.448 67.0374 115.47 67.0537 115.518L66.7379 115.625L67.0551 115.52L67.1395 115.765C67.1395 115.765 67.1367 115.76 67.1367 115.757L66.8264 115.881L67.1422 115.772L67.1395 115.765C67.1436 115.774 67.1463 115.782 67.149 115.787C67.1585 115.81 67.1612 115.819 67.1735 115.843L67.1762 115.85L67.1789 115.857C67.3654 116.272 67.5247 116.499 67.6962 116.742L67.4253 116.935L67.6976 116.742L67.7343 116.794C67.7343 116.794 67.7343 116.792 67.7329 116.791L67.4662 116.991L67.737 116.798L67.7343 116.795C68.4666 117.778 69.233 118.553 69.9544 119.25L69.7244 119.493L69.9558 119.253C70.2212 119.506 70.571 119.648 70.9386 119.648H70.9672H70.9644L70.9699 119.981V119.648H70.9672C71.3469 119.641 71.694 119.487 71.9608 119.213L72.2004 119.446L71.9622 119.213C72.4305 118.731 72.4931 117.984 72.0942 117.409C71.8193 117.013 71.5525 116.602 71.302 116.189C71.302 116.189 71.302 116.19 71.3034 116.192L71.5851 116.013L71.3007 116.186C71.3007 116.186 71.3007 116.188 71.3007 116.189C71.0298 115.757 70.8025 115.362 70.6296 115.018C70.6337 115.025 70.6391 115.033 70.6446 115.041L70.9222 114.856L70.6241 115.006C70.6241 115.006 70.6282 115.014 70.6309 115.018C70.6228 115.003 70.616 114.992 70.6119 114.981C70.6051 114.967 70.5996 114.955 70.5969 114.948L70.6064 114.961C70.5983 114.95 70.5956 114.94 70.5942 114.939C70.5942 114.939 70.5942 114.94 70.5969 114.947L70.5411 114.863L70.6064 114.108C70.616 113.988 70.6269 113.87 70.6377 113.75C70.6622 113.482 70.6854 113.216 70.7017 112.943C70.7807 111.665 70.797 110.625 70.7494 109.659C70.7494 109.659 70.7494 109.66 70.7494 109.661L71.0829 109.64L70.7494 109.657C70.7494 109.657 70.7494 109.658 70.7494 109.659C70.6704 108.351 70.5139 107.263 70.2484 106.226V106.225C69.9367 104.987 69.4549 103.822 68.811 102.765C68.0923 101.597 67.1408 100.585 66.0777 99.8372C65.035 99.0951 63.8277 98.5367 62.4991 98.1868H62.491L62.4828 98.1813C62.314 98.1269 62.1507 98.0915 61.9764 98.0547C61.9642 98.052 61.9519 98.0492 61.9397 98.0465L61.1325 97.8709L61.8349 97.4351C63.2859 96.5364 64.2061 94.9268 64.2061 93.1838H64.2047ZM49.5786 102.747C48.9348 103.803 48.4529 104.97 48.1412 106.207V106.209C47.8771 107.237 47.7192 108.325 47.6403 109.642C47.5926 110.607 47.609 111.646 47.6879 112.921C47.7192 113.32 47.7519 113.715 47.7914 114.092V114.095L47.854 114.797L47.8322 114.863C47.8254 114.884 47.8172 114.902 47.8118 114.914C47.8063 114.925 47.8009 114.936 47.7982 114.942V114.944L47.7941 114.957L47.7832 114.978C47.6103 115.326 47.3803 115.726 47.0972 116.171C46.8467 116.583 46.5799 116.995 46.2886 117.408C45.902 117.962 45.966 118.711 46.4302 119.196C46.697 119.469 47.0522 119.623 47.4252 119.629C47.8036 119.636 48.163 119.498 48.4311 119.237V119.235C49.1526 118.538 49.9121 117.762 50.654 116.769L50.6594 116.762L50.6962 116.717C50.865 116.48 51.0242 116.253 51.2243 115.816L51.2352 115.791L51.2434 115.779C51.2434 115.779 51.2447 115.774 51.2461 115.771C51.2475 115.765 51.2502 115.759 51.2543 115.752L51.3441 115.482C51.3468 115.471 51.3496 115.463 51.3523 115.456V115.452C51.3564 115.444 51.3577 115.436 51.3604 115.429C51.3645 115.413 51.37 115.391 51.3768 115.358V115.356V115.353C51.3917 115.277 51.4054 115.206 51.4108 115.136L51.5537 112.922C51.6259 111.796 51.7307 110.904 51.8777 110.091C52.0479 109.096 52.2602 108.251 52.5324 107.531C52.851 106.689 53.2076 105.996 53.6241 105.443C53.7589 105.266 53.9045 105.095 54.0692 104.93L54.6382 104.361V120.218L53.65 125.232L52.9952 125.103L53.9712 120.153V106.111C53.6786 106.556 53.409 107.103 53.1559 107.769C52.9027 108.438 52.6999 109.237 52.5338 110.205V110.208C52.3922 110.991 52.2901 111.857 52.2194 112.966L52.0751 115.189V115.195C52.0655 115.3 52.0465 115.401 52.0302 115.484C52.0206 115.537 52.0097 115.578 52.0002 115.612C51.9961 115.628 51.992 115.642 51.9893 115.65C51.9866 115.659 51.9866 115.661 51.9866 115.661L51.9839 115.673L51.8804 115.982L51.8763 115.99C51.8763 115.99 51.875 115.996 51.8736 115.998C51.8654 116.019 51.8491 116.065 51.8233 116.11C51.5987 116.599 51.4108 116.863 51.2325 117.114L51.2257 117.124L51.1835 117.176C50.4117 118.208 49.6249 119.01 48.8953 119.716C48.4938 120.108 47.9588 120.307 47.4116 120.297C46.859 120.288 46.3376 120.059 45.9497 119.661V119.66C45.2663 118.946 45.1697 117.845 45.7414 117.026V117.025C46.0232 116.625 46.2832 116.224 46.5268 115.823V115.82L46.5309 115.817C46.8004 115.394 47.0141 115.019 47.1748 114.701L47.1271 114.16C47.0863 113.773 47.055 113.372 47.0237 112.974V112.97V112.967C46.9433 111.673 46.927 110.606 46.976 109.609V109.606V109.605C47.0563 108.255 47.2183 107.124 47.496 106.045C47.8227 104.745 48.3304 103.517 49.011 102.4L49.5814 102.749L49.5786 102.747ZM63.7569 104.37L64.3259 104.94C64.4906 105.104 64.6349 105.276 64.771 105.453H64.7723L64.7737 105.457C65.1807 106.007 65.536 106.699 65.8613 107.539V107.542C66.1349 108.262 66.3472 109.107 66.516 110.11C66.6617 110.916 66.7679 111.815 66.84 112.933L66.1744 112.977C66.1036 111.876 66.0001 111.003 65.8599 110.229V110.226V110.225C65.6952 109.25 65.4924 108.449 65.2392 107.782C64.982 107.118 64.7124 106.571 64.4239 106.127V120.165L67.4811 135.675C67.4811 135.675 67.4811 135.675 67.4811 135.677C67.5083 135.802 67.5696 135.915 67.6622 136.002C68.1154 136.424 69.071 137.292 70.3778 138.464C70.9753 139.004 71.1768 139.836 70.8896 140.595V140.597C70.601 141.348 69.8932 141.833 69.086 141.833H64.8635C64.1748 141.833 63.731 141.595 63.4806 141.181C63.2628 140.823 63.2233 140.377 63.1933 140.045L63.1906 140.018V140.015C63.1879 139.985 63.1838 139.957 63.1811 139.927C63.1607 139.729 63.1389 139.521 63.1008 139.302L59.1969 124.109L55.2848 139.321C55.2467 139.521 55.2249 139.725 55.2045 139.927C55.2018 139.953 55.199 139.98 55.1963 140.007C55.1963 140.007 55.1963 140.008 55.1963 140.01V140.026C55.165 140.361 55.1242 140.812 54.9036 141.173C54.6518 141.585 54.2094 141.824 53.5234 141.824H49.3009C48.4938 141.824 47.7859 141.34 47.4974 140.587C47.2088 139.836 47.4116 138.994 48.0078 138.456C49.3064 137.284 50.262 136.415 50.7261 135.993C50.8173 135.906 50.8799 135.793 50.9058 135.667V135.666L52.2302 128.939L52.885 129.068L51.5592 135.801C51.5061 136.058 51.3768 136.296 51.1821 136.48H51.1808L51.178 136.484C50.7139 136.908 49.7556 137.778 48.4556 138.952C48.0623 139.307 47.9302 139.856 48.1208 140.349C48.31 140.842 48.7687 141.156 49.3023 141.156H53.5248C54.0366 141.156 54.2326 140.993 54.336 140.824C54.4653 140.612 54.5007 140.318 54.5334 139.943V139.94V139.938C54.5361 139.912 54.5388 139.886 54.5416 139.857C54.5633 139.656 54.5878 139.416 54.6328 139.183V139.172L59.1982 121.426L63.7542 139.159L63.7569 139.171C63.8004 139.419 63.8249 139.656 63.8467 139.857C63.8494 139.887 63.8535 139.916 63.8563 139.944V139.947V139.95C63.8903 140.326 63.923 140.62 64.0509 140.831C64.153 140.998 64.3476 141.163 64.8649 141.163H69.0873C69.6209 141.163 70.0783 140.849 70.2689 140.356C70.4594 139.855 70.326 139.314 69.9354 138.96C68.6259 137.786 67.6662 136.915 67.2089 136.488V136.487C67.0142 136.303 66.8849 136.065 66.8318 135.809L63.761 120.228V104.37H63.7569Z" fill="white"/>
<path d="M129.817 40.4641H80.7814V72.4486H129.817V40.4641Z" fill="#51AD32"/>
<path fill-rule="evenodd" clip-rule="evenodd" d="M72.5584 38.6516V75.3314C72.5584 79.5936 76.0322 83.0701 80.2941 83.0701V83.7374C75.6646 83.7374 71.8914 79.9626 71.8914 75.3314V38.6516H72.5584Z" fill="white"/>
<path fill-rule="evenodd" clip-rule="evenodd" d="M80.2941 26.1468C76.0335 26.1468 72.5584 29.622 72.5584 33.8856H71.8914C71.8914 29.2543 75.6646 25.4796 80.2941 25.4796H122.419V26.1468H80.2941Z" fill="white"/>
<path fill-rule="evenodd" clip-rule="evenodd" d="M140.904 33.8856C140.904 29.6233 137.43 26.1468 133.169 26.1468V25.4796C137.798 25.4796 141.571 29.2543 141.571 33.8856V75.3314C141.571 79.9627 137.798 83.7374 133.169 83.7374H87.4213V83.0702H133.169C137.429 83.0702 140.904 79.595 140.904 75.3314V33.8856Z" fill="white"/>
<path fill-rule="evenodd" clip-rule="evenodd" d="M84.7084 41.337H128.833V69.3193H124.397V68.6521H128.166V42.0056H85.3754V68.6521H120.007V69.3193H84.7084V41.337Z" fill="white"/>
<path fill-rule="evenodd" clip-rule="evenodd" d="M81.6281 38.7102H88.9772V39.3775H82.295V71.2775H131.247V39.3775H94.2681V38.7102H131.913V71.9461H81.6281V38.7102Z" fill="white"/>
<path fill-rule="evenodd" clip-rule="evenodd" d="M95.1148 58.1517H118.42V58.819H95.1148V58.1517Z" fill="white"/>
<path fill-rule="evenodd" clip-rule="evenodd" d="M92.9519 60.4108H120.591V61.0781H92.9519V60.4108Z" fill="white"/>
<path fill-rule="evenodd" clip-rule="evenodd" d="M103.847 62.9069H92.9532V62.2396H103.847V62.9069Z" fill="white"/>
<path fill-rule="evenodd" clip-rule="evenodd" d="M106.795 43.75L107.058 44.0795C107.476 44.5902 108.069 44.9211 108.675 45.1417L109.101 45.2956L103.783 52.3507L103.519 51.9817C102.631 50.7398 102.227 48.8987 102.347 45.8348L102.359 45.508L102.686 45.5134H102.71C102.728 45.5134 102.755 45.5134 102.792 45.5134C102.864 45.5121 102.97 45.5066 103.104 45.4971C103.369 45.4767 103.735 45.4345 104.141 45.346C104.955 45.1648 105.874 44.8026 106.463 44.0959C106.475 44.0755 106.489 44.0605 106.497 44.0509C106.512 44.0346 106.526 44.021 106.53 44.0155L106.794 43.7514L106.795 43.75ZM106.767 44.7509C106.049 45.4685 105.076 45.8212 104.287 45.9969C103.843 46.0949 103.443 46.1412 103.154 46.163C103.1 46.1671 103.049 46.1698 103.004 46.1725C102.934 48.6577 103.241 50.1774 103.814 51.2014L108.035 45.602C107.589 45.4004 107.144 45.1267 106.768 44.7509H106.767Z" fill="white"/>
<path fill-rule="evenodd" clip-rule="evenodd" d="M110.235 45.4753L110.417 45.4903C110.559 45.5025 110.675 45.508 110.752 45.5107C110.792 45.512 110.822 45.5134 110.842 45.5134C110.852 45.5134 110.858 45.5134 110.864 45.5134H111.191L111.203 45.8348C111.312 48.6999 110.958 50.496 110.193 51.727C109.428 52.958 108.286 53.5708 106.969 54.14L106.912 54.1972H106.775C106.69 54.1972 106.626 54.1659 106.61 54.1577C106.602 54.1523 106.591 54.1468 106.58 54.1414C105.95 53.8649 105.363 53.5872 104.834 53.2317L104.541 53.0357L110.235 45.478V45.4753ZM110.547 46.1711L105.505 52.8641C105.887 53.0901 106.308 53.2903 106.778 53.4959C108.039 52.9444 108.991 52.4011 109.628 51.3743C110.264 50.3517 110.618 48.8006 110.548 46.1711H110.547Z" fill="white"/>
<path fill-rule="evenodd" clip-rule="evenodd" d="M115.32 63.4557C114.901 63.63 114.325 63.9568 113.594 64.447L113.223 63.8928C113.967 63.393 114.585 63.0376 115.066 62.8388C115.305 62.7394 115.527 62.6713 115.723 62.6509C115.914 62.6305 116.133 62.6509 116.309 62.7925C116.464 62.9164 116.551 63.0894 116.548 63.295C116.547 63.4734 116.477 63.6477 116.393 63.8056C116.23 64.1148 115.925 64.5165 115.533 65.0258C115.772 64.8623 116.005 64.6989 116.2 64.56V64.5587C116.88 64.0834 117.324 63.7757 117.621 63.6259C117.767 63.5524 117.929 63.4884 118.093 63.4952C118.295 63.502 118.434 63.6082 118.526 63.7294C118.699 63.9582 118.668 64.2305 118.608 64.4525C118.556 64.6404 118.463 64.8664 118.348 65.1333C118.763 64.9577 119.271 64.8065 119.792 64.8705L119.71 65.5337C119.173 65.4683 118.616 65.7311 118.12 65.9803L118.115 65.9831L118.11 65.9858C118.028 66.0225 117.938 66.0675 117.858 66.1083L117.124 66.476L117.394 65.7012C117.448 65.5459 117.532 65.3444 117.603 65.1769C117.622 65.132 117.64 65.0898 117.656 65.0503V65.0475L117.659 65.0448C117.818 64.6867 117.918 64.4497 117.963 64.2809C117.972 64.2468 117.978 64.2182 117.982 64.1965C117.965 64.2046 117.943 64.2142 117.92 64.2251C117.677 64.349 117.283 64.62 116.582 65.1102C116.266 65.3349 115.851 65.6249 115.462 65.8796C115.082 66.1288 114.694 66.3657 114.447 66.4651L113.648 66.781L114.023 66.0076C114.11 65.8292 114.28 65.58 114.452 65.3471C114.615 65.1238 114.795 64.8909 114.937 64.7071C114.947 64.6921 114.958 64.6785 114.969 64.6649M117.986 64.1257C117.986 64.1257 117.984 64.1216 117.986 64.1216C117.986 64.1216 117.986 64.1216 117.986 64.1257ZM115.318 63.4598C115.529 63.3726 115.684 63.3304 115.79 63.3195L115.318 63.4598ZM115.79 63.3195C115.832 63.3154 115.858 63.3168 115.876 63.3195H115.79ZM115.876 63.3195C115.869 63.3508 115.85 63.4066 115.801 63.4992C115.665 63.7553 115.393 64.1175 114.969 64.6663" fill="white"/>
<path d="M201.882 111.913V83.8246C201.882 82.7815 202.975 82.0979 203.909 82.5704L231.986 96.6099C233.019 97.1315 233.019 98.6076 231.986 99.1182L203.909 113.167C202.976 113.629 201.882 112.947 201.882 111.913Z" fill="#6E4F9A"/>
<path fill-rule="evenodd" clip-rule="evenodd" d="M228.146 91.8847L223.432 89.5275L223.808 88.7772L228.523 91.1358C229.86 91.8125 229.868 93.7285 228.522 94.3958L200.446 108.434C199.237 109.033 197.815 108.162 197.815 106.804V104.124H198.653V106.804C198.653 107.534 199.418 108.008 200.074 107.684L228.15 93.6454C228.869 93.2887 228.877 92.2551 228.149 91.8861L228.146 91.8847Z" fill="white"/>
<path d="M205.701 79.4939L205.214 80.4683L220.168 87.9497L220.655 86.9754L205.701 79.4939Z" fill="white"/>
<path fill-rule="evenodd" clip-rule="evenodd" d="M211.167 65.8388C204.491 65.8388 198.084 67.8392 192.627 71.6344L192.148 70.9453C197.747 67.0521 204.32 65 211.167 65C229.565 65 244.539 79.9791 244.539 98.3857C244.539 107.663 240.82 116.294 234.076 122.665L233.5 122.055C240.076 115.843 243.701 107.433 243.701 98.3857C243.701 80.4435 229.102 65.8388 211.167 65.8388Z" fill="white"/>
<path d="M211.157 131.487C192.917 131.487 178.079 116.643 178.079 98.3953H179.168C179.168 116.041 193.517 130.397 211.157 130.397V131.487Z" fill="white"/>
</g>
</svg>
