<svg width="496" height="478" viewBox="0 0 496 478" fill="none" xmlns="http://www.w3.org/2000/svg">
<path fill-rule="evenodd" clip-rule="evenodd" d="M196.701 207.034C204.082 219.116 208.019 231.397 210.117 240.685C211.165 245.33 211.754 249.23 212.083 251.987C212.247 253.366 212.347 254.458 212.405 255.216C212.435 255.596 212.455 255.891 212.467 256.095C212.481 256.323 212.485 256.398 212.485 256.396L211.318 256.525C211.318 256.517 211.315 256.483 211.312 256.424C211.211 254.666 209.829 230.777 195.699 207.647C188.526 195.902 179.045 184.519 165.313 176.697C151.912 169.065 134.417 164.798 110.974 166.959L111.36 167.201L107.79 167.48C90.7569 168.861 67.2829 178.844 53.2979 198.015C42.7849 212.417 39.6389 229.15 43.9659 247.807L42.8239 248.074C38.4239 229.111 41.6199 212.02 52.3499 197.321C66.5689 177.832 90.3809 167.711 107.698 166.308H107.72L107.447 166.135L109.145 165.958C133.656 163.403 151.928 167.719 165.897 175.676C179.857 183.628 189.466 195.188 196.704 207.034H196.701Z" fill="#172351"/>
<path d="M133.618 312.778C133.533 313.397 133.435 314.016 133.323 314.634C133.449 314.016 133.533 313.397 133.618 312.778Z" fill="#7368FE"/>
<path d="M131.625 320.595L131.162 320.412C127.963 328.763 121.705 335.328 113.889 338.758C113.061 339.124 112.205 339.461 111.335 339.757H114.099C114.815 339.447 115.516 339.124 116.204 338.758C119.923 336.818 123.248 334.175 126.012 330.97C127.065 329.761 128.033 328.454 128.917 327.076C130.18 325.122 131.246 323.013 132.102 320.778L131.625 320.595Z" fill="#1A1D4E"/>
<path d="M67.7759 291.539L82.2819 296.074L82.5789 295.122L68.0719 290.586L67.7759 291.539Z" fill="#1A1D4E"/>
<path d="M60.7219 348.459H189.549L176.401 492.965H67.2329L60.7219 348.459Z" fill="#121D3F"/>
<path d="M68.9731 241.91C68.9731 241.91 29.7951 205.414 20.3661 244.904C10.5021 286.194 35.5061 305.426 42.5511 306.832C49.6091 308.237 66.6851 297.3 67.3871 296.949L68.9731 241.91Z" fill="#8C6239"/>
<path d="M121.957 140.506C122.218 143.426 122.48 146.348 122.741 149.268C127.188 147.455 129.738 145.035 131.18 143.314C141.849 130.587 131.725 108.726 125.311 100.271C123.561 97.966 121.514 95.91 118.493 95.029C112.025 93.142 105.891 98.162 105.891 98.162C89.55 94.909 74.883 100.755 70.727 110.478C65.785 122.041 76.811 136.508 80.942 141.928C85.203 147.519 89.741 151.255 92.905 153.53C93.573 153.492 94.334 153.489 95.166 153.555C95.816 153.606 96.412 153.692 96.949 153.793C105.286 149.365 113.622 144.935 121.957 140.506Z" fill="#1A1D4E"/>
<path d="M194.109 360.465C165.667 365.216 70.5861 366.693 54.8141 360.465C60.3711 323.294 59.9221 264.755 59.9221 264.755L42.8171 248.067C30.0901 193.183 84.8851 165.038 113.327 166.163C189.479 169.172 194.348 361.168 194.109 360.465Z" fill="#172351"/>
<path fill-rule="evenodd" clip-rule="evenodd" d="M117.61 441.894L117.189 364.587L118.362 364.581L118.783 441.888L117.61 441.894Z" fill="#1A1D4E"/>
<path d="M107.42 166.135C204.577 154.776 212.477 256.376 212.477 256.376L171.939 257.29C164.895 200.761 107.42 166.135 107.42 166.135Z" fill="#172351"/>
<path fill-rule="evenodd" clip-rule="evenodd" d="M79.5651 363.825C73.7461 363.497 68.5851 363.064 64.3741 362.513C60.1771 361.965 56.8771 361.294 54.8101 360.477L55.2401 359.383C57.1631 360.144 60.3401 360.801 64.5261 361.347C68.6981 361.893 73.8281 362.324 79.6311 362.651C91.2381 363.303 105.513 363.535 120.157 363.425C149.458 363.205 180.171 361.62 193.914 359.323L194.108 360.481C180.264 362.795 149.468 364.381 120.165 364.601C105.508 364.71 91.2061 364.478 79.5651 363.825Z" fill="#1A1D4E"/>
<path d="M98.2289 109.69C98.2429 120.164 113.37 130.244 120.414 131.228C122.14 126.729 131.092 123.172 133.562 130.005C135.765 136.05 130.685 141.758 121.957 138.847C121.957 138.847 128.945 166.838 129.085 168.595C122.137 192.83 117.451 198.455 114.303 198.211C112.059 198.036 109.828 193.774 105.457 185.256C102.346 179.191 100.088 173.888 98.5239 169.903L98.2569 166.95L97.8919 162.93L97.6539 160.427C97.6539 160.427 96.5589 160.568 95.0299 160.666C92.5739 160.807 88.9819 160.793 86.9619 159.795C85.2639 158.951 82.8499 150.066 80.9419 140.239C80.5349 138.159 80.1559 136.05 79.8049 133.969C78.7529 127.755 77.9669 121.837 77.7139 118.139C82.1629 123.707 95.1419 118.308 98.2289 109.69Z" fill="#8C6239"/>
<path fill-rule="evenodd" clip-rule="evenodd" d="M121.956 132.989C124.162 129.575 128.134 128.978 130.764 130.203L130.27 131.269C128.128 130.272 124.804 130.744 122.941 133.628L121.956 132.989Z" fill="#1A1D4E"/>
<path fill-rule="evenodd" clip-rule="evenodd" d="M100.747 126.089C99.0581 124.499 96.681 124.376 95.08 124.975C93.865 125.431 93.2251 126.227 93.1441 127.002L91.9771 126.878C92.1201 125.516 93.1921 124.428 94.6691 123.874H94.6711C96.6061 123.15 99.4771 123.279 101.549 125.232L100.747 126.089Z" fill="#1A1D4E"/>
<path d="M95.5209 130.173C95.9139 129.499 96.7839 129.26 97.4569 129.653C98.1309 130.047 98.3699 130.919 97.9769 131.593C97.5839 132.268 96.7139 132.507 96.0399 132.113C95.3529 131.72 95.1279 130.862 95.5209 130.173Z" fill="#1A1D4E"/>
<path d="M82.85 132.367C83.243 131.692 84.113 131.453 84.787 131.846C85.46 132.24 85.699 133.112 85.306 133.786C84.913 134.461 84.043 134.7 83.369 134.307C82.682 133.913 82.457 133.041 82.85 132.367Z" fill="#1A1D4E"/>
<path fill-rule="evenodd" clip-rule="evenodd" d="M86.216 158.817C86.385 158.989 86.541 159.066 86.828 159.211C88.281 159.932 90.571 160.149 92.727 160.149C93.969 160.149 95.187 160.076 96.117 160C96.582 159.962 96.973 159.922 97.257 159.892C97.4 159.876 97.515 159.862 97.599 159.852C97.641 159.847 97.675 159.842 97.699 159.84C97.711 159.837 97.721 159.835 97.728 159.835C97.735 159.834 97.738 159.834 97.738 159.834L97.932 160.992C97.731 161.026 95.285 161.324 92.727 161.324C90.562 161.324 88.025 161.119 86.306 160.265L86.305 160.264C86.291 160.257 86.275 160.249 86.26 160.242C85.998 160.111 85.687 159.956 85.38 159.643C85.062 159.319 84.774 158.86 84.46 158.148C83.042 154.919 81.335 148.465 79.791 140.463L80.942 140.241C82.485 148.237 84.173 154.576 85.533 157.673C85.822 158.325 86.04 158.639 86.216 158.817Z" fill="#1A1D4E"/>
<path fill-rule="evenodd" clip-rule="evenodd" d="M156.978 228.411H130.253V222.754H156.978V228.411ZM131.426 223.535V227.628H155.805V223.535H131.426Z" fill="white"/>
<path fill-rule="evenodd" clip-rule="evenodd" d="M131.163 325.099L131.329 323.935C131.552 323.967 151.51 326.826 169.026 319.31L169.489 320.39C151.665 328.037 131.441 325.139 131.163 325.099Z" fill="#1A1D4E"/>
<path d="M27.031 272.656L2.50304 201.801C1.08604 197.696 4.13103 193.408 8.56503 192.804H55.895C58.477 193.422 60.876 195.123 62.364 197.668L86.891 268.522C87.705 272.628 84.66 276.915 80.324 276.915H32.995C30.315 276.915 27.915 275.214 27.031 272.656Z" fill="white"/>
<path fill-rule="evenodd" clip-rule="evenodd" d="M47.7419 193.434V192.258H55.7969C58.9789 192.258 61.8109 194.273 62.8619 197.291L81.0609 249.843L79.9529 250.228L61.7529 197.679C60.8679 195.13 58.4799 193.434 55.7969 193.434H47.7419Z" fill="#1A1D4E"/>
<path fill-rule="evenodd" clip-rule="evenodd" d="M84.681 260.26L87.404 268.132C88.21 270.453 87.843 272.927 86.431 274.935C85.015 276.948 82.787 278.093 80.338 278.093H46.353V276.918H80.338C82.408 276.918 84.277 275.955 85.471 274.257C86.67 272.553 86.976 270.474 86.295 268.52L83.573 260.646L84.681 260.26Z" fill="#1A1D4E"/>
<path fill-rule="evenodd" clip-rule="evenodd" d="M27.0381 272.672C27.9251 275.221 30.3121 276.918 32.9951 276.918V278.093C29.8121 278.093 26.9811 276.079 25.9301 273.06L1.40206 202.206C0.595064 199.888 0.963079 197.398 2.37608 195.403C3.79208 193.39 6.01807 192.244 8.46707 192.244H37.3031V193.419H8.46707M8.46707 193.419C6.39707 193.419 4.52807 194.382 3.33407 196.081C2.13707 197.771 1.83106 199.864 2.51206 201.818L27.0401 272.672" fill="#1A1D4E"/>
<path d="M30.5249 234.051C29.9779 237.763 15.2439 237.763 11.2449 237.763C3.40087 237.763 2.20888 228.653 12.9849 228.892C17.1529 228.99 31.0719 230.34 30.5249 234.051Z" fill="#8C6239"/>
<path d="M30.104 241.207C30.104 244.454 17.293 246.085 10.782 244.708C4.28502 243.33 6.82502 234.782 18.528 236.413C24.534 237.257 30.104 238.691 30.104 241.207Z" fill="#8C6239"/>
<path d="M14.0101 243.681C10.2211 245.059 11.4001 250.64 18.1351 250.612C24.8701 250.584 28.0561 247.871 27.0871 245.453C26.0071 242.781 17.7701 242.318 14.0101 243.681Z" fill="#8C6239"/>
<path fill-rule="evenodd" clip-rule="evenodd" d="M6.8881 235.839H6.8901C7.9301 236.973 9.6011 237.63 11.6381 237.63H11.6411C12.3001 237.63 13.2641 237.63 14.4111 237.616C15.4451 237.602 16.4501 237.574 17.3841 237.532C21.5211 237.349 24.5941 236.954 26.6611 236.347C27.6951 236.043 28.4471 235.695 28.9511 235.315C29.4491 234.94 29.6801 234.556 29.7381 234.165L30.6671 234.303C30.5631 235.002 30.1521 235.588 29.5151 236.066C28.8851 236.541 28.0131 236.929 26.9251 237.249C24.7471 237.889 21.5831 238.288 17.4261 238.471C16.4811 238.513 15.4651 238.541 14.4231 238.556H14.4221C13.2701 238.57 12.3001 238.57 11.6411 238.57H11.6381C9.4111 238.57 7.4621 237.851 6.2011 236.48C5.3201 235.534 4.8871 234.352 4.9831 233.156L5.9171 233.232C5.8461 234.143 6.17009 235.07 6.88709 235.839H6.8881Z" fill="#1A1D4E"/>
<path fill-rule="evenodd" clip-rule="evenodd" d="M10.991 244.613C12.494 244.928 14.411 245.096 16.437 245.096C18.922 245.096 21.576 244.862 23.866 244.415C26.178 243.964 28.037 243.309 29.007 242.516C29.553 242.069 29.762 241.627 29.762 241.221H30.699C30.699 241.994 30.291 242.679 29.602 243.244H29.6C28.439 244.194 26.3761 244.882 24.0441 245.337C21.6891 245.797 18.975 246.035 16.437 246.035C14.366 246.035 12.382 245.864 10.799 245.533C8.63504 245.073 7.02304 243.761 6.71304 241.917C6.45504 240.365 7.24305 238.651 8.56505 237.493L9.18304 238.201C8.03504 239.208 7.44805 240.615 7.63905 241.762C7.86405 243.095 9.05804 244.201 10.991 244.613Z" fill="#1A1D4E"/>
<path d="M98.7059 145.835C98.9589 152.259 90.1329 154.452 87.8459 147.817C90.6799 148.731 96.1949 147.395 98.7059 145.835Z" fill="white"/>
<path fill-rule="evenodd" clip-rule="evenodd" d="M88.389 142.685C89.498 143.213 91.095 143.484 93.126 142.684L93.134 142.681L93.143 142.677C93.547 142.504 93.992 142.296 94.455 142.027L93.865 141.01C93.461 141.246 93.067 141.431 92.688 141.593C90.976 142.265 89.72 142.018 88.891 141.624C88.071 141.235 87.638 140.688 87.606 140.647V140.644L87.593 140.627L87.44 140.429L86.511 141.146L86.644 141.32C86.776 141.503 87.359 142.198 88.389 142.685Z" fill="#1A1D4E"/>
<path d="M208.071 256.559C208.071 257.613 207.496 272.22 207.496 272.445C207.355 284.001 204.395 295.936 193.281 297.989C176.752 301.04 136.045 255.603 136.045 255.603C136.045 255.603 132.509 258.077 127.682 254.591C122.855 251.104 119.67 243.836 119.67 243.836H117.341C117.341 243.836 122.308 247.196 118.225 251.104C114.59 254.591 110.254 249.909 110.254 249.909C110.254 249.909 107.799 251.104 105.764 249.066C103.73 247.027 100.979 241.516 100.979 241.516C100.979 241.516 96.6011 237.257 97.3591 232.013C97.7941 229.018 104.249 226.136 104.249 226.136C104.249 226.136 83.313 220.33 81.714 217.715C80.114 215.1 77.055 211.052 89.024 213.287C103.505 215.986 123.136 218.207 125.605 220.429C128.061 222.65 141.139 236.441 143.805 238.184C146.471 239.928 172.837 257.304 172.837 257.304" fill="#8C6239"/>
<path fill-rule="evenodd" clip-rule="evenodd" d="M84.9001 219.549C86.6141 220.319 88.8241 221.144 91.1491 221.941C95.7971 223.533 100.86 224.995 103.244 225.67L104.666 226.072L103.355 226.756C102.398 227.255 100.978 228.058 99.7601 229.024C99.1511 229.506 98.6081 230.018 98.2011 230.541C97.7911 231.065 97.5441 231.57 97.4771 232.041C97.1291 234.452 97.8621 236.644 98.7741 238.328C99.6871 240.009 100.758 241.138 101.016 241.395L101.083 241.463L101.125 241.549C101.29 241.879 102.002 243.275 102.914 244.831C103.836 246.403 104.925 248.076 105.843 249.002C107.242 250.403 108.994 250.266 109.949 249.93L110.288 249.812L110.548 250.061C110.858 250.359 111.482 250.91 112.293 251.392C113.107 251.876 114.071 252.268 115.077 252.302H115.208C116.276 252.302 117.256 251.894 118.142 251.045L118.953 251.894C117.874 252.929 116.61 253.477 115.208 253.477H115.049C113.771 253.438 112.605 252.946 111.696 252.404C110.967 251.971 110.378 251.492 109.991 251.146C108.728 251.484 106.679 251.502 105.012 249.833V249.832C103.979 248.789 102.825 246.996 101.904 245.427C101.037 243.948 100.348 242.611 100.119 242.159C99.7381 241.765 98.6671 240.588 97.7451 238.889C96.7601 237.075 95.9211 234.621 96.3171 231.872C96.4251 231.127 96.7971 230.435 97.2781 229.817C97.7621 229.197 98.3811 228.619 99.0331 228.102C99.8551 227.449 100.755 226.874 101.553 226.409C98.8871 225.641 94.6861 224.394 90.7701 223.053C88.4321 222.252 86.1841 221.414 84.4201 220.621C83.5411 220.225 82.7691 219.834 82.1631 219.459C81.5791 219.097 81.0701 218.704 80.8091 218.276L81.8081 217.66C81.9141 217.835 82.2131 218.108 82.7801 218.459C83.3231 218.795 84.0441 219.162 84.9021 219.549H84.9001Z" fill="#1A1D4E"/>
<path fill-rule="evenodd" clip-rule="evenodd" d="M102.423 225.804L109.72 222.754L110.172 223.839L102.875 226.89L102.423 225.804Z" fill="#1A1D4E"/>
<path fill-rule="evenodd" clip-rule="evenodd" d="M113.309 228.559C113.294 228.563 113.264 228.573 113.217 228.592C113.124 228.63 112.992 228.689 112.822 228.769C112.486 228.931 112.03 229.167 111.491 229.455C110.413 230.033 109.025 230.814 107.628 231.622C106.23 232.43 104.83 233.264 103.73 233.946C103.178 234.287 102.707 234.59 102.35 234.83C101.97 235.084 101.774 235.236 101.724 235.29H101.722L101.719 235.294C101.323 235.696 100.984 236.593 100.846 237.802C100.714 238.979 100.789 240.325 101.097 241.508L99.963 241.806C99.613 240.472 99.533 238.979 99.681 237.67C99.825 236.396 100.201 235.163 100.883 234.47C101.037 234.311 101.344 234.091 101.695 233.854C102.07 233.601 102.555 233.292 103.111 232.946C104.225 232.256 105.637 231.417 107.041 230.604C108.444 229.791 109.845 229.004 110.936 228.419C111.482 228.127 111.955 227.882 112.316 227.709C112.494 227.624 112.654 227.552 112.783 227.5C112.848 227.475 112.912 227.451 112.974 227.432C113.02 227.418 113.118 227.39 113.229 227.39V228.566C113.27 228.566 113.299 228.56 113.313 228.557C113.312 228.557 113.311 228.559 113.309 228.559ZM113.313 228.557C113.313 228.557 113.32 228.556 113.319 228.556C113.319 228.556 113.318 228.557 113.313 228.557Z" fill="#1A1D4E"/>
<path fill-rule="evenodd" clip-rule="evenodd" d="M107.716 238.899C107.32 239.218 107.002 239.5 106.775 239.736C106.661 239.853 106.577 239.952 106.521 240.029C106.466 240.103 106.452 240.139 106.452 240.139V240.143C106.452 240.143 106.449 240.151 106.446 240.174C106.443 240.195 106.442 240.227 106.443 240.268C106.443 240.352 106.456 240.463 106.48 240.602C106.528 240.881 106.619 241.235 106.751 241.648C107.012 242.476 107.413 243.491 107.865 244.544C108.766 246.645 109.848 248.839 110.357 249.856L109.31 250.384C108.795 249.362 107.702 247.142 106.786 245.008C106.33 243.943 105.91 242.886 105.632 242.004C105.492 241.564 105.383 241.155 105.322 240.801C105.266 240.472 105.235 240.105 105.329 239.8C105.423 239.483 105.682 239.175 105.931 238.917C106.206 238.634 106.566 238.318 106.978 237.983C107.805 237.316 108.884 236.542 110.012 235.772C112.272 234.233 114.773 232.679 115.939 231.962L116.553 232.963C115.39 233.68 112.909 235.219 110.673 236.745C109.553 237.507 108.505 238.259 107.716 238.899Z" fill="#1A1D4E"/>
<path fill-rule="evenodd" clip-rule="evenodd" d="M84.6931 129.409C83.0041 127.819 80.6271 127.695 79.0261 128.294C77.8111 128.751 77.1711 129.546 77.0901 130.321L75.9231 130.197C76.0661 128.835 77.1381 127.747 78.6151 127.193H78.6171C80.5521 126.469 83.4231 126.598 85.4951 128.551L84.6931 129.409Z" fill="#1A1D4E"/>
<path fill-rule="evenodd" clip-rule="evenodd" d="M170.296 247.989C184.026 247.911 197.756 247.833 211.486 247.755C211.339 246.903 211.192 246.053 211.043 245.201C197.021 245.138 182.999 245.076 168.977 245.013C169.416 246.005 169.857 246.997 170.296 247.989Z" fill="white"/>
<path d="M99.239 166.737C99.388 167.243 99.39 167.794 99.405 168.327C99.684 178.177 105.973 186.788 110.782 194.957C110.984 195.302 111.193 195.718 111.026 196.081C110.838 196.488 110.306 196.569 109.86 196.594C102.677 196.999 92.779 198.16 87.631 191.799C85.714 189.431 84.917 186.305 84.885 183.255C84.846 179.644 85.142 175.471 87.422 172.51C89.766 169.467 93.318 167.607 96.655 165.865C97.558 165.394 98.546 165.248 99.091 166.35C99.152 166.475 99.202 166.603 99.239 166.735V166.737Z" fill="#172351"/>
<path d="M102.065 197.511C96.4721 197.511 90.7851 196.59 87.1941 192.154C84.8691 189.282 84.35 185.734 84.322 183.262C84.284 179.752 84.551 175.318 86.977 172.167C89.403 169.018 93.117 167.078 96.395 165.367C97.178 164.96 97.87 164.849 98.452 165.04C98.941 165.2 99.325 165.557 99.593 166.101C99.666 166.249 99.7281 166.409 99.7771 166.576C99.9341 167.109 99.9481 167.65 99.9621 168.173L99.9661 168.31C100.199 176.518 104.673 183.837 108.999 190.914C109.754 192.15 110.535 193.428 111.266 194.669C111.453 194.987 111.843 195.648 111.536 196.314C111.183 197.08 110.245 197.134 109.891 197.153C109.354 197.184 108.801 197.218 108.237 197.253C106.272 197.376 104.174 197.508 102.065 197.508V197.511ZM97.8631 166.074C97.6061 166.074 97.2831 166.173 96.9141 166.365C93.5851 168.104 90.1411 169.901 87.8671 172.855C85.6511 175.73 85.4101 179.921 85.4461 183.25C85.4711 185.543 85.947 188.825 88.067 191.444C92.647 197.103 101.253 196.564 108.168 196.133C108.735 196.098 109.291 196.062 109.829 196.032C110.403 195.999 110.501 195.88 110.517 195.845C110.545 195.784 110.53 195.631 110.299 195.241C109.573 194.007 108.794 192.733 108.042 191.502C103.638 184.298 99.0871 176.849 98.8451 168.342L98.8411 168.203C98.8281 167.732 98.817 167.286 98.702 166.894C98.671 166.787 98.6331 166.69 98.5881 166.599C98.4561 166.332 98.2981 166.171 98.1041 166.108C98.0331 166.084 97.9511 166.073 97.8631 166.073V166.074Z" fill="white"/>
<path d="M128.77 166.313C128.767 166.942 128.997 167.655 128.987 168.189C128.92 171.585 127.552 174.663 126.228 177.732C123.718 183.555 120.554 189.087 117.341 194.543C117.139 194.887 116.929 195.303 117.096 195.666C117.284 196.074 117.816 196.154 118.264 196.179C123.183 196.456 128.503 196.754 133.316 195.513C136.615 194.662 139.8 192.822 141.547 189.892C143.941 185.879 143.44 180.39 142.389 176.025C141.087 170.617 135.95 166.921 130.923 165.238C130.354 165.047 129.668 164.899 129.198 165.276C128.872 165.537 128.772 165.907 128.77 166.313Z" fill="#172351"/>
<path d="M124.808 196.986C122.562 196.986 120.336 196.861 118.233 196.741C117.879 196.722 116.941 196.668 116.589 195.902C116.283 195.236 116.671 194.575 116.858 194.257C119.945 189.016 123.17 183.407 125.714 177.508L125.823 177.256C127.072 174.363 128.363 171.37 128.426 168.178C128.43 167.971 128.382 167.695 128.332 167.403C128.27 167.049 128.207 166.682 128.208 166.311C128.211 165.671 128.426 165.175 128.845 164.837C129.546 164.276 130.468 164.493 131.1 164.705C133.874 165.634 136.407 167.054 138.421 168.812C140.78 170.87 142.298 173.253 142.933 175.894C143.933 180.044 144.586 185.891 142.027 190.182C140.36 192.975 137.316 195.063 133.455 196.058C130.684 196.772 127.726 196.985 124.806 196.985L124.808 196.986ZM129.332 166.316C129.332 166.586 129.386 166.904 129.439 167.21C129.496 167.542 129.555 167.884 129.55 168.199C129.482 171.613 128.147 174.709 126.854 177.702L126.746 177.954C124.177 183.912 120.931 189.558 117.828 194.828C117.597 195.218 117.582 195.371 117.61 195.431C117.627 195.466 117.725 195.586 118.299 195.618C123.054 195.887 128.444 196.19 133.18 194.969C136.754 194.048 139.555 192.142 141.069 189.604C142.374 187.415 143.568 183.306 141.847 176.157C141.266 173.746 139.867 171.56 137.688 169.659C135.784 167.998 133.385 166.654 130.75 165.772C130.148 165.571 129.756 165.551 129.551 165.716C129.446 165.802 129.337 165.939 129.334 166.318L129.332 166.316Z" fill="white"/>
<path d="M113.285 150.713C113.692 150.291 114.085 149.855 114.492 149.405C114.38 149.855 110.732 164.082 98.2151 166.346L97.8501 162.325L97.6121 159.823C97.6121 159.837 105.119 159.303 113.285 150.713Z" fill="#1A1D4E"/>
<path d="M141.748 144.54C141.821 148.269 139.15 151.881 135.57 152.9C131.989 153.919 127.822 152.251 125.928 149.04C125.562 148.42 125.269 147.703 125.395 146.993C125.568 146.019 126.456 145.362 127.272 144.805C129.835 143.058 132.558 141.027 133.33 138.018C133.604 136.952 133.629 135.293 135.019 135.298C136.031 135.3 137.559 136.792 138.254 137.429C140.248 139.258 141.696 141.784 141.749 144.54H141.748Z" fill="#1A1D4E"/>
<path d="M306.167 346.004H419.068L411.561 485.408H305.227L306.167 346.004Z" fill="#3B569E"/>
<path d="M277.188 257.827C280.055 200.813 318.561 165.445 366.261 169.448C424.114 174.301 446 216.333 453.611 238.685C453.767 239.109 453.893 239.534 454.035 239.944C453.089 244.259 452.312 250.328 451.762 255.464L419.765 272.511C419.765 272.511 421.276 357.154 421.446 357.833C400.886 370.197 333.842 368.387 302.761 350.35C303.947 342.356 311.248 268.154 311.248 268.154L277.188 257.827Z" fill="#3F58A0"/>
<path fill-rule="evenodd" clip-rule="evenodd" d="M452.733 234.413L451.633 234.821C443.336 212.373 421.317 174.12 366.736 169.537C345.522 167.751 324.135 175.084 306.506 190.217C287.086 206.86 280.818 231.991 279.025 257.209L277.855 257.125C279.653 231.817 285.958 206.281 305.743 189.324C323.587 174.007 345.278 166.551 366.834 168.364C422.066 173.003 444.36 211.763 452.733 234.413Z" fill="#1A1D4E"/>
<path fill-rule="evenodd" clip-rule="evenodd" d="M418.919 271.971C418.119 263.473 417.321 256.396 416.396 249.714L417.558 249.553C418.485 256.255 419.286 263.349 420.086 271.861L418.919 271.971Z" fill="#1A1D4E"/>
<path d="M451.776 254.962C451.215 260.234 450.92 264.521 451.018 264.887C451.257 265.857 457.305 269.076 466.018 272.718C471.589 275.037 472.249 275.346 476.36 275.796C470.789 304.391 471.056 319.813 460.967 328.895C447.496 340.999 427.094 325.099 425.101 310.703C424.147 303.899 422.533 291.542 421.369 282.587C420.569 276.429 419.98 271.888 419.98 271.888L451.776 254.962Z" fill="#E3B7AC"/>
<path fill-rule="evenodd" clip-rule="evenodd" d="M453.221 267.973C453.214 267.988 453.206 268.008 453.195 268.033C453.171 268.082 453.14 268.151 453.101 268.238C453.024 268.413 452.915 268.657 452.779 268.963C452.744 269.044 452.705 269.13 452.666 269.221C452.408 269.802 452.072 270.557 451.681 271.435C450.776 273.467 449.566 276.162 448.289 278.929C447.014 281.694 445.669 284.534 444.498 286.85C443.913 288.009 443.367 289.041 442.894 289.87C442.427 290.687 442.011 291.341 441.684 291.716L440.932 291.058C441.188 290.766 441.561 290.192 442.028 289.374C442.49 288.566 443.026 287.549 443.608 286.399C444.771 284.098 446.11 281.271 447.384 278.51C448.658 275.748 449.866 273.058 450.77 271.028C451.139 270.202 451.459 269.481 451.713 268.908C452.076 268.087 452.305 267.572 452.343 267.498L453.23 267.956C453.23 267.956 453.227 267.96 453.221 267.973Z" fill="#1A1D4E"/>
<path d="M369.254 108.445C369.661 108.248 371.163 120.985 371.163 120.985L367.753 137.236C367.753 137.236 352.43 140.442 350.423 134.523C348.431 128.59 349.427 121.575 349.427 120.971C349.427 120.971 368.861 108.642 369.254 108.445Z" fill="#1A1D4E"/>
<path d="M400.363 125.765C414.465 111.172 403.029 104.438 399.619 101.176C383.707 85.951 370.447 88.679 356.724 101.415C353.356 104.551 346.523 107.025 345.414 112.044C344.32 117.063 349.175 125.751 349.175 125.751C354.338 122.602 362.379 118.511 362.379 118.511C362.379 118.511 386.275 140.343 400.363 125.765Z" fill="#EAAC3D"/>
<path fill-rule="evenodd" clip-rule="evenodd" d="M362.964 96.671L362.299 95.701C368.172 91.662 373.881 89.782 379.611 90.145C385.338 90.506 391.005 93.1 396.806 97.853L396.062 98.764C390.385 94.112 384.946 91.659 379.538 91.317C374.135 90.977 368.682 92.739 362.964 96.671Z" fill="#1A1D4E"/>
<path fill-rule="evenodd" clip-rule="evenodd" d="M402.712 103.05C404.756 104.943 407.594 108.079 407.713 112.591C407.831 116.946 405.329 121.677 400.533 126.65H400.531C397.092 130.214 392.758 132.004 387.762 132.004C383.852 132.004 379.542 130.906 374.927 128.744C368.534 125.753 362.929 121.61 361.148 120.14C361.082 120.174 361.013 120.209 360.94 120.245C358.904 121.286 354.236 123.673 350.209 126.126L349.177 126.759L348.602 125.692C348.597 125.683 348.591 125.671 348.581 125.654C348.307 125.15 345.668 120.289 344.809 115.695L345.963 115.478C346.784 119.87 349.33 124.574 349.614 125.097C349.617 125.101 349.619 125.105 349.621 125.108C353.684 122.635 358.381 120.234 360.409 119.198C360.623 119.088 360.808 118.993 360.96 118.915L361.314 118.734L361.614 118.996C362.884 120.103 368.718 124.542 375.424 127.678C379.93 129.79 384.068 130.829 387.762 130.829C392.449 130.829 396.478 129.16 399.688 125.834C404.406 120.94 406.645 116.504 406.54 112.621C406.435 108.613 403.912 105.761 401.915 103.914L402.712 103.05Z" fill="#1A1D4E"/>
<path d="M352.486 133.342C352.486 133.342 364.231 131.472 362.379 118.539C371.808 111.256 392.196 110.497 400.139 117.667C400.545 122.489 400.377 130.882 399.928 138.994C399.353 149.594 398.3 159.744 397.472 160.925C395.283 164.074 388.534 164.664 383.946 164.566C382.641 164.552 381.504 164.468 380.704 164.369C380.704 164.369 380.508 167.096 380.115 170.499C380.073 170.892 380.031 171.314 379.975 171.722C379.429 175.682 378.59 179.805 378.445 180.438C378.294 181.1 371.463 210.95 365.936 210.471C362.704 210.19 363.237 199.834 356.011 182.513C355.304 180.819 353.887 178.946 353.75 175.939C353.372 167.56 352.488 148.835 352.488 148.835C348.124 150.437 339.733 148.272 339.733 140.414C339.733 129.94 348.839 130.024 352.488 133.342H352.486Z" fill="#E3B7AC"/>
<path fill-rule="evenodd" clip-rule="evenodd" d="M385.728 113.445C376.983 112.82 368.019 115.027 362.905 118.976L362.189 118.045C367.599 113.868 376.876 111.633 385.812 112.273L385.728 113.445Z" fill="#1A1D4E"/>
<path fill-rule="evenodd" clip-rule="evenodd" d="M396.413 116.149C394.404 115.087 391.941 114.303 389.084 113.833L389.275 112.672C392.227 113.158 394.816 113.977 396.96 115.108L396.413 116.149Z" fill="#1A1D4E"/>
<path fill-rule="evenodd" clip-rule="evenodd" d="M392.434 125.642C390.698 126.116 389.297 127.608 388.823 129.558C388.124 132.466 389.553 135.987 393.041 139.22L393.612 139.735L393.353 140.454C393.238 140.788 391.694 144.64 386.808 145.849L386.528 144.707C388.719 144.164 390.138 143.028 391.016 142.013C391.457 141.506 391.763 141.027 391.959 140.668C392.058 140.489 392.129 140.342 392.175 140.236C392.213 140.152 392.234 140.099 392.241 140.08C388.607 136.709 386.84 132.781 387.684 129.282C388.248 126.958 389.936 125.104 392.128 124.509C394.169 123.954 396.262 124.618 397.849 126.238" fill="#1A1D4E"/>
<path fill-rule="evenodd" clip-rule="evenodd" d="M373.893 123.941C376.656 124.179 379.07 125.613 379.892 127.792L378.795 128.208C378.186 126.591 376.277 125.326 373.794 125.114C370.926 124.878 368.473 126.106 367.151 128.38L366.138 127.789C367.707 125.087 370.614 123.671 373.891 123.941H373.893Z" fill="#1A1D4E"/>
<path d="M394.007 132.316C394.007 131.353 393.228 130.573 392.267 130.573C391.306 130.573 390.527 131.353 390.527 132.316C390.527 133.279 391.306 134.059 392.267 134.059C393.228 134.059 394.007 133.279 394.007 132.316Z" fill="#1A1D4E"/>
<path d="M374.502 131.262C375.456 131.262 376.242 132.049 376.242 133.005C376.242 133.961 375.456 134.748 374.502 134.748C373.548 134.748 372.762 133.961 372.762 133.005C372.762 132.035 373.548 131.262 374.502 131.262Z" fill="#1A1D4E"/>
<path d="M384.002 164.074C384.002 164.074 383.988 164.243 383.96 164.566C382.655 164.552 381.518 164.468 380.718 164.369C380.718 164.369 380.522 167.096 380.129 170.499C372.776 170.499 362.28 165.859 359.151 156.229C364.161 158.352 376.018 163.708 384.002 164.074Z" fill="#1A1D4E"/>
<path fill-rule="evenodd" clip-rule="evenodd" d="M382.228 153.321C380.881 153.149 379.427 152.703 378.107 151.75C376.784 150.793 375.626 149.345 374.85 147.223L375.95 146.819C376.655 148.739 377.675 149.987 378.795 150.796C379.919 151.61 381.174 152.001 382.377 152.155C384.771 152.46 386.877 151.809 387.079 151.747C387.082 151.746 387.083 151.746 387.085 151.745L387.43 152.869C387.43 152.869 387.424 152.871 387.421 152.871C387.176 152.947 384.875 153.658 382.228 153.321Z" fill="#1A1D4E"/>
<path d="M281.793 258.378C275.198 282.446 303.038 317.943 315.61 332.114C319.006 353.554 332.182 363.38 335.03 360.484C337.851 357.588 339.142 360.597 342.86 359.514C346.565 358.432 343.927 353.792 347.729 354.538C351.532 355.283 353.328 352.26 353.033 351.149C352.739 350.053 353.595 346.848 355.7 348.478C359.825 351.656 365.101 347.396 364.245 345.329C363.599 343.769 357.678 338.82 357.678 338.82C356.92 336.29 359.657 330.006 357.874 326.674C356.078 323.356 334.876 315.75 334.876 315.75C322.275 298.712 311.78 270.538 312.102 267.558L312.271 267.446" fill="#E3B7AC"/>
<path fill-rule="evenodd" clip-rule="evenodd" d="M358.993 334.236C358.986 334.285 358.977 334.336 358.969 334.385C358.959 334.444 358.949 334.502 358.939 334.559C358.809 335.338 358.684 336.076 358.613 336.735C358.544 337.368 358.528 337.887 358.586 338.273C359.196 338.789 360.578 339.973 361.92 341.23C362.644 341.909 363.361 342.612 363.939 343.247C364.503 343.864 364.986 344.469 365.182 344.936L365.184 344.939C365.582 345.899 365.261 346.991 364.535 347.933C364.22 348.359 363.806 348.739 363.361 349.097L363.357 349.101L363.352 349.104C361.426 350.589 358.068 351.585 355.091 349.287C354.801 349.063 354.65 349.044 354.611 349.044C354.59 349.044 354.587 349.045 354.574 349.053C354.573 349.055 354.571 349.056 354.569 349.058L354.564 349.06L354.561 349.063C354.5 349.105 354.416 349.197 354.327 349.354C354.242 349.508 354.167 349.697 354.11 349.903C353.989 350.331 353.974 350.724 354.02 350.902C354.152 351.393 354.076 351.947 353.881 352.467C353.684 352.994 353.351 353.525 352.911 353.988C351.592 355.402 349.625 355.953 347.541 355.547L347.721 354.625C349.537 354.978 351.162 354.488 352.228 353.345L352.229 353.343C352.59 352.963 352.852 352.537 353.003 352.138C353.155 351.73 353.178 351.386 353.113 351.145L353.112 351.143C353.005 350.729 353.067 350.146 353.206 349.648C353.279 349.389 353.379 349.128 353.508 348.896C353.634 348.67 353.804 348.445 354.027 348.29C354.111 348.231 354.313 348.097 354.63 348.103C354.938 348.11 355.279 348.245 355.663 348.542C358.185 350.487 361.054 349.687 362.776 348.362C363.197 348.022 363.539 347.7 363.783 347.369L363.786 347.365L363.789 347.361C364.408 346.562 364.535 345.828 364.316 345.3C364.19 345.002 363.817 344.507 363.247 343.881C362.692 343.273 361.994 342.588 361.279 341.917C359.85 340.578 358.37 339.319 357.853 338.885L357.731 338.782L357.696 338.626C357.574 338.068 357.599 337.368 357.679 336.634C357.755 335.945 357.883 335.181 358.012 334.412C358.023 334.351 358.033 334.291 358.043 334.23C358.05 334.188 358.057 334.147 358.064 334.105C358.283 332.779 358.51 331.413 358.554 330.121C358.6 328.787 358.448 327.592 357.939 326.644L358.764 326.197C359.39 327.358 359.541 328.75 359.492 330.153C359.446 331.507 359.21 332.928 358.993 334.236Z" fill="#1A1D4E"/>
<path fill-rule="evenodd" clip-rule="evenodd" d="M357.73 338.764L351.626 333.309L352.252 332.606L358.356 338.061L357.73 338.764Z" fill="#1A1D4E"/>
<path fill-rule="evenodd" clip-rule="evenodd" d="M417.645 360.345L417.632 360.351C417.622 360.356 417.607 360.363 417.587 360.373C417.548 360.392 417.49 360.42 417.415 360.453C417.263 360.524 417.037 360.625 416.737 360.75C416.138 361.002 415.245 361.353 414.058 361.754C411.683 362.555 408.134 363.56 403.416 364.379C393.98 366.014 379.875 366.903 361.155 363.943L361.301 363.015C379.92 365.959 393.921 365.07 403.256 363.451C407.923 362.642 411.427 361.65 413.758 360.862C414.923 360.469 415.795 360.126 416.375 359.883C416.664 359.762 416.88 359.665 417.023 359.6C417.095 359.566 417.147 359.541 417.182 359.526C417.199 359.517 417.211 359.51 417.22 359.507L417.228 359.502H417.232L421.445 357.46L421.854 358.307L417.646 360.344L417.645 360.345Z" fill="#1A1D4E"/>
<path d="M359.756 212.626C358.688 209.275 357.647 205.864 356.662 202.491C355.053 196.981 353.53 191.364 352.14 185.798L353.228 185.526C354.616 191.077 356.133 196.68 357.74 202.177C358.723 205.542 359.762 208.943 360.827 212.286L359.757 212.628L359.756 212.626Z" fill="#1A1D4E"/>
<path d="M374.018 211.808L372.949 211.466C374.014 208.123 375.052 204.722 376.036 201.357C377.641 195.86 379.159 190.258 380.547 184.706L381.636 184.979C380.246 190.545 378.725 196.161 377.114 201.672C376.129 205.046 375.087 208.455 374.02 211.807L374.018 211.808Z" fill="#1A1D4E"/>
<path fill-rule="evenodd" clip-rule="evenodd" d="M364.37 162.246C367.549 164.122 370.969 164.934 375.027 165.048C381.239 165.222 387.48 165.615 393.692 165.57C394.126 165.567 395.201 165.57 396.493 165.082C396.493 165.082 397.213 164.811 397.879 164.392C400.864 162.516 402.238 156.846 402.238 156.846C403.557 150.217 402.591 144.295 401.041 137.89C401.194 138.523 393.986 140.582 393.288 140.736C388.875 141.704 384.297 141.676 379.888 140.693C376.187 139.868 371.412 138.627 368.238 136.251C367.329 141.086 365.595 145.646 363.201 149.5C361.864 151.65 356.86 155.677 359.512 158.372C361.103 159.99 362.703 161.264 364.368 162.246H364.37Z" fill="#97CAEC"/>
<path d="M371.302 140.636C370.287 140.641 369.433 139.936 368.547 139.441C366.918 138.53 365.014 138.282 363.162 138.053C358.157 137.432 357.553 138.308 355.57 137.111C354.699 136.585 352.753 135.412 352.409 133.72C352.283 133.099 352.221 132.818 352.085 132.6C351.988 132.444 351.881 132.35 351.83 132.3C350.37 130.906 349.641 130.209 348.472 129.683C347.505 129.248 347.084 129.296 346.834 129.365C346.342 129.5 346.046 129.854 345.936 130C345.439 130.664 345.592 131.426 345.619 131.548" stroke="#97CFF6" stroke-width="2" stroke-miterlimit="10"/>
<path d="M360.811 156.697C360.243 156.637 359.805 156.231 359.46 155.823C357.939 154.025 355.084 154.493 353.003 153.471C350.696 152.336 350.772 151.369 350.457 149.287" stroke="#97CFF6" stroke-width="2" stroke-miterlimit="10"/>
<path d="M393.894 161.697L393.412 160.682C394.707 160.064 397.095 158.601 398.55 155.739C399.256 154.351 399.645 152.84 399.706 151.248L400.828 151.292C400.759 153.046 400.329 154.715 399.549 156.249C397.944 159.408 395.317 161.018 393.894 161.697Z" fill="#1A1D4E"/>
<path d="M361.158 155.214L360.466 154.329C363.02 152.327 365.042 149.958 366.476 147.288C367.611 145.177 368.344 142.929 368.654 140.606L369.766 140.755C369.438 143.211 368.664 145.588 367.465 147.821C365.957 150.628 363.834 153.117 361.158 155.214Z" fill="#1A1D4E"/>
<path d="M385.99 144.704C381.865 144.704 375.872 143.266 375.193 143.099L375.459 142.006C375.724 142.071 381.927 143.58 385.993 143.58C386.055 143.58 386.115 143.58 386.175 143.58C388.08 143.557 390.426 143.346 390.45 143.343C391.169 143.277 391.895 143.199 392.609 143.107L392.751 144.223C392.024 144.316 391.284 144.396 390.552 144.464C390.454 144.472 388.138 144.682 386.189 144.704C386.125 144.704 386.058 144.704 385.992 144.704H385.99Z" fill="#1A1D4E"/>
<path d="M276.388 181.229C276.175 177.495 278.795 172.777 279.777 170.906C282.647 165.433 282.778 159.43 282.828 153.64C282.833 152.955 281.708 139.604 271.456 131.252C266.435 127.161 261.206 126.171 259.123 125.801C252.404 124.612 245.613 127.09 242.679 129.007C241.927 129.497 241.895 130.592 242.616 131.127C245.592 133.33 247.995 135.667 251.179 137.821C255.189 140.533 259.237 143.277 262.523 146.834C265.95 150.543 270.411 156.46 271.915 161.331C273.442 166.274 273.426 175.125 271.434 179.957C270.168 183.026 267.775 185.606 266.586 188.835C264.534 194.401 266.17 195.866 264.485 199.649C261.409 206.557 253.628 207.856 254.152 209.758C254.549 211.196 259.042 210.599 267.533 210.797C279.263 211.073 287.058 211.151 287.193 210.028C287.311 209.045 281.312 209.076 278.349 204.486C276.655 201.863 276.708 198.902 276.746 196.9C276.853 191.069 279.583 189.753 278.896 185.008C278.473 182.095 276.547 184.035 276.387 181.228L276.388 181.229Z" fill="#1A1D4E"/>
<path d="M213.385 180.372C213.598 176.638 210.978 171.92 209.996 170.049C207.127 164.576 206.995 158.573 206.946 152.782C206.94 152.098 208.065 138.746 218.317 130.394C223.338 126.303 228.567 125.313 230.65 124.944C237.37 123.754 244.16 126.233 247.094 128.149C247.846 128.64 247.878 129.735 247.157 130.269C244.181 132.472 241.778 134.81 238.595 136.964C234.584 139.676 230.536 142.42 227.25 145.976C223.823 149.685 219.362 155.602 217.858 160.474C216.332 165.416 216.347 174.268 218.34 179.1C219.605 182.169 221.998 184.748 223.188 187.977C225.239 193.543 223.603 195.008 225.288 198.791C228.364 205.7 236.145 206.999 235.621 208.901C235.224 210.339 230.731 209.741 222.24 209.94C210.51 210.215 202.715 210.294 202.58 209.171C202.462 208.188 208.461 208.219 211.425 203.629C213.118 201.005 213.065 198.045 213.027 196.043C212.92 190.211 210.19 188.895 210.877 184.151C211.3 181.238 213.226 183.178 213.386 180.37L213.385 180.372Z" fill="#1A1D4E"/>
<path d="M193.712 283.703L193.881 283.815C194.203 286.796 183.707 314.969 171.107 332.008C171.107 332.008 149.905 339.613 148.108 342.931C146.326 346.263 149.063 352.547 148.305 355.077C148.305 355.077 142.383 360.026 141.738 361.587C140.882 363.653 146.158 367.913 150.283 364.736C152.388 363.105 153.244 366.31 152.949 367.407C152.655 368.517 154.451 371.54 158.254 370.795C162.056 370.05 159.418 374.689 163.123 375.772C166.841 376.854 168.132 373.845 170.952 376.742C173.801 379.638 186.977 369.811 190.373 348.372C202.945 334.201 230.785 298.703 224.19 274.635" fill="#E3B7AC"/>
<path fill-rule="evenodd" clip-rule="evenodd" d="M168.69 376.463C168.244 376.394 167.795 376.497 167.122 376.664C167.11 376.667 167.098 376.67 167.087 376.673C166.057 376.927 164.684 377.266 162.85 376.729L163.114 375.826C164.704 376.293 165.871 376.005 166.883 375.755L166.897 375.75C166.91 375.748 166.922 375.745 166.935 375.742C167.555 375.587 168.181 375.433 168.834 375.534C169.524 375.641 170.179 376.019 170.923 376.778L170.252 377.436C169.593 376.761 169.111 376.528 168.69 376.463Z" fill="#1A1D4E"/>
<path fill-rule="evenodd" clip-rule="evenodd" d="M146.491 346.41C146.441 345.007 146.593 343.616 147.219 342.454L148.044 342.901C147.535 343.849 147.383 345.044 147.429 346.378C147.473 347.67 147.7 349.037 147.919 350.362C147.926 350.404 147.933 350.445 147.94 350.487C147.95 350.548 147.96 350.608 147.971 350.669C148.1 351.438 148.228 352.203 148.303 352.891C148.383 353.625 148.409 354.325 148.287 354.883L148.252 355.04L148.129 355.142C147.613 355.577 146.133 356.835 144.704 358.175C143.989 358.845 143.291 359.53 142.736 360.139C142.166 360.764 141.793 361.259 141.666 361.557C141.447 362.086 141.575 362.819 142.194 363.618L142.197 363.622L142.2 363.626C142.444 363.957 142.786 364.279 143.207 364.619C144.929 365.945 147.798 366.745 150.32 364.799C150.704 364.502 151.045 364.367 151.353 364.36C151.67 364.355 151.872 364.488 151.956 364.547C152.179 364.702 152.349 364.927 152.475 365.153C152.604 365.385 152.704 365.647 152.777 365.905C152.916 366.403 152.978 366.986 152.871 367.4H152.869V367.403C152.805 367.643 152.827 367.987 152.98 368.395C153.13 368.794 153.393 369.22 153.753 369.6H153.755V369.603C154.821 370.746 156.446 371.235 158.262 370.882L158.442 371.804C156.358 372.21 154.391 371.659 153.072 370.245C152.632 369.783 152.298 369.251 152.102 368.724C151.907 368.204 151.831 367.65 151.963 367.159C152.009 366.981 151.994 366.589 151.873 366.16C151.816 365.955 151.741 365.765 151.656 365.611C151.567 365.454 151.483 365.363 151.421 365.32L151.419 365.318L151.414 365.315L151.409 365.311C151.396 365.302 151.393 365.301 151.372 365.301C151.333 365.301 151.181 365.32 150.892 365.544C147.915 367.843 144.557 366.846 142.63 365.361L142.626 365.358L142.622 365.354C142.177 364.996 141.763 364.616 141.447 364.19C140.722 363.248 140.401 362.156 140.799 361.196H140.801V361.193C140.997 360.726 141.48 360.122 142.044 359.504C142.622 358.869 143.339 358.166 144.063 357.487C145.404 356.23 146.787 355.047 147.397 354.531C147.455 354.144 147.439 353.625 147.37 352.993C147.299 352.333 147.174 351.595 147.043 350.816C147.034 350.759 147.024 350.701 147.014 350.642C147.005 350.593 146.997 350.542 146.99 350.493C146.773 349.186 146.537 347.764 146.491 346.41Z" fill="#1A1D4E"/>
<path fill-rule="evenodd" clip-rule="evenodd" d="M147.627 354.318L153.731 348.864L154.357 349.566L148.253 355.021L147.627 354.318Z" fill="#1A1D4E"/>
<path d="M193.193 284.012C192.954 280.104 192.576 275.324 192.07 269.827L193.025 269.743C193.516 275.254 193.895 280.034 194.147 283.956L193.193 284.012Z" fill="#1A1D4E"/>
<path d="M188.829 328.901C173.324 332.865 178.712 330.475 178.712 330.475V330.461C179.61 319.383 180.677 308.249 181.967 297.185C183.16 286.964 184.535 276.8 186.149 266.762C188.099 254.602 190.373 242.638 193.025 231.012C192.281 231.476 191.453 231.996 190.597 232.572C190.457 232.671 190.316 232.769 190.176 232.867C188.394 234.076 186.402 235.553 184.255 237.31C184.128 237.422 184.002 237.521 183.862 237.633C182.29 238.941 180.634 240.389 178.937 242.019C178.726 242.23 178.516 242.427 178.291 242.638C177.856 243.06 177.435 243.482 177 243.917C176.565 244.353 176.13 244.803 175.695 245.267C175.471 245.492 175.246 245.731 175.036 245.956C167.262 254.25 158.899 265.933 152.304 282.002C135.143 323.783 130.021 365.185 138.679 375.968C144.544 383.265 156.331 386.259 175.793 378.302" fill="#C69C6D"/>
<path d="M328.755 446.05C313.601 459.602 207.562 461.809 178.01 447.441C177.561 431.682 177.365 416.358 177.393 401.526C177.533 333.104 182.473 275.155 188.773 233.5C192.828 231.307 202.342 226.555 215.349 222.422C225.158 219.315 236.944 216.546 249.91 215.477C260.181 214.634 271.112 217.052 280.724 220.398C296.566 225.894 308.858 233.894 308.858 233.894C313.643 254.068 317.235 275.338 319.929 296.918C322.006 313.436 323.564 330.152 324.742 346.67C326.089 365.34 326.959 383.799 327.577 401.512C328.124 417.047 328.461 432.005 328.755 446.05Z" fill="#7D5CC6"/>
<path d="M234.517 217.572C229.816 218.654 219.419 221.143 215.335 222.436C214.522 233.627 213.385 257.231 213.385 257.231C213.385 257.231 286.042 257.54 286.323 257.231C286.533 256.992 282.492 231.532 280.71 220.426C274.326 218.205 267.352 216.391 260.392 215.674" fill="#C69C6D"/>
<path d="M328.755 479.593C313.601 493.145 207.562 495.352 178.01 480.985C177.561 465.225 177.365 416.372 177.393 401.541H327.591C328.124 417.047 328.461 465.535 328.755 479.593Z" fill="#3F2E63"/>
<path d="M294.571 314.322L292.705 313.464C292.817 313.211 304.028 288.328 299.286 277.447C298.331 275.254 296.816 273.848 294.669 273.131C291.68 272.147 289.042 272.442 286.615 274.073C276.414 280.905 274.281 308.108 274.267 308.389L272.218 308.235C272.302 307.082 274.435 279.752 285.478 272.372C288.425 270.403 291.736 270.01 295.315 271.191C298.009 272.09 299.973 273.918 301.166 276.631C306.273 288.356 295.062 313.268 294.571 314.322Z" fill="#1A1D4E"/>
<path d="M216.256 178.401C216.256 178.401 215.877 153.995 217.126 147.332C218.375 140.668 227.916 128.226 249.091 128.62C270.279 129 275.19 140.288 276.144 152.449C277.112 164.61 276.144 179.835 276.144 179.835C276.144 179.835 226.176 194.132 216.256 178.401Z" fill="#1A1D4E"/>
<path d="M272.473 192.056C271.407 201.053 265.471 207.365 259.957 208.209L260.209 221.536C256.575 230.548 240.172 229.887 234.307 221.185L234.419 216.742L234.629 208.532C224.288 205.018 222.141 191.676 222.141 191.676C217.623 195.528 205.232 195.064 205.948 184.183C206.678 173.218 218.759 174.933 220.443 178.588C220.443 178.588 222.04 175.096 222.141 173.133C223.179 172.163 217.284 145.563 238.011 143.807C246.781 158.569 262.469 165.415 273.259 164.065C273.259 164.065 273.021 174.103 272.782 179.333C274.536 174.539 287.389 173.218 288.119 184.183C288.835 195.078 275.083 194.671 272.473 192.056Z" fill="#C69C6D"/>
<path fill-rule="evenodd" clip-rule="evenodd" d="M214.968 181.494C212.887 181.335 211.03 182.14 210.273 183.32L209.285 182.684C210.351 181.026 212.703 180.143 215.056 180.321C217.572 180.504 219.628 181.823 220.611 183.965L219.545 184.457C218.762 182.749 217.113 181.648 214.971 181.494H214.968Z" fill="#1A1D4E"/>
<path fill-rule="evenodd" clip-rule="evenodd" d="M283.797 183.324C283.025 182.14 281.166 181.349 279.096 181.494C276.941 181.65 275.306 182.748 274.522 184.457L273.456 183.965C274.439 181.823 276.481 180.504 279.012 180.321H279.014C281.349 180.157 283.699 181.024 284.779 182.68L283.797 183.324Z" fill="#1A1D4E"/>
<path fill-rule="evenodd" clip-rule="evenodd" d="M251.723 175.567C251.002 173.327 248.952 172.39 247.196 172.488C245.257 172.606 243.817 173.845 243.447 175.574L242.674 175.373C243.141 173.195 244.931 171.747 247.153 171.612C249.141 171.501 251.594 172.558 252.469 175.274L251.72 175.568L251.723 175.567Z" fill="#1A1D4E"/>
<path fill-rule="evenodd" clip-rule="evenodd" d="M252.127 173.471C251.461 175.589 251.18 179.75 255.69 184.214L256.491 185.018L255.74 185.855C255.594 186.016 252.61 189.338 247.909 189.338C247.621 189.338 247.335 189.323 247.036 189.293L247.154 188.124C247.417 188.15 247.663 188.163 247.909 188.163C252.075 188.163 254.759 185.19 254.867 185.067L254.875 185.06L254.863 185.049C249.973 180.206 250.676 175.461 251.441 173.025" fill="#1A1D4E"/>
<path d="M239.681 175.607C239.681 176.788 238.727 177.744 237.548 177.744C236.369 177.744 235.415 176.788 235.415 175.607C235.415 174.427 236.369 173.471 237.548 173.471C238.727 173.471 239.681 174.427 239.681 175.607Z" fill="#1A1D4E"/>
<path d="M260.743 175.607C260.743 176.788 259.788 177.744 258.61 177.744C257.431 177.744 256.477 176.788 256.477 175.607C256.477 174.427 257.431 173.471 258.61 173.471C259.788 173.471 260.743 174.427 260.743 175.607Z" fill="#1A1D4E"/>
<path d="M256.477 194.094C255.523 202.74 244.283 202.515 242.81 194.699C246.276 195.88 253.306 195.978 256.477 194.094Z" fill="white"/>
<path d="M253.811 209.502C253.811 209.502 249.208 217.98 234.419 216.742L234.629 208.532C234.629 208.532 241.954 211.836 253.811 209.502Z" fill="#1A1D4E"/>
<path d="M289.07 309.626L295.469 312.368L293.954 315.911L287.555 313.169C286.713 312.804 286.334 311.848 286.685 311.004L286.909 310.498C287.274 309.655 288.243 309.261 289.07 309.626Z" fill="white"/>
<path d="M294.377 330.883C309.574 334.932 324.77 335.466 324.77 335.452C324.139 324.205 322.581 313.394 321.276 302.316C320.084 292.096 318.709 281.931 317.095 271.894C315.144 259.733 312.871 247.769 310.219 236.143C310.963 236.607 311.791 237.127 312.647 237.704C312.787 237.802 312.927 237.9 313.068 237.999C314.85 239.208 316.842 240.684 318.989 242.441C319.115 242.554 319.242 242.652 319.382 242.765C320.954 244.072 322.609 245.52 324.307 247.151C324.518 247.362 324.728 247.559 324.953 247.769C325.388 248.191 325.809 248.613 326.244 249.049C326.679 249.485 327.114 249.934 327.549 250.398C327.773 250.623 327.998 250.862 328.208 251.087C335.982 259.382 344.345 271.064 350.94 287.133C368.101 328.915 373.223 358.55 364.565 369.333C358.7 376.629 346.913 379.623 327.45 371.666C318.161 367.871 316.042 360.11 303.063 350.607C303.063 350.607 291.837 359.66 277.188 340.597" fill="#C69C6D"/>
<path d="M264.054 333.034C264.054 333.034 254.092 333.779 255.046 339.782C255.775 344.407 261.641 340.344 268.965 346.923C268.965 346.923 271.519 331.895 264.054 333.034Z" fill="#C69C6D"/>
<path fill-rule="evenodd" clip-rule="evenodd" d="M271.129 327.804C273.195 327.006 275.395 326.373 276.585 326.081L276.865 327.222C275.712 327.506 273.562 328.125 271.551 328.901C270.545 329.289 269.588 329.712 268.814 330.146C268.018 330.591 267.493 331.007 267.265 331.351H267.263V331.354C267.064 331.649 266.896 332.21 266.785 333.009C266.678 333.785 266.636 334.704 266.633 335.649C266.628 337.534 266.781 339.459 266.858 340.423C266.898 340.922 266.915 341.186 266.915 341.328H265.742C265.742 341.245 265.731 341.032 265.688 340.52V340.517C265.61 339.556 265.455 337.586 265.46 335.646C265.463 334.676 265.505 333.697 265.623 332.848C265.737 332.023 265.93 331.229 266.291 330.695C266.687 330.105 267.423 329.578 268.244 329.12C269.085 328.648 270.098 328.203 271.131 327.804H271.129Z" fill="#1A1D4E"/>
<path fill-rule="evenodd" clip-rule="evenodd" d="M275.231 338.666C277.063 337.587 279.049 336.54 280.122 335.996L280.653 337.045C279.593 337.583 277.629 338.616 275.824 339.679C274.921 340.211 274.066 340.743 273.385 341.221C273.046 341.462 272.757 341.683 272.529 341.878C272.297 342.079 272.158 342.231 272.09 342.331C271.905 342.608 271.739 343.09 271.609 343.735C271.483 344.365 271.401 345.088 271.349 345.795C271.274 346.839 271.264 347.749 271.258 348.317C271.257 348.544 271.254 348.717 271.25 348.823L270.077 348.764C270.079 348.72 270.081 348.613 270.082 348.456C270.088 347.919 270.099 346.804 270.18 345.709C270.234 344.976 270.319 344.2 270.46 343.503C270.596 342.823 270.797 342.151 271.116 341.676C271.271 341.445 271.505 341.212 271.765 340.987C272.03 340.758 272.354 340.513 272.712 340.26C273.429 339.755 274.314 339.204 275.231 338.666Z" fill="#1A1D4E"/>
<path d="M236.705 181.674C232.778 181.674 229.583 177.744 229.583 172.915C229.583 168.086 232.777 164.157 236.705 164.157C240.632 164.157 243.826 168.086 243.826 172.915C243.826 177.744 240.632 181.674 236.705 181.674ZM236.705 165.141C233.32 165.141 230.566 168.629 230.566 172.915C230.566 177.202 233.319 180.69 236.705 180.69C240.09 180.69 242.844 177.202 242.844 172.915C242.844 168.629 240.09 165.141 236.705 165.141Z" fill="#1A1D4E"/>
<path d="M258.395 181.674C254.469 181.674 251.274 177.744 251.274 172.915C251.274 168.086 254.468 164.157 258.395 164.157C262.323 164.157 265.516 168.086 265.516 172.915C265.516 177.744 262.323 181.674 258.395 181.674ZM258.395 165.141C255.011 165.141 252.256 168.629 252.256 172.915C252.256 177.202 255.009 180.69 258.395 180.69C261.781 180.69 264.534 177.202 264.534 172.915C264.534 168.629 261.781 165.141 258.395 165.141Z" fill="#1A1D4E"/>
<path d="M229.865 174.085C229.812 174.055 224.459 171.172 221.61 173.617L220.972 172.869C222.382 171.658 224.463 171.344 226.992 171.958C228.843 172.408 230.278 173.189 230.338 173.222L229.867 174.085H229.865Z" fill="#1A1D4E"/>
<path d="M264.882 174.841L264.411 173.978C264.655 173.844 270.414 170.738 273.777 173.625L273.138 174.372C270.286 171.923 264.937 174.81 264.884 174.84L264.882 174.841Z" fill="#1A1D4E"/>
<path d="M301.441 230.88C303.605 228.785 323.67 242.008 337.573 261.96C342.86 269.547 346.809 277.468 347.882 279.658C351.841 287.74 354.442 295.018 357.278 302.949C357.872 304.61 359.495 309.195 361.412 315.241C362.638 319.112 363.88 323.033 365.074 327.536C367.429 336.419 369.475 344.358 369.275 354.331C369.163 359.977 369.072 362.863 367.409 366.037C363.714 373.086 356.003 375.624 353.021 376.405C352.812 376.46 352.493 376.543 352.076 376.636C345.859 378.029 340.892 376.786 336.403 375.608C334.938 375.223 332.872 374.614 330.445 373.658C327.968 373.148 325.955 372.544 324.514 372.068C321.245 370.99 317.371 369.348 314.952 367.09C314.413 366.587 312.908 365.254 312.273 363.047C311.932 361.859 311.942 360.602 311.945 359.365C311.959 349.734 311.246 340.102 309.818 330.578C314.006 329.698 318.504 330.391 322.236 332.488C323.485 328.06 322.364 323.346 321.212 318.892C316.027 298.846 310.148 278.441 311.859 257.803C311.888 257.471 312.191 256.089 311.823 254.371C311.43 252.535 310.514 251.306 310.264 250.959C308.171 248.041 299.601 232.662 301.444 230.88H301.441Z" fill="#7D5CC6"/>
<path d="M317.263 344.03L293.1 341.697L276.865 326.556C276.865 326.556 306.136 329.564 309.083 324.939C312.268 319.948 310.752 278.504 310.289 278.406H310.879C314.766 299.985 318.021 322.015 317.263 344.03Z" fill="#1A1D4E"/>
<path d="M332.171 374.263C324.748 371.226 315.248 366.854 304.879 359.249C304.879 359.249 295.898 366.489 284.182 351.249L280.084 351.067C280.084 351.067 283.298 354.258 280.084 357.224C279.747 357.533 270.725 356.971 270.318 355.481C269.911 353.963 269.981 349.38 269.981 349.38C269.981 349.38 265.716 349.506 265.659 342.294C265.659 342.294 260.832 341.605 260.664 338.006C260.496 334.407 260.047 326.872 260.383 326.253C260.72 325.635 262.236 324.201 262.236 324.201C262.236 324.201 257.914 322.528 256.904 322.584C255.893 322.654 240.837 329.093 238.283 318.788C237.778 316.75 254.378 312.814 257.072 311.886C259.766 310.958 276.366 314.993 278.499 315.499C280.631 316.005 292.629 329.74 305.033 332.917C317.437 336.094 329.168 336.699 329.168 336.699V336.685" fill="#C69C6D"/>
<path fill-rule="evenodd" clip-rule="evenodd" d="M283.26 220.592C296.333 225.757 307.95 232.233 311.405 234.418L310.779 235.412C307.385 233.265 295.834 226.822 282.832 221.687L283.26 220.592Z" fill="#1A1D4E"/>
<path d="M197.353 228.245C189.501 232.641 179.209 239.606 169.274 250.324C156.878 263.698 150.922 276.464 149.659 279.475C146.931 285.976 144.971 292.769 143.018 299.545C142.779 300.37 142.012 303.23 141.101 307.09C140.429 309.936 138.231 319.486 136.535 332.681C136.084 336.181 135.553 340.85 135.119 346.401C144.44 343.034 152.138 340.982 157.343 339.745C175.147 335.514 184.062 333.626 187.123 333.333C190.753 332.986 194.6 332.713 197.579 330.607C200.56 328.501 202.114 324.947 203.4 321.528C204.597 318.347 205.68 314.786 204.433 311.624C204.767 312.638 203.991 313.861 202.933 313.987C204.751 305.583 206.57 297.181 208.387 288.776C209.45 283.859 210.521 278.882 210.385 273.852C210.281 269.994 209.469 266.179 209.425 262.32C209.397 259.836 209.689 257.34 209.411 254.872C209.001 251.215 207.658 248.613 206.731 246.698C203.028 239.056 199.652 232.569 197.353 228.244V228.245Z" fill="#7D5CC6"/>
<path d="M189.552 304.551C197.809 325.879 206.069 347.207 214.326 368.536L178.11 380.991C175.669 374.96 157.595 321.51 157.034 315.887C167.874 312.108 178.713 308.33 189.552 304.551Z" fill="#1A1D4E"/>
<path d="M164.82 348.835C153.707 351.605 157.468 360.616 165.508 358.423C169.605 357.313 184.718 353.194 184.241 349.229C183.764 345.279 169.1 347.767 164.82 348.835Z" fill="#C69C6D"/>
<path d="M173.268 354.824C160.821 356.413 160.583 365.888 167.641 365.495C174.699 365.101 187.384 359.843 186.472 356.497C185.784 353.925 179.68 354.009 173.268 354.824Z" fill="#C69C6D"/>
<path d="M184.227 361.713C185.896 363.92 183.385 367.604 176.481 369.515C169.577 371.427 166.827 366.029 170.321 363.555C173.815 361.094 182.374 359.267 184.227 361.713Z" fill="#C69C6D"/>
<path d="M162.014 341.244C150.901 343.999 154.746 353.334 162.786 351.141C166.883 350.03 181.995 345.911 181.476 341.82C180.971 337.729 166.308 340.176 162.014 341.244Z" fill="#C69C6D"/>
<path fill-rule="evenodd" clip-rule="evenodd" d="M179.722 345.672C177.756 346.963 174.758 348.272 170.731 349.624C169.812 349.936 168.827 350.245 167.804 350.556C166.762 350.881 165.867 351.134 165.232 351.314C165.174 351.329 165.121 351.345 165.067 351.36C162.874 351.979 160.75 351.758 159.142 350.664C158.021 349.907 157.263 348.779 157.034 347.49L157.991 347.304C158.165 348.293 158.752 349.19 159.671 349.81C160.993 350.712 162.817 350.941 164.815 350.379C164.867 350.364 164.923 350.348 164.979 350.333C165.616 350.151 166.5 349.902 167.53 349.581H167.533C168.552 349.271 169.527 348.963 170.435 348.657C174.441 347.31 177.347 346.032 179.207 344.811C181.111 343.561 181.73 342.498 181.628 341.625L182.592 341.501C182.771 343.032 181.645 344.408 179.724 345.672H179.722Z" fill="#1A1D4E"/>
<path fill-rule="evenodd" clip-rule="evenodd" d="M169.228 365.415C169.234 365.399 169.239 365.384 169.243 365.368L170.192 365.677C169.977 366.34 169.894 366.635 169.922 366.886C169.945 367.096 170.06 367.346 170.526 367.834C171.9 369.26 174.902 370.173 177.74 369.399L178.001 370.363C174.86 371.219 171.466 370.249 169.807 368.527H169.806C169.305 368.001 168.992 367.549 168.93 366.996C168.876 366.497 169.043 365.985 169.228 365.415Z" fill="#1A1D4E"/>
<path fill-rule="evenodd" clip-rule="evenodd" d="M187.627 356.154C187.847 356.964 187.607 357.778 187.06 358.546C186.127 359.847 184.208 361.13 181.946 362.249C179.662 363.379 176.948 364.381 174.338 365.091C172.212 365.673 170.129 366.061 168.414 366.162H168.413C166.054 366.296 164.063 365.403 163.218 363.598V363.595L163.217 363.594C162.523 362.076 162.849 360.091 163.887 358.539L164.715 359.095C163.817 360.438 163.609 362.052 164.122 363.176C164.738 364.49 166.253 365.284 168.355 365.164C169.98 365.069 171.994 364.698 174.076 364.127H174.077C176.633 363.431 179.285 362.451 181.504 361.353C183.747 360.244 185.47 359.052 186.249 357.964C186.684 357.352 186.78 356.846 186.664 356.417L187.627 356.154Z" fill="#1A1D4E"/>
<path fill-rule="evenodd" clip-rule="evenodd" d="M182.651 353.137C180.598 354.404 177.465 355.697 173.252 357.043C172.292 357.355 171.264 357.666 170.195 357.975C169.107 358.3 168.174 358.553 167.508 358.733C167.449 358.748 167.391 358.764 167.336 358.779H167.335C165.038 359.395 162.836 359.206 161.174 358.158H161.171C160.033 357.432 159.236 356.348 159.011 355.08L159.993 354.906C160.162 355.858 160.767 356.715 161.705 357.313C163.072 358.175 164.968 358.38 167.077 357.815C167.132 357.799 167.188 357.784 167.247 357.768C167.913 357.588 168.836 357.338 169.913 357.016H169.915C170.979 356.707 171.998 356.399 172.946 356.092H172.948C177.139 354.753 180.18 353.487 182.129 352.287C183.104 351.685 183.778 351.117 184.187 350.587C184.593 350.064 184.722 349.606 184.671 349.191L185.662 349.07C185.752 349.815 185.494 350.531 184.976 351.2C184.462 351.862 183.678 352.505 182.651 353.137Z" fill="#1A1D4E"/>
<path fill-rule="evenodd" clip-rule="evenodd" d="M271.013 327.696C273.078 326.897 275.278 326.265 276.468 325.972L276.749 327.114C275.596 327.398 273.446 328.016 271.435 328.792C270.429 329.18 269.472 329.604 268.697 330.038C267.902 330.482 267.377 330.898 267.148 331.243H267.147V331.246C266.948 331.541 266.779 332.102 266.668 332.9C266.562 333.676 266.52 334.596 266.517 335.54C266.511 337.426 266.664 339.35 266.741 340.315C266.782 340.814 266.799 341.078 266.799 341.22H265.626C265.626 341.137 265.615 340.923 265.571 340.412V340.409C265.494 339.447 265.338 337.478 265.344 335.538C265.347 334.568 265.389 333.589 265.507 332.74C265.62 331.915 265.814 331.12 266.174 330.586C266.57 329.997 267.307 329.47 268.128 329.012C268.968 328.539 269.981 328.095 271.014 327.696H271.013Z" fill="#1A1D4E"/>
<path fill-rule="evenodd" clip-rule="evenodd" d="M275.113 339.262C276.945 338.183 278.931 337.136 280.004 336.592L280.535 337.641C279.475 338.179 277.511 339.213 275.706 340.275C274.803 340.807 273.948 341.34 273.268 341.818C272.928 342.058 272.639 342.279 272.412 342.474C272.179 342.675 272.04 342.827 271.972 342.927C271.787 343.204 271.622 343.686 271.491 344.331C271.365 344.961 271.283 345.684 271.232 346.391C271.156 347.435 271.146 348.345 271.14 348.913C271.139 349.141 271.136 349.313 271.132 349.419L269.959 349.36C269.962 349.316 269.963 349.209 269.964 349.052C269.97 348.515 269.981 347.4 270.063 346.305C270.116 345.573 270.202 344.797 270.342 344.099C270.478 343.419 270.679 342.747 270.999 342.272C271.153 342.041 271.387 341.808 271.647 341.583C271.912 341.354 272.236 341.109 272.594 340.856C273.311 340.351 274.197 339.8 275.113 339.262Z" fill="#1A1D4E"/>
<path fill-rule="evenodd" clip-rule="evenodd" d="M265.847 320.702C267.913 319.903 270.113 319.271 271.303 318.978L271.584 320.12C270.43 320.404 268.281 321.022 266.27 321.798C265.264 322.186 264.307 322.609 263.532 323.044C262.737 323.488 262.212 323.904 261.983 324.249H261.982V324.251C261.782 324.547 261.614 325.108 261.503 325.906C261.397 326.682 261.354 327.602 261.352 328.546C261.346 330.432 261.499 332.356 261.576 333.321C261.617 333.82 261.634 334.084 261.634 334.226H260.461C260.461 334.143 260.449 333.929 260.406 333.418V333.415C260.329 332.453 260.173 330.484 260.179 328.544C260.181 327.573 260.223 326.595 260.341 325.746C260.455 324.921 260.649 324.126 261.009 323.592C261.405 323.003 262.142 322.476 262.962 322.018C263.803 321.545 264.816 321.101 265.849 320.702H265.847Z" fill="#1A1D4E"/>
<path fill-rule="evenodd" clip-rule="evenodd" d="M257.045 341.484C257.681 341.85 258.533 341.993 259.633 342.175C259.633 342.175 261.942 342.194 264.549 343.526C265.492 344.008 266.541 345.332 267.681 347.345C267.446 347.597 267.422 347.461 267.186 347.714C266.744 346.984 265.8 345.64 264.134 344.617C262.167 343.408 260.292 343.322 259.463 343.336C259.433 343.332 259.403 343.326 259.374 343.322C258.366 343.156 257.334 342.987 256.518 342.518C255.614 342 255.002 341.141 254.792 339.726L255.888 339.543C256.049 340.63 256.473 341.155 257.045 341.484Z" fill="#1A1D4E"/>
<path fill-rule="evenodd" clip-rule="evenodd" d="M280.554 221.122C280.545 221.29 280.536 221.449 280.504 221.555C280.349 222.064 280.067 222.532 279.774 222.972C268.337 240.133 246.645 239.003 229.457 232.603C226.665 231.563 223.884 230.423 221.34 228.855C220.074 228.075 218.638 227.182 217.639 226.065C216.726 225.043 216.229 223.735 215.142 222.813C214.798 223.09 214.679 223.419 214.498 223.819C214.022 224.871 214.189 224.288 212.647 227.014C211.903 228.328 211.203 229.666 210.548 231.027C209.46 233.284 208.498 235.602 207.668 237.967C207.668 237.967 204.824 243.042 204.727 255.23C204.717 256.442 204.753 257.689 205.225 258.805C205.777 260.103 206.873 261.097 208.061 261.852C210.574 263.45 213.549 264.142 216.486 264.63C223.178 265.742 229.985 265.936 236.766 266.033C258.225 266.341 279.698 265.712 301.103 264.152C300.47 258.243 298.877 249.697 294.605 240.241C290.695 231.587 285.901 225.176 282.162 220.908C281.53 220.367 280.939 220.201 280.726 220.399C280.589 220.526 280.571 220.837 280.554 221.122Z" fill="#7D5CC6"/>
<path fill-rule="evenodd" clip-rule="evenodd" d="M217.659 221.802C204.337 226.035 192.374 231.672 188.84 233.582L188.283 232.547C191.878 230.604 203.911 224.938 217.305 220.68L217.659 221.802Z" fill="#1A1D4E"/>
<path d="M234.944 216.858C228.377 219.318 220.224 223.128 216.45 227.458C206.669 238.648 204.845 254.155 205.028 265.191C205.224 277.351 207.82 287.108 208.171 287.979L207.497 288.246L206.361 288.935C206.024 288.359 203.274 278.138 202.993 265.753C202.74 254.183 204.607 237.917 214.92 226.122C219.017 221.441 227.689 217.336 234.859 214.749" fill="#1A1D4E"/>
<path d="M260.406 213.515C271.786 217.634 294.419 231.102 295.486 272.912L293.549 271.562C292.778 241.477 279.181 222.568 260.378 215.764" fill="#1A1D4E"/>
<path d="M278.792 309.47L271.902 308.492L272.445 304.677L279.335 305.655C280.243 305.789 280.857 306.612 280.737 307.519L280.651 308.066C280.518 308.976 279.686 309.608 278.791 309.47H278.792Z" fill="white"/>
<path d="M208.51 303.12C214.509 303.12 219.371 298.249 219.371 292.239C219.371 286.229 214.509 281.358 208.51 281.358C202.512 281.358 197.65 286.229 197.65 292.239C197.65 298.249 202.512 303.12 208.51 303.12Z" fill="white"/>
<path fill-rule="evenodd" clip-rule="evenodd" d="M208.51 281.945C202.836 281.945 198.236 286.554 198.236 292.239C198.236 297.924 202.836 302.533 208.51 302.533C214.185 302.533 218.784 297.924 218.784 292.239C218.784 286.554 214.185 281.945 208.51 281.945ZM197.063 292.239C197.063 285.904 202.187 280.77 208.51 280.77C214.833 280.77 219.957 285.904 219.957 292.239C219.957 298.574 214.833 303.708 208.51 303.708C202.187 303.708 197.063 298.574 197.063 292.239Z" fill="#1A1D4E"/>
<path d="M208.524 298.608C205.002 298.608 202.14 295.74 202.14 292.211C202.14 288.682 205.002 285.814 208.524 285.814C212.046 285.814 214.909 288.682 214.909 292.211C214.909 295.74 212.046 298.608 208.524 298.608Z" fill="#1A1D4E"/>
<path fill-rule="evenodd" clip-rule="evenodd" d="M241.576 322.476C242.933 323.412 244.763 323.913 247.09 323.913C248.633 323.913 250.37 323.682 252.319 323.238L252.58 324.385C250.572 324.841 248.745 325.088 247.09 325.088C244.603 325.088 242.518 324.555 240.91 323.443C239.293 322.325 238.214 320.662 237.68 318.513L238.819 318.229C239.295 320.142 240.229 321.544 241.576 322.476Z" fill="#1A1D4E"/>
<path d="M298.968 361.705C296.353 361.705 292.529 360.737 288.449 356.441L289.262 355.667C293.278 359.895 296.96 360.668 299.346 360.573C299.795 360.555 300.248 360.504 300.694 360.422L300.896 361.529C300.4 361.62 299.893 361.676 299.392 361.696C299.256 361.702 299.114 361.705 298.97 361.705H298.968Z" fill="#1A1D4E"/>
<path fill-rule="evenodd" clip-rule="evenodd" d="M264.935 344.538C264.97 347.074 266.066 347.316 267.258 348.588C267.878 349.25 268.547 349.581 269.069 349.742C269.33 349.822 269.553 349.862 269.717 349.881C269.739 349.883 269.758 349.886 269.778 349.887C269.778 349.898 269.778 349.911 269.778 349.924C269.778 350.054 269.778 350.241 269.778 350.468C269.776 350.92 269.781 351.537 269.796 352.198C269.811 352.858 269.841 353.568 269.89 354.206C269.939 354.833 270.011 355.432 270.126 355.849L270.129 355.859L270.131 355.869C270.2 356.09 270.352 356.239 270.467 356.33C270.589 356.427 270.732 356.506 270.875 356.573C271.164 356.708 271.533 356.829 271.94 356.937C272.758 357.155 273.818 357.346 274.89 357.497C275.964 357.647 277.07 357.758 277.985 357.812C278.443 357.838 278.859 357.853 279.204 357.848C279.533 357.844 279.847 357.824 280.072 357.767L280.218 357.729L280.328 357.623C281.225 356.771 281.743 355.786 281.76 354.691C281.776 353.712 281.395 352.856 281.038 352.267C280.678 351.672 280.31 351.299 280.283 351.27L280.171 351.159L277.521 350.458L277.22 351.594L279.551 352.211C279.662 352.337 279.849 352.571 280.035 352.877C280.334 353.371 280.598 354.003 280.587 354.671C280.577 355.333 280.288 355.995 279.644 356.651C279.543 356.66 279.392 356.67 279.19 356.673C278.882 356.676 278.496 356.665 278.054 356.638C277.173 356.587 276.099 356.479 275.052 356.333C274.001 356.185 272.995 356.001 272.242 355.801C271.862 355.7 271.568 355.6 271.372 355.509C271.307 355.478 271.261 355.453 271.231 355.433C271.16 355.128 271.104 354.668 271.06 354.114C271.013 353.506 270.985 352.818 270.969 352.17C270.94 350.978 270.952 349.938 270.955 349.748V349.732L270.99 348.686L269.991 348.723H269.969C269.945 348.722 269.906 348.719 269.855 348.713C269.753 348.702 269.601 348.675 269.42 348.619C269.058 348.506 268.577 348.275 268.116 347.784M252.855 376.12C252.855 376.12 252.855 376.121 252.86 376.124C252.857 376.121 252.855 376.12 252.855 376.12Z" fill="#1A1D4E"/>
<path d="M139.804 316.002L138.697 315.816C140.053 307.675 142.075 299.601 144.706 291.819C145.988 288.026 147.439 284.233 149.019 280.547L150.05 280.991C148.483 284.65 147.042 288.415 145.769 292.18C143.158 299.905 141.151 307.92 139.806 316.002H139.804Z" fill="#1A1D4E"/>
<path d="M347.53 376.869C345.045 376.869 342.545 376.524 340.131 375.837L340.437 374.755C344.174 375.816 348.131 376.029 351.879 375.367C353.835 375.021 357.905 374.302 361.568 371.402C367.841 366.434 368.631 358.371 368.724 356.019L369.845 356.064C369.783 357.614 369.528 360.03 368.654 362.746C367.371 366.733 365.222 369.941 362.264 372.285C358.38 375.361 354.12 376.113 352.074 376.476C350.582 376.739 349.058 376.871 347.529 376.871L347.53 376.869Z" fill="#1A1D4E"/>
<path fill-rule="evenodd" clip-rule="evenodd" d="M440.185 115.189C438.981 121.466 442.541 127.988 446.515 130.895C449.476 133.067 454.862 137.152 457.385 139.982C457.528 140.141 457.669 140.31 457.794 140.463C457.92 140.297 458.065 140.136 458.206 139.982C458.962 139.132 460.033 138.104 461.39 136.932L462 137.678C460.659 138.836 459.621 139.835 458.903 140.64H458.902V140.642C458.752 140.809 458.632 140.944 458.534 141.075L458.529 141.081L457.795 142L457.068 141.09C456.945 140.94 456.816 140.785 456.687 140.642V140.64C454.244 137.9 448.948 133.876 445.967 131.689C441.753 128.606 437.966 121.727 439.256 115L440.185 115.189Z" fill="white"/>
<path fill-rule="evenodd" clip-rule="evenodd" d="M464.273 116L468.591 123.999H483V124.911H468.018L464.316 118.053L458.5 130L452.694 118.053L448.981 124.911H434V123.999H448.41L452.739 116L458.5 127.855L464.273 116Z" fill="white"/>
<path fill-rule="evenodd" clip-rule="evenodd" d="M457.781 85.96C450.135 85.96 442.798 88.251 436.549 92.593L436 91.805C442.412 87.35 449.94 85 457.781 85C478.851 85 496 102.145 496 123.211C496 133.83 491.741 143.708 484.017 151L483.357 150.302C490.889 143.191 495.04 133.566 495.04 123.211C495.04 102.676 478.321 85.96 457.781 85.96Z" fill="white"/>
<path fill-rule="evenodd" clip-rule="evenodd" d="M423.488 110.35C421.803 114.658 420.951 119.214 420.951 123.897C420.951 144.374 437.499 161.042 457.83 161.042C463.726 161.042 469.359 159.685 474.568 157.006L475 157.858C469.657 160.608 463.873 162 457.83 162C436.974 162 420 144.903 420 123.897C420 119.095 420.876 114.42 422.603 110L423.488 110.35Z" fill="white"/>
<path fill-rule="evenodd" clip-rule="evenodd" d="M370.819 23.456V76.119H369.646V23.456H370.819Z" fill="#F2F2F2"/>
<path fill-rule="evenodd" clip-rule="evenodd" d="M300.255 1.438V0.262001H356.046C364.186 0.262001 370.819 6.908 370.819 15.063H369.646C369.646 7.557 363.538 1.438 356.046 1.438H300.255Z" fill="white"/>
<path fill-rule="evenodd" clip-rule="evenodd" d="M267.74 88.054C267.74 95.56 273.848 101.68 281.34 101.68H336.892V102.855H281.34C273.2 102.855 266.567 96.21 266.567 88.054V15.063C266.567 6.908 273.2 0.262001 281.34 0.262001V1.438C273.848 1.438 267.74 7.557 267.74 15.063V88.054Z" fill="white"/>
<path d="M322.65 32.2L330.522 33.775L324.222 38.512L325.807 47.974L317.935 43.236L310.063 47.974L311.635 38.512L305.335 33.775L313.207 32.2L317.935 24.313L322.65 32.2Z" fill="#F8AF00"/>
<path fill-rule="evenodd" clip-rule="evenodd" d="M315.126 82.954H322.734V84.129H313.953V63.806H322.734V64.982H315.126V82.954Z" fill="#1A1D4E"/>
<path fill-rule="evenodd" clip-rule="evenodd" d="M338.335 17.889V45.246C338.335 56.143 329.513 64.982 318.637 64.982C307.761 64.982 298.939 56.143 298.939 45.246V17.889H300.112V45.246C300.112 55.494 308.409 63.806 318.637 63.806C328.865 63.806 337.162 55.494 337.162 45.246V17.889H338.335Z" fill="#1A1D4E"/>
<path fill-rule="evenodd" clip-rule="evenodd" d="M300.126 45.246C300.126 55.494 308.423 63.806 318.651 63.806C328.879 63.806 337.176 55.494 337.176 45.246V17.889H338.349V45.246C338.349 56.143 329.527 64.982 318.651 64.982C307.775 64.982 298.953 56.143 298.953 45.246V17.301H329.301V18.476H300.126V45.246Z" fill="white"/>
<path fill-rule="evenodd" clip-rule="evenodd" d="M323.321 64.394V77.679H322.148V64.394H323.321Z" fill="white"/>
<path fill-rule="evenodd" clip-rule="evenodd" d="M313.953 83.542V64.394H315.126V83.542H313.953Z" fill="white"/>
<path fill-rule="evenodd" clip-rule="evenodd" d="M329.666 84.129H307.818V82.954H329.666C331.49 82.954 332.989 84.438 332.989 86.283C332.989 88.127 331.507 89.612 329.666 89.612H307.818C305.996 89.612 304.496 88.127 304.496 86.283H305.669C305.669 87.475 306.64 88.437 307.818 88.437H329.666C330.856 88.437 331.816 87.464 331.816 86.283C331.816 85.102 330.846 84.129 329.666 84.129Z" fill="white"/>
<path fill-rule="evenodd" clip-rule="evenodd" d="M323.103 31.043L330.97 32.629L324.734 37.306L326.26 46.406L318.637 41.827L311.03 46.406L312.541 37.306L306.321 32.629L314.17 31.043L318.637 23.594L323.103 31.043ZM314.909 32.092L309.119 33.262L313.816 36.794L312.605 44.087L318.637 40.455L324.68 44.087L323.457 36.794L328.166 33.262L322.365 32.092L318.637 25.877L314.909 32.092Z" fill="white"/>
<path fill-rule="evenodd" clip-rule="evenodd" d="M317.276 52.869H320.012V54.044H317.276V52.869Z" fill="white"/>
<path fill-rule="evenodd" clip-rule="evenodd" d="M311.817 52.869H314.54V54.044H311.817V52.869Z" fill="white"/>
<path fill-rule="evenodd" clip-rule="evenodd" d="M322.734 52.869H325.47V54.044H322.734V52.869Z" fill="white"/>
<path fill-rule="evenodd" clip-rule="evenodd" d="M289.195 35.673C289.195 40.634 293.213 44.659 298.164 44.659H299.525V45.834H298.164C292.564 45.834 288.022 41.283 288.022 35.673V25.511H297.154V26.686H289.195V35.673Z" fill="white"/>
<path fill-rule="evenodd" clip-rule="evenodd" d="M349.266 35.673C349.266 41.283 344.724 45.834 339.124 45.834H337.762V44.659H339.124C344.075 44.659 348.093 40.634 348.093 35.673V26.686H340.653V25.511H349.266V35.673Z" fill="white"/>
<path d="M90.194 29.049H23.832V72.399H90.194V29.049Z" fill="#51AD32"/>
<path fill-rule="evenodd" clip-rule="evenodd" d="M12.707 26.593V76.306C12.707 82.084 17.409 86.794 23.174 86.794V87.699C16.909 87.699 11.803 82.583 11.803 76.306V26.593H12.707Z" fill="white"/>
<path fill-rule="evenodd" clip-rule="evenodd" d="M23.174 9.644C17.407 9.644 12.707 14.355 12.707 20.132H11.803C11.803 13.855 16.909 8.739 23.174 8.739H80.182V9.643L23.174 9.644Z" fill="white"/>
<path fill-rule="evenodd" clip-rule="evenodd" d="M105.198 20.133C105.198 14.355 100.496 9.645 94.7301 9.645V8.741C100.995 8.741 106.102 13.857 106.102 20.134V76.308C106.102 82.585 100.995 87.701 94.7301 87.701H32.8201V86.795H94.7301C100.497 86.795 105.198 82.084 105.198 76.308V20.134V20.133Z" fill="white"/>
<path fill-rule="evenodd" clip-rule="evenodd" d="M29.1489 30.231H88.8629V68.155H82.8609V67.25H87.9609V31.135H30.0529V67.25H76.9189V68.155H29.1489V30.231Z" fill="white"/>
<path fill-rule="evenodd" clip-rule="evenodd" d="M24.98 26.67H34.926V27.576H25.884V70.811H92.13V27.576H42.088V26.67H93.034V71.715H24.982V26.67H24.98Z" fill="white"/>
<path fill-rule="evenodd" clip-rule="evenodd" d="M43.2319 53.02H74.7699V53.925H43.2319V53.02Z" fill="white"/>
<path fill-rule="evenodd" clip-rule="evenodd" d="M40.3049 56.083H77.7079V56.987H40.3049V56.083Z" fill="white"/>
<path fill-rule="evenodd" clip-rule="evenodd" d="M55.0479 59.466H40.3049V58.562H55.0479V59.466Z" fill="white"/>
<path fill-rule="evenodd" clip-rule="evenodd" d="M59.0391 33.501L59.3951 33.948C59.9601 34.64 60.7631 35.088 61.5841 35.388L62.1591 35.597L54.9611 45.158L54.6031 44.658C53.4021 42.975 52.8551 40.48 53.0171 36.327L53.0341 35.884L53.4761 35.891H53.5101C53.5351 35.891 53.5721 35.891 53.6211 35.891C53.7191 35.888 53.8621 35.883 54.0421 35.87C54.4011 35.843 54.8981 35.786 55.4461 35.665C56.5481 35.419 57.7911 34.928 58.5881 33.971C58.6051 33.943 58.6231 33.922 58.6341 33.909C58.6541 33.886 58.6721 33.868 58.6791 33.861L59.0371 33.503L59.0391 33.501ZM59.0011 34.856C58.0301 35.829 56.7131 36.306 55.6441 36.545C55.0441 36.678 54.5021 36.74 54.1121 36.77C54.0391 36.775 53.9701 36.78 53.9081 36.782C53.8131 40.149 54.2301 42.21 55.0041 43.599L60.7151 36.011C60.1121 35.738 59.5091 35.367 59.0011 34.856Z" fill="white"/>
<path fill-rule="evenodd" clip-rule="evenodd" d="M63.694 35.839L63.941 35.859C64.134 35.876 64.289 35.883 64.395 35.885C64.448 35.888 64.489 35.888 64.515 35.888C64.528 35.888 64.538 35.888 64.545 35.888H64.988L65.005 36.323C65.152 40.206 64.674 42.641 63.638 44.309C62.604 45.977 61.056 46.808 59.276 47.581L59.198 47.658H59.012C58.897 47.658 58.811 47.614 58.789 47.605C58.778 47.598 58.763 47.591 58.748 47.582C57.896 47.208 57.101 46.83 56.385 46.349L55.989 46.083L63.694 35.841V35.839ZM64.115 36.781L57.292 45.853C57.809 46.159 58.379 46.429 59.013 46.71C60.721 45.963 62.008 45.226 62.871 43.834C63.731 42.449 64.209 40.346 64.117 36.782L64.115 36.781Z" fill="white"/>
<path fill-rule="evenodd" clip-rule="evenodd" d="M70.5761 60.209C70.0091 60.446 69.2301 60.888 68.2391 61.553L67.7361 60.803C68.7431 60.125 69.5791 59.644 70.2291 59.374C70.5531 59.239 70.8531 59.148 71.1191 59.12C71.3771 59.093 71.6741 59.12 71.9101 59.311C72.1191 59.48 72.2381 59.713 72.2361 59.991C72.2331 60.233 72.1391 60.469 72.0261 60.685C71.8051 61.104 71.3921 61.649 70.8621 62.338C71.1861 62.116 71.5001 61.895 71.7651 61.707V61.704C72.6861 61.06 73.2871 60.642 73.6881 60.439C73.8841 60.339 74.1031 60.253 74.3281 60.261C74.6011 60.271 74.7891 60.415 74.9131 60.579C75.1471 60.89 75.1051 61.258 75.0241 61.559C74.9551 61.813 74.8291 62.12 74.6731 62.481C75.2361 62.244 75.9221 62.037 76.6281 62.124L76.5171 63.022C75.7881 62.934 75.0361 63.291 74.3661 63.627L74.3591 63.63L74.3521 63.634C74.2411 63.683 74.1201 63.745 74.0111 63.8L73.0171 64.298L73.3821 63.247C73.4551 63.038 73.5701 62.764 73.6651 62.537C73.6911 62.476 73.7151 62.418 73.7371 62.366L73.7401 62.362L73.7431 62.358C73.9571 61.871 74.0921 61.552 74.1541 61.321C74.1661 61.275 74.1751 61.237 74.1791 61.206C74.1571 61.217 74.1281 61.23 74.0961 61.246C73.7661 61.413 73.2351 61.78 72.2861 62.445C71.8581 62.748 71.2971 63.142 70.7691 63.488C70.2561 63.825 69.7311 64.147 69.3941 64.281L68.3121 64.71L68.8221 63.662C68.9391 63.42 69.1711 63.083 69.4011 62.767C69.6211 62.463 69.8641 62.148 70.0561 61.899C70.0721 61.88 70.0861 61.86 70.1011 61.842M74.1851 61.111C74.1851 61.111 74.1821 61.105 74.1851 61.105C74.1851 61.105 74.1851 61.105 74.1851 61.111ZM70.5741 60.208C70.8601 60.088 71.0701 60.032 71.2131 60.018L70.5741 60.208ZM71.2131 60.018C71.2701 60.013 71.3051 60.014 71.3281 60.018H71.2131ZM71.3281 60.018C71.3181 60.06 71.2931 60.138 71.2271 60.261C71.0431 60.607 70.6741 61.099 70.1011 61.843" fill="white"/>
<path d="M187.65 110.697V81.699C187.65 80.622 188.777 79.916 189.74 80.404L218.683 94.898C219.748 95.436 219.748 96.96 218.683 97.488L189.74 111.992C188.779 112.468 187.65 111.764 187.65 110.697Z" fill="#6E4F9A"/>
<path fill-rule="evenodd" clip-rule="evenodd" d="M214.725 90.02L209.866 87.586L210.253 86.812L215.114 89.246C216.492 89.945 216.5 91.923 215.112 92.612L186.17 107.105C184.924 107.724 183.458 106.824 183.458 105.422V102.655H184.322V105.422C184.322 106.176 185.111 106.665 185.787 106.33L214.729 91.837C215.47 91.469 215.478 90.402 214.728 90.021L214.725 90.02Z" fill="white"/>
<path d="M191.594 77.237L191.092 78.243L206.508 85.967L207.01 84.961L191.594 77.237Z" fill="white"/>
<path fill-rule="evenodd" clip-rule="evenodd" d="M197.222 62.887C190.34 62.887 183.735 64.952 178.11 68.87L177.616 68.159C183.387 64.14 190.163 62.021 197.222 62.021C216.187 62.021 231.624 77.485 231.624 96.488C231.624 106.066 227.79 114.976 220.837 121.554L220.244 120.924C227.023 114.511 230.759 105.828 230.759 96.488C230.759 77.965 215.71 62.887 197.222 62.887Z" fill="white"/>
<path d="M197.212 130.661C178.409 130.661 163.113 115.336 163.113 96.498H164.235C164.235 114.715 179.028 129.537 197.212 129.537V130.661Z" fill="white"/>
</svg>
