<svg width="16" height="16" viewBox="0 0 16 16" fill="none" xmlns="http://www.w3.org/2000/svg">
<path d="M8.00033 4.66667C9.84033 4.66667 11.3337 6.16 11.3337 8C11.3337 8.43333 11.247 8.84 11.0937 9.22L13.0403 11.1667C14.047 10.3267 14.8403 9.24 15.327 8C14.1737 5.07333 11.327 3 7.99366 3C7.06033 3 6.16699 3.16667 5.34033 3.46667L6.78033 4.90667C7.16033 4.75333 7.56699 4.66667 8.00033 4.66667ZM1.33366 2.84667L2.85366 4.36667L3.16033 4.67333C2.05366 5.53333 1.18699 6.68 0.666992 8C1.82033 10.9267 4.66699 13 8.00033 13C9.03366 13 10.0203 12.8 10.9203 12.44L11.2003 12.72L13.1537 14.6667L14.0003 13.82L2.18033 2L1.33366 2.84667ZM5.02033 6.53333L6.05366 7.56667C6.02033 7.70667 6.00033 7.85333 6.00033 8C6.00033 9.10667 6.89366 10 8.00033 10C8.14699 10 8.29366 9.98 8.43366 9.94667L9.46699 10.98C9.02033 11.2 8.52699 11.3333 8.00033 11.3333C6.16033 11.3333 4.66699 9.84 4.66699 8C4.66699 7.47333 4.80033 6.98 5.02033 6.53333ZM7.89366 6.01333L9.99366 8.11333L10.007 8.00667C10.007 6.9 9.11366 6.00667 8.00699 6.00667L7.89366 6.01333Z" fill="black" fill-opacity="0.5"/>
</svg>
